<?xml version="1.0" standalone="no"?>
<!DOCTYPE svg PUBLIC "-//W3C//DTD SVG 1.1//EN" "http://www.w3.org/Graphics/SVG/1.1/DTD/svg11.dtd" >
<svg xmlns="http://www.w3.org/2000/svg" xmlns:xlink="http://www.w3.org/1999/xlink" version="1.1">
<metadata>
Created by FontForge 20150824 at Mon Oct 17 03:24:19 2016
 By Everything Fonts
(c) Copyright 2001 by Tom Truong. All Rights Reserved
</metadata>
<defs>
<font id="UVNAiCapNhe" horiz-adv-x="1006" >
  <font-face 
    font-family="UVNAiCapNhe"
    font-weight="400"
    font-variant="small-caps"
    font-stretch="normal"
    units-per-em="2048"
    panose-1="2 4 5 3 5 5 6 2 2 4"
    ascent="1638"
    descent="-410"
    x-height="868"
    cap-height="1255"
    bbox="-342 -483 2243 2072"
    underline-thickness="82"
    underline-position="-320"
    unicode-range="U+0020-F002"
  />
<missing-glyph horiz-adv-x="1024" 
d="M128 0v2072h768v-2072h-768zM256 128h512v1816h-512v-1816z" />
    <glyph glyph-name=".notdef" horiz-adv-x="1024" 
d="M128 0v2072h768v-2072h-768zM256 128h512v1816h-512v-1816z" />
    <glyph glyph-name=".null" horiz-adv-x="0" 
 />
    <glyph glyph-name="nonmarkingreturn" horiz-adv-x="563" 
 />
    <glyph glyph-name="space" unicode=" " horiz-adv-x="563" 
 />
    <glyph glyph-name="exclam" unicode="!" horiz-adv-x="616" 
d="M307 139q88 0 88 -84t-88 -84q-90 0 -90 84t90 84zM229 1255h156l-31 -895h-96z" />
    <glyph glyph-name="quotedbl" unicode="&#x22;" horiz-adv-x="672" 
d="M514 868h-31l-61 455q-4 30 -4 43q0 96 82 96q80 0 80 -98q0 -4 -5 -41zM188 868h-30l-62 455q-4 29 -4 41q0 98 80 98q82 0 82 -96q0 -14 -4 -43z" />
    <glyph glyph-name="numbersign" unicode="#" horiz-adv-x="1575" 
d="M700 872l-104 -294h295l104 294h-295zM793 1454h114l-172 -483h295l172 483h113l-172 -483h315l-35 -99h-315l-102 -294h340l-37 -99h-340l-170 -479h-113l170 479h-293l-172 -479h-112l170 479h-332l37 99h329l105 294h-359l35 99h359z" />
    <glyph glyph-name="dollar" unicode="$" horiz-adv-x="1128" 
d="M586 594v-537q118 8 187 71q75 68 75 183q0 191 -262 283zM520 1196q-231 -17 -231 -211q0 -102 69 -164q51 -47 162 -86v461zM520 1417h66v-155q123 -4 329 -45v-299h-75q2 24 2 63q0 134 -63 180q-52 37 -193 37v-487q174 -59 261 -127q126 -100 126 -248
q0 -158 -118 -250q-105 -82 -269 -88v-176h-66v172q-211 8 -366 43v330l75 -1q-2 -22 -2 -57q0 -150 74 -205q63 -47 219 -47v557q-350 125 -350 359q0 142 108 218q92 66 242 71v155z" />
    <glyph glyph-name="percent" unicode="%" horiz-adv-x="1642" 
d="M1235 606q-191 0 -191 -282q0 -295 181 -295q194 0 194 284q0 293 -184 293zM936 317q0 150 74 244q81 103 227 103q142 0 221 -104q70 -94 70 -241q0 -157 -74 -248q-81 -100 -235 -100q-141 0 -217 106q-66 94 -66 240zM412 1227q-189 0 -189 -281q0 -295 178 -295
q197 0 197 285q0 291 -186 291zM1176 1284h104l-811 -1313h-104zM113 938q0 150 74 244q81 104 227 104q143 0 222 -104q71 -93 71 -240q0 -151 -73 -246q-81 -104 -228 -104q-146 0 -224 103q-69 92 -69 243z" />
    <glyph glyph-name="ampersand" unicode="&#x26;" horiz-adv-x="1561" 
d="M274 649v-26q0 -284 100 -421q117 -159 390 -159q162 0 352 45v561h-842zM1028 1236q-6 -139 0 -283h-88q-3 143 -41 194q-48 63 -188 63q-225 0 -331 -136q-92 -118 -104 -353h1278v-248h-51q0 107 -24 138q-29 38 -131 38h-99v-620q-338 -58 -508 -58q-328 0 -477 168
q-141 159 -141 492q0 304 137 471q149 182 445 182q173 0 323 -48z" />
    <glyph glyph-name="quotesingle" unicode="'" horiz-adv-x="346" 
d="M188 868h-30l-62 455q-4 29 -4 41q0 98 80 98t80 -96q0 -27 -2 -42z" />
    <glyph glyph-name="parenleft" unicode="(" horiz-adv-x="598" 
d="M430 1255h115q-264 -328 -264 -772q0 -402 249 -749h-114q-264 325 -264 749q0 454 278 772z" />
    <glyph glyph-name="parenright" unicode=")" horiz-adv-x="598" 
d="M68 1255h112q266 -328 266 -749q0 -452 -280 -772h-113q264 327 264 790q0 383 -249 731z" />
    <glyph glyph-name="asterisk" unicode="*" horiz-adv-x="797" 
d="M311 725l-100 57l158 195l-244 -45v117l244 -41l-158 192l100 55l86 -229l88 229l101 -55l-158 -192l244 39v-107l-244 37l166 -191l-107 -61l-90 233z" />
    <glyph glyph-name="plus" unicode="+" horiz-adv-x="1706" 
d="M805 1221h98v-562h549v-98h-549v-561h-98v561h-551v98h551v562z" />
    <glyph glyph-name="comma" unicode="," horiz-adv-x="563" 
d="M193 145h172l-191 -368h-84z" />
    <glyph glyph-name="hyphen" unicode="-" horiz-adv-x="797" 
d="M86 502h625v-113h-625v113z" />
    <glyph glyph-name="hyphen" unicode="&#x2010;" horiz-adv-x="797" 
d="M86 502h625v-113h-625v113z" />
    <glyph glyph-name="period" unicode="." horiz-adv-x="563" 
d="M283 139q88 0 88 -84t-88 -84t-88 84t88 84z" />
    <glyph glyph-name="slash" unicode="/" horiz-adv-x="569" 
d="M516 1284h102l-565 -1474h-102z" />
    <glyph glyph-name="zero" unicode="0" horiz-adv-x="1128" 
d="M563 1219q-327 0 -327 -588q0 -590 327 -590q326 0 326 590q0 588 -326 588zM563 1284q461 0 461 -655q0 -658 -461 -658q-459 0 -459 658q0 655 459 655z" />
    <glyph glyph-name="one" unicode="1" horiz-adv-x="1128" 
d="M518 1255h133v-1044q0 -114 42 -140q28 -18 153 -18l-1 -53q-134 6 -272 6q-103 0 -274 -5v52q129 0 164 17q61 30 61 143v938q-139 -126 -297 -176v88q134 60 291 192z" />
    <glyph glyph-name="two" unicode="2" horiz-adv-x="1128" 
d="M154 0v55q0 167 32 248q47 118 279 279l203 141q157 109 157 256q0 121 -94 183q-80 52 -207 52q-144 0 -208 -42q-80 -52 -80 -187v-25q1 -16 1 -24h-63v295q147 53 346 53q424 0 424 -311q0 -197 -194 -328l-209 -141q-93 -63 -136 -101q-74 -66 -100 -133t-26 -182
h413q124 0 150 25q32 31 35 206h75v-319h-798z" />
    <glyph glyph-name="three" unicode="3" horiz-adv-x="1128" 
d="M152 346h83q-2 -24 -2 -63q0 -134 60 -189q57 -53 192 -53q153 0 243 74q97 80 97 229q0 139 -100 217q-87 67 -233 80v84q130 7 215 68q100 71 100 194q0 120 -91 180q-78 52 -204 52q-156 0 -216 -62t-60 -219h-76v305q154 41 346 41q422 0 422 -289q0 -252 -295 -307
q319 -62 319 -346q0 -371 -452 -371q-154 0 -348 47v328z" />
    <glyph glyph-name="four" unicode="4" horiz-adv-x="1128" 
d="M668 1174l-488 -707h488v707zM614 1255h166v-788h240v-78h-240v-182q0 -111 43 -137q28 -17 152 -17v-53q-82 4 -246 4q-170 0 -264 -4v53q129 0 157 15q46 26 46 139v182h-574v121z" />
    <glyph glyph-name="five" unicode="5" horiz-adv-x="1128" 
d="M184 1255h738v-86h-625v-452q118 76 278 76q189 0 291.5 -102.5t102.5 -291.5q0 -428 -465 -428q-135 0 -328 39v326h78q0 -164 45 -225q55 -74 213 -74q330 0 330 346q0 147 -73 233q-78 93 -222 93q-171 0 -264 -134h-99v680z" />
    <glyph glyph-name="six" unicode="6" horiz-adv-x="1128" 
d="M569 737q-149 0 -231 -98q-76 -92 -76 -244q0 -159 75 -253q81 -103 236 -103q159 0 243 98q79 93 79 254q0 346 -326 346zM979 1225v-279l-88 1q2 16 2 46q0 133 -75 184q-62 42 -202 42q-239 0 -320 -180q-52 -116 -52 -392q122 166 352 166q428 0 428 -418
q0 -202 -122 -314q-118 -108 -322 -108q-277 0 -382 198q-77 144 -77 450q0 325 89 472q116 191 417 191q201 0 352 -59z" />
    <glyph glyph-name="seven" unicode="7" horiz-adv-x="1128" 
d="M890 593h-164q-136 -310 -194 -622h-135q59 307 198 622h-345v77h380q115 244 283 504h-491q-83 0 -113 -18q-41 -24 -41 -101v-137h-86v337h826v-145q-143 -217 -247 -440h129v-77z" />
    <glyph glyph-name="eight" unicode="8" horiz-adv-x="1128" 
d="M553 625q-148 -43 -221 -104q-99 -81 -99 -214q0 -137 104 -206q87 -58 232 -58q135 0 225 61q103 70 103 199q0 206 -344 322zM672 672q161 -47 240 -118q100 -90 100 -239q0 -344 -453 -344q-440 0 -440 344q0 261 317 351q-278 91 -278 315q0 303 411 303
q394 0 394 -305q0 -215 -291 -307zM565 709q283 102 283 284q0 112 -88 171q-75 50 -193 50q-123 0 -200 -46q-95 -56 -95 -171q0 -197 293 -288z" />
    <glyph glyph-name="nine" unicode="9" horiz-adv-x="1128" 
d="M178 18v295h84q-2 -20 -2 -53q0 -126 62 -176q55 -45 184 -45q241 0 323 172q54 114 54 389q-115 -158 -348 -158q-203 0 -314.5 108.5t-111.5 311.5q0 201 121 313q118 109 321 109q240 0 344 -148t104 -503q0 -309 -85 -461q-112 -201 -396 -201q-154 0 -340 47z
M549 1219q-155 0 -237 -101q-76 -94 -76 -252q0 -160 76 -250q81 -96 239 -96q159 0 240 100q75 91 75 254q0 160 -77 250q-82 95 -240 95z" />
    <glyph glyph-name="colon" unicode=":" horiz-adv-x="563" 
d="M283 139q88 0 88 -84t-88 -84t-88 84t88 84zM283 838q88 0 88 -84t-88 -84t-88 84t88 84z" />
    <glyph glyph-name="semicolon" unicode=";" horiz-adv-x="563" 
d="M193 145h172l-191 -368h-84zM276 838q89 0 89 -84t-89 -84q-88 0 -88 84t88 84z" />
    <glyph glyph-name="less" unicode="&#x3c;" horiz-adv-x="1706" 
d="M1442 1135v-109l-1022 -416l1022 -413v-109l-1178 481v82z" />
    <glyph glyph-name="equal" unicode="=" horiz-adv-x="1706" 
d="M254 473h1198v-98h-1198v98zM254 846h1198v-98h-1198v98z" />
    <glyph glyph-name="greater" unicode="&#x3e;" horiz-adv-x="1706" 
d="M264 1135l1178 -484v-82l-1178 -481v109l1022 413l-1022 416v109z" />
    <glyph glyph-name="question" unicode="?" horiz-adv-x="1010" 
d="M449 139q88 0 88 -84t-88 -84q-91 0 -91 84t91 84zM522 348h-127v70q0 90 102 193q94 88 189 176q102 108 102 212q0 112 -91 169q-76 46 -195 46q-136 0 -196 -29q-87 -43 -87 -163v-90h-67v297q179 55 348 55q424 0 424 -287q0 -128 -104 -247q-2 -2 -194 -180
q-104 -97 -104 -171v-51z" />
    <glyph glyph-name="at" unicode="@" horiz-adv-x="2019" 
d="M1192 340q-120 -215 -311 -215q-132 0 -206 105q-65 93 -65 231q0 189 145 363q152 182 337 182q176 0 221 -199l55 182h131l-170 -606q-18 -64 -18 -104q0 -111 100 -111q46 0 109 30q148 72 234 244q77 156 77 334q0 298 -207 470q-194 161 -498 161q-387 0 -631 -259
q-239 -254 -239 -642q0 -176 56 -304q91 -210 315 -328q204 -107 448 -107q338 0 617 208l30 -34q-297 -220 -653 -220q-189 0 -340 46q-267 81 -423 286q-159 208 -159 484q0 289 177 527q173 234 450 331q158 55 340 55q331 0 539 -174q221 -186 221 -510q0 -157 -58 -295
t-164 -234q-122 -112 -255 -112q-193 0 -205 215zM1094 969q-55 0 -101 -31q-96 -64 -177 -254q-77 -179 -77 -305q0 -85 35 -142q43 -67 123 -67q155 0 272 218q101 189 101 360q0 86 -44 149q-49 72 -132 72z" />
    <glyph glyph-name="A" unicode="A" horiz-adv-x="1376" 
d="M678 1147l-234 -612h478zM627 1255h127l450 -1097q31 -75 61 -92q25 -15 111 -15v-51h-12q-37 0 -110.5 2t-110.5 2q-100 0 -215 -4v51q7 0 22 -1t23 -1q100 0 100 51q0 29 -20 84l-101 279h-540l-109 -303q-14 -39 -14 -56q0 -41 59 -51q14 -2 90 -2v-51q-197 6 -413 0
v51q77 0 109 23t61 96z" />
    <glyph glyph-name="B" unicode="B" horiz-adv-x="1231" 
d="M399 621v-551h199q168 0 247 41q109 57 109 208t-93 229q-87 73 -240 73h-222zM399 1192v-514h222q136 0 217 64q88 71 88 204q0 148 -117 205q-84 41 -250 41h-160zM78 1255h479q280 0 388 -70.5t108 -236.5q0 -226 -260 -295q303 -62 303 -340q0 -87 -35 -154
q-56 -106 -191 -139q-78 -20 -245 -20h-547v51q113 0 143 18q45 27 45 130v858q0 103 -46 129q-30 18 -142 18v51z" />
    <glyph glyph-name="C" unicode="C" horiz-adv-x="1268" 
d="M1153 1206v-282h-65q2 18 2 47q0 146 -105 202q-77 41 -237 41q-249 0 -372 -171q-108 -150 -108 -408q0 -594 516 -594q224 0 281 74q28 36 35 239h69v-321q-212 -62 -401 -62q-651 0 -651 658q0 314 154 482q160 173 472 173q208 0 410 -78z" />
    <glyph glyph-name="D" unicode="D" horiz-adv-x="1436" 
d="M399 1192v-1122h203q565 0 565 559q0 285 -126 421q-132 142 -414 142h-228zM78 1255h579q662 0 662 -606q0 -339 -177 -498q-168 -151 -511 -151h-553v51q113 0 142 18q46 26 46 130v858q0 103 -46 130q-30 17 -142 17v51z" />
    <glyph glyph-name="E" unicode="E" horiz-adv-x="1143" 
d="M74 1251h977v-299l-78 1q-1 59 -4 97q-7 72 -22 92q-25 32 -165 32h-387v-496h162q108 0 138 5q17 2 46 15q25 22 30 156h58v-426h-57q0 121 -32 152.5t-181 31.5h-164v-534h406q120 0 148 39t30 223h76v-340h-1010v51q135 0 162 12q55 24 55 136v858q0 104 -44 130
q-29 17 -144 17v47z" />
    <glyph glyph-name="F" unicode="F" horiz-adv-x="1065" 
d="M74 1249h962v-297h-78q0 153 -24 186t-156 33h-383v-493h176q135 0 160 20q29 25 33 156h59v-426h-59q0 126 -40 158q-33 26 -165 26h-164v-397q0 -115 52 -145q33 -19 161 -19v-51q-96 4 -278 4q-181 0 -279 -4v51q131 0 158 13q53 25 53 135v858q0 104 -44 130
q-29 17 -144 17v45z" />
    <glyph glyph-name="G" unicode="G" horiz-adv-x="1427" 
d="M1198 1219v-316h-63q0 180 -94 249q-79 58 -267 58q-273 0 -395 -159q-109 -140 -109 -422q0 -298 128 -440q135 -150 429 -150q128 0 242 27v352q0 63 -32 87q-30 21 -148 21v43h6q39 0 117.5 -2t117.5 -2q46 0 238 4v-43q-89 0 -118 -15q-44 -24 -44 -103v-404
q-219 -33 -407 -33q-343 0 -509 149q-173 157 -173 496q0 668 641 668q208 0 440 -65z" />
    <glyph glyph-name="H" unicode="H" horiz-adv-x="1507" 
d="M78 1255h6q42 0 125 -2t125 -2q49 0 256 4v-51q-114 0 -144 -18q-47 -26 -47 -129v-359h709v359q0 103 -46 129q-30 18 -144 18v51h5q42 0 125.5 -2t125.5 -2q48 0 255 4l1 -51q-115 0 -144 -17q-45 -27 -45 -130v-858q0 -104 45 -131q29 -17 144 -17v-51q-90 4 -256 4
t-256 -4v51q114 0 145 18q45 27 45 130v428h-709v-428q0 -103 46 -130q31 -18 145 -18v-51q-88 4 -256 4q-166 0 -256 -4v51q113 0 143 18q45 27 45 130v858q0 102 -45 129q-30 18 -143 18v51z" />
    <glyph glyph-name="I" unicode="I" horiz-adv-x="666" 
d="M78 1255h6q42 0 125 -2t125 -2q49 0 256 4v-51q-114 0 -144 -18q-47 -26 -47 -129v-858q0 -103 46 -130q31 -18 145 -18v-51q-89 4 -233 4h-67q-123 0 -212 -4v51q113 0 143 18q45 27 45 130v858q0 102 -45 129q-30 18 -143 18v51z" />
    <glyph glyph-name="J" unicode="J" horiz-adv-x="918" 
d="M295 1255h18q47 0 140 -2t139 -2q74 0 264 4v-51q-114 0 -144 -17q-46 -27 -46 -130v-643q0 -232 -65 -327q-80 -116 -300 -116q-109 0 -258 31v297h78q0 -132 27 -183q39 -73 159 -73q143 0 191 84q34 60 34 217v713q0 92 -39 124q-30 24 -106 24h-44q-31 -1 -48 -1v51z
" />
    <glyph glyph-name="K" unicode="K" horiz-adv-x="1262" 
d="M66 1255h5q42 0 125.5 -2t125.5 -2q48 0 255 4l1 -51q-113 0 -143 -18q-46 -27 -46 -129v-391l418 378q72 65 72 103q0 57 -117 57v51q280 -6 459 0v-51q-132 0 -275 -131l-430 -393l510 -520q110 -112 176 -112q13 0 26 3v-51q-104 6 -220 6q-115 0 -235 -6l-1 51
q125 0 125 43q0 32 -53 86l-455 465v-446q0 -103 45 -130q31 -18 144 -18v-51q-90 4 -256 4t-256 -4v51q114 0 144 18q46 26 46 130v858q0 103 -46 130q-30 17 -144 17v51z" />
    <glyph glyph-name="L" unicode="L" horiz-adv-x="1094" 
d="M78 1255h6q42 0 125 -2t125 -2q49 0 256 4v-51q-114 0 -144 -17q-47 -27 -47 -130v-979h371q120 0 148 38.5t30 214.5l76 1v-332h-946v51q113 0 143 18q45 27 45 130v858q0 102 -45 129q-31 18 -143 18v51z" />
    <glyph glyph-name="M" unicode="M" horiz-adv-x="1624" 
d="M66 1255q165 -6 352 0l387 -1155l385 1155q147 -4 184 -4q33 0 199 4v-51q-115 0 -145 -17q-46 -27 -46 -130v-858q0 -102 47 -129q32 -19 144 -19v-51q-92 4 -256 4q-162 0 -250 -4v51q116 0 144 17q44 26 44 131v985l-393 -1184h-127l-403 1176v-977q0 -103 45 -130
q31 -18 145 -18v-51q-86 4 -241 4q-153 0 -231 -4l-1 51q114 0 145 18q46 27 46 130v866q0 92 -43 120q-32 19 -131 19v51z" />
    <glyph glyph-name="N" unicode="N" horiz-adv-x="1352" 
d="M70 1255q170 -6 334 0l628 -1155v957q0 104 -44 130q-28 17 -144 17v51q191 -4 231 -4q44 0 225 4v-57q-97 0 -121 -9q-53 -19 -53 -95v-1094h-153l-637 1167v-968q0 -105 43 -131q29 -17 145 -17v-51q-84 4 -239 4q-152 0 -234 -4v51q114 0 145 18q46 27 46 130v876
q0 86 -46 109q-28 14 -126 14v57z" />
    <glyph glyph-name="O" unicode="O" horiz-adv-x="1432" 
d="M717 1219q-240 0 -354 -183q-93 -149 -93 -405t93 -405q114 -183 354 -183q444 0 444 588q0 256 -92 405q-112 183 -352 183zM717 1286q295 0 451 -185q145 -172 145 -472q0 -301 -145 -473q-156 -185 -451 -185q-296 0 -452 184q-146 172 -146 474q0 301 146 473
q157 184 452 184z" />
    <glyph glyph-name="P" unicode="P" horiz-adv-x="1079" 
d="M399 1192v-549h150q360 0 360 272q0 277 -346 277h-164zM78 1255h536q180 0 291 -75q129 -88 129 -260q0 -240 -219 -304q-95 -28 -416 -28v-389q0 -103 46 -130q31 -18 145 -18v-51q-88 4 -256 4q-166 0 -256 -4v51q113 0 143 18q45 27 45 130v858q0 103 -46 129
q-30 18 -142 18v51z" />
    <glyph glyph-name="Q" unicode="Q" horiz-adv-x="1432" 
d="M872 -10q211 -141 484 -217l-19 -54q-264 22 -678 252q-275 26 -413 207q-127 168 -127 451q0 301 146 473q157 184 452 184q294 0 450 -185q146 -172 146 -472q0 -248 -99 -410q-113 -186 -342 -229zM717 1219q-240 0 -354 -183q-93 -149 -93 -405t93 -405
q114 -183 354 -183q444 0 444 588q0 256 -92 405q-112 183 -352 183z" />
    <glyph glyph-name="R" unicode="R" horiz-adv-x="1251" 
d="M399 1192v-537h123q179 0 270 44q128 62 128 221q0 272 -336 272h-185zM78 1255h536q435 0 435 -315q0 -240 -242 -307q149 -28 226 -330q29 -115 54 -162q48 -90 130 -90h16v-51h-258q-33 106 -63 250q-27 126 -44 172q-37 101 -101 140q-60 36 -218 36h-150v-399
q0 -104 47 -131q30 -17 144 -17v-51q-88 4 -256 4q-166 0 -256 -4v51q113 0 143 18q45 27 45 130v858q0 103 -46 129q-30 18 -142 18v51z" />
    <glyph glyph-name="S" unicode="S" horiz-adv-x="1128" 
d="M967 1235v-305h-84q2 20 2 53q0 143 -77 195q-63 43 -214 43q-126 0 -213 -49q-107 -60 -107 -177q0 -84 41 -133.5t164 -97.5l260 -102q271 -106 271 -334q0 -191 -159 -283q-127 -74 -333 -74q-145 0 -401 45v342h96q-2 -20 -2 -59q0 -152 86 -211q71 -49 231 -49
q148 0 238 60q106 71 106 212q0 155 -186 230l-233 94q-150 60 -213 114q-99 82 -99 209q0 174 144 258q116 68 303 68q134 0 379 -49z" />
    <glyph glyph-name="T" unicode="T" horiz-adv-x="1221" 
d="M57 1255q55 0 166 -2t167 -2h470q51 0 152 2t151 2v-303h-73v41q0 111 -20 141q-27 40 -130 40h-256v-975q0 -103 45 -130q30 -18 143 -18v-51q-85 4 -187 4h-137q-99 0 -188 -4v51q114 0 145 18q46 27 46 130v975h-275q-96 0 -124 -40q-21 -30 -21 -126v-56h-74v303z
" />
    <glyph glyph-name="U" unicode="U" horiz-adv-x="1337" 
d="M18 1255h6q42 0 125 -2t125 -2q49 0 256 4v-51q-115 0 -144 -17q-46 -27 -46 -130v-570q0 -224 69 -322q83 -116 296 -116q120 0 206 48q99 56 123 165q10 47 10 158v616q0 124 -46 151q-29 17 -169 17v51h7q41 0 123.5 -2t123.5 -2q66 0 236 4v-51q-118 0 -143 -16
q-37 -23 -37 -131v-586q0 -141 -11 -203q-53 -297 -444 -297q-405 0 -464 296q-11 55 -11 222v568q0 103 -47 130q-30 17 -144 17v51z" />
    <glyph glyph-name="V" unicode="V" horiz-adv-x="1300" 
d="M10 1255q211 -6 443 0v-51q-121 -2 -150 -17t-29 -52q0 -22 13 -56l393 -1016l358 1012q11 31 11 53q0 56 -74 71q-27 5 -117 5v51q239 -6 434 0v-51q-66 -3 -99 -32q-28 -26 -52 -91l-393 -1091h-154l-436 1075q-30 74 -51 98q-34 41 -97 41v51z" />
    <glyph glyph-name="W" unicode="W" horiz-adv-x="1794" 
d="M14 1255q195 -6 451 0v-51q-88 0 -118 -8q-68 -17 -68 -78q0 -19 8 -51l245 -983l293 1171h160l305 -1179l254 999q8 31 8 49q0 58 -71 74q-29 6 -117 6v51q237 -6 434 0v-51q-70 -4 -101 -28.5t-50 -94.5l-291 -1091h-152l-309 1177l-293 -1177h-162l-272 1075
q-19 77 -47 104q-32 31 -107 35v51z" />
    <glyph glyph-name="X" unicode="X" horiz-adv-x="1319" 
d="M21 1255q205 -6 487 0v-51q-91 0 -97 -1q-67 -8 -67 -50q0 -28 25 -59l295 -367l249 326q43 56 43 88q0 63 -147 63v51q232 -6 457 0v-51q-126 0 -222 -125l-323 -420l395 -485q93 -114 170 -123v-51q-78 4 -225 4q-146 0 -232 -4v51q162 0 162 55q0 38 -33 78l-313 383
l-297 -387q-31 -40 -31 -67q0 -59 191 -62v-51q-88 4 -248 4q-154 0 -240 -4v51q105 4 212 136l360 446l-377 477q-73 92 -194 94v51z" />
    <glyph glyph-name="Y" unicode="Y" horiz-adv-x="1266" 
d="M14 1255q207 -6 486 0v-51q-127 0 -155 -14.5t-28 -54.5q0 -24 25 -64l301 -481l291 459q39 62 39 94q0 61 -178 61v51q270 -6 456 0v-51q-106 -6 -202 -153l-353 -541v-311q0 -103 46 -130q31 -18 145 -18v-51q-90 4 -256 4t-256 -4v51q113 0 143 18q45 27 45 130v315
l-356 555q-87 135 -193 135v51z" />
    <glyph glyph-name="Z" unicode="Z" horiz-adv-x="1079" 
d="M84 1251h899v-153l-817 -1024h606q99 0 132 41t40 243h76v-358h-948v139l823 1045h-563q-107 0 -139.5 -31t-32.5 -137v-107h-76v342z" />
    <glyph glyph-name="bracketleft" unicode="[" horiz-adv-x="598" 
d="M193 1255h364v-67h-242v-1311h242v-67h-364v1445z" />
    <glyph glyph-name="backslash" unicode="\" horiz-adv-x="569" 
d="M-49 1284h102l565 -1474h-102z" />
    <glyph glyph-name="bracketright" unicode="]" horiz-adv-x="598" 
d="M39 1255h367v-1445h-367v67h242v1311h-242v67z" />
    <glyph glyph-name="asciicircum" unicode="^" horiz-adv-x="2048" 
d="M940 1462h166l526 -565h-88l-522 451l-524 -451h-86z" />
    <glyph glyph-name="underscore" unicode="_" horiz-adv-x="1024" 
d="M0 -383h1024v-100h-1024v100z" />
    <glyph glyph-name="grave" unicode="`" horiz-adv-x="1024" 
d="M637 1008h-49l-273 233q-47 40 -47 70q0 53 56 53q31 0 71 -51z" />
    <glyph glyph-name="a" unicode="a" 
d="M553 459q-338 0 -338 -217q0 -203 231 -203q275 0 275 338v82h-168zM975 39v-39q-150 0 -254 -10v137q-87 -156 -311 -156q-142 0 -226 62q-94 70 -94 207q0 170 161 235q109 45 321 45q29 0 79 -1t70 -1v109q0 213 -266 213q-218 0 -226 -197h-43v217q165 35 289 35
q212 0 293 -90q76 -84 76 -299v-348q0 -80 26 -101q22 -18 105 -18z" />
    <glyph glyph-name="b" unicode="b" horiz-adv-x="1104" 
d="M594 825q-277 0 -277 -387q0 -393 275 -393q293 0 293 383q0 168 -60 270q-75 127 -231 127zM323 1272l1 -522q111 145 305 145q199 0 301 -146q88 -127 88 -335q0 -198 -94 -315q-102 -128 -295 -128q-211 0 -322 166v-147q-96 10 -244 10l1 39q86 1 107 17
q26 21 26 102v946q0 81 -26 101q-21 16 -107 18l-1 39q136 0 260 10z" />
    <glyph glyph-name="c" unicode="c" horiz-adv-x="920" 
d="M825 854v-240l-47 1q-2 119 -62 171q-56 48 -177 48q-316 0 -316 -400q0 -395 295 -395q215 0 250 207h78q-29 -275 -348 -275q-204 0 -312 132q-100 122 -100 331q0 212 107 333q112 128 321 128q137 0 311 -41z" />
    <glyph glyph-name="d" unicode="d" horiz-adv-x="1104" 
d="M506 825q-285 0 -285 -397q0 -383 287 -383q278 0 278 371q0 168 -55 273q-72 136 -225 136zM907 1272v-1114q0 -81 26 -101q22 -17 107 -18v-39q-151 0 -243 -10v147q-111 -166 -320 -166q-199 0 -299 132q-90 118 -90 323q0 201 91 327q102 142 296 142q214 0 305 -152
v361q0 81 -26 101q-21 16 -107 18v39q136 0 260 10z" />
    <glyph glyph-name="e" unicode="e" horiz-adv-x="1020" 
d="M926 403h-705q10 -364 320 -364q243 0 284 199h84q-56 -267 -393 -267q-213 0 -324 127q-104 119 -104 336q0 212 107 333q112 128 321 128q410 0 410 -453v-39zM809 469v6q0 359 -293 359q-277 0 -299 -365h592z" />
    <glyph glyph-name="f" unicode="f" horiz-adv-x="631" 
d="M717 1262v-183h-47q-3 81 -39.5 115.5t-118.5 34.5q-98 0 -135 -52q-31 -44 -31 -147v-162h260v-61h-260v-621q0 -94 39 -122q30 -21 123 -21v-43q-74 4 -161 4h-108q-87 0 -159 -4v43q87 0 115 28t28 115v621h-155v61h155v160q0 142 79 202q69 54 216 54q81 0 199 -22z
" />
    <glyph glyph-name="g" unicode="g" horiz-adv-x="1098" 
d="M807 731v147q76 -10 244 -10v-38q-86 -2 -107 -18q-26 -20 -26 -101v-645q0 -235 -35 -297q-106 -187 -387 -187q-186 0 -340 58v258h45q0 -149 68 -206q62 -52 216 -52q310 0 310 321v209q-101 -158 -310 -158q-194 0 -296 127q-93 115 -93 314q0 194 97 313
q104 129 294 129q209 0 320 -164zM520 823q-287 0 -287 -370q0 -377 285 -377q147 0 220 124q59 101 59 259q0 364 -277 364z" />
    <glyph glyph-name="h" unicode="h" horiz-adv-x="1145" 
d="M323 1272l1 -518q112 143 317 143q187 0 264 -105q66 -91 66 -286v-330q0 -89 27 -111q22 -19 114 -22v-43q-72 4 -207 4q-141 0 -221 -4v43q95 0 124 20q38 28 38 123v332q0 309 -244 309q-272 0 -272 -331v-310q0 -95 39 -122q29 -21 123 -21v-43q-76 4 -218 4
q-137 0 -211 -4v43q87 0 115.5 28t28.5 115v918q0 81 -27 101q-21 16 -106 18v39q145 0 249 10z" />
    <glyph glyph-name="i" unicode="i" horiz-adv-x="545" 
d="M340 878v-692q0 -95 37 -122q29 -21 123 -21v-43q-76 4 -196 4h-49q-108 0 -181 -4v43q87 0 115 28t28 115v525q0 81 -27 101q-20 16 -106 18v38q130 0 256 10zM260 1284q49 0 68.5 -17t19.5 -65q0 -84 -88 -84t-88 84q0 82 88 82z" />
    <glyph glyph-name="j" unicode="j" horiz-adv-x="545" 
d="M352 878v-962q0 -94 -9 -141q-37 -193 -273 -193q-94 0 -187 29v244h45q0 -111 13 -149q26 -75 114 -75q116 0 154 122q20 66 20 218v740q0 81 -27 101q-20 16 -106 18v38q130 0 256 10zM274 1284q49 0 68.5 -17t19.5 -65q0 -84 -88 -84t-88 84q0 82 88 82z" />
    <glyph glyph-name="k" unicode="k" horiz-adv-x="977" 
d="M332 1271v-751l258 221q35 30 35 45q0 35 -82 42v44q36 -4 89 -4h167q50 0 86 4v-45q-81 0 -144 -51l-311 -258l365 -385q49 -51 71 -66q38 -24 92 -24v-43q-64 4 -184 4q-118 0 -182 -4v43q90 0 90 39q0 22 -35 59l-315 332v-287q0 -95 39 -122q29 -21 123 -21v-43
q-74 4 -163 4h-114q-81 0 -151 -4v43q87 0 115 28t28 115v918q0 81 -26 101q-21 16 -107 18v39q126 0 256 9z" />
    <glyph glyph-name="l" unicode="l" horiz-adv-x="545" 
d="M332 1271v-1085q0 -95 39 -122q29 -21 123 -21v-43q-76 4 -199 4h-48q-109 0 -181 -4v43q87 0 115 28t28 115v918q0 81 -26 101q-21 16 -107 18v39q126 0 256 9z" />
    <glyph glyph-name="m" unicode="m" horiz-adv-x="1722" 
d="M920 727q117 170 313 170q178 0 253 -111q62 -92 62 -280v-320q0 -91 22 -114q24 -26 121 -29l1 -43q-72 4 -207 4q-143 0 -221 -4v43q94 0 123 21q38 27 38 122v332q0 307 -229 307q-252 0 -252 -329v-320q0 -89 27 -111q22 -19 114 -22v-43q-70 4 -206 4
q-140 0 -220 -4v43q95 0 123 20q37 27 37 123v332q0 309 -223 309q-266 0 -266 -331v-310q0 -95 39 -122q29 -21 123 -21v-43q-76 4 -218 4q-137 0 -211 -4v43q87 0 115.5 28t28.5 115v525q0 80 -27 101q-21 16 -106 18v38q129 0 241 10v-149q112 168 332 168
q180 0 273 -170z" />
    <glyph glyph-name="n" unicode="n" horiz-adv-x="1145" 
d="M1112 43v-43q-72 4 -207 4q-141 0 -221 -4v43q95 0 124 20q38 28 38 123v332q0 309 -244 309q-272 0 -272 -331v-310q0 -95 39 -122q29 -21 123 -21v-43q-76 4 -218 4q-137 0 -211 -4v43q87 0 115.5 28t28.5 115v525q0 80 -27 101q-21 16 -106 18v38q140 0 250 10v-124
q112 143 317 143q187 0 264 -105q66 -91 66 -286v-330q0 -89 27 -111q22 -19 114 -22z" />
    <glyph glyph-name="o" unicode="o" horiz-adv-x="1034" 
d="M516 831q-295 0 -295 -397q0 -395 295 -395q158 0 235 124q62 102 62 271q0 397 -297 397zM516 895q210 0 323 -127q107 -121 107 -334q0 -212 -107 -334q-114 -129 -323 -129t-322 129q-106 122 -106 334t107 333q112 128 321 128z" />
    <glyph glyph-name="p" unicode="p" horiz-adv-x="1098" 
d="M313 123v-330q0 -97 38 -123q29 -20 132 -20v-43q-78 4 -223 4q-139 0 -213 -4v43q87 0 115 28t28 115v918q0 81 -27 101q-21 16 -106 18v38q127 0 244 10v-147q107 164 320 164q193 0 295 -126q94 -116 94 -314q0 -208 -88 -336q-102 -148 -301 -148q-201 0 -308 152z
M586 823q-283 0 -283 -370q0 -170 57 -276q72 -136 228 -136q157 0 231 128q60 103 60 271q0 383 -293 383z" />
    <glyph glyph-name="q" unicode="q" horiz-adv-x="1098" 
d="M807 731v147q76 -10 244 -10v-38q-85 -2 -106 -18q-27 -20 -27 -101v-918q0 -88 27.5 -115.5t115.5 -27.5v-43q-74 4 -213 4q-143 0 -223 -4v43q103 0 132 20q38 26 38 123v330q-108 -152 -310 -152q-199 0 -300 148q-87 127 -87 336q0 198 94 314q102 126 295 126
q209 0 320 -164zM522 819q-293 0 -293 -385q0 -168 60 -270q74 -127 231 -127q156 0 228 134q57 105 57 275q0 373 -283 373z" />
    <glyph glyph-name="r" unicode="r" horiz-adv-x="782" 
d="M723 889v-254h-49q0 6 1 18.5t1 18.5q0 151 -133 151q-130 0 -179 -108q-34 -73 -34 -219v-310q0 -95 39 -122q29 -21 123 -21v-43q-74 4 -160 4h-114q-83 0 -155 -4v43q87 0 115.5 28t28.5 115v525q0 80 -27 101q-21 16 -106 18v38q140 0 250 10v-124q104 143 299 143
q52 0 100 -8z" />
    <glyph glyph-name="s" unicode="s" horiz-adv-x="891" 
d="M750 862v-239h-41q0 126 -66 176q-57 43 -188 43q-232 0 -232 -158q0 -106 223 -179q170 -55 226 -90q114 -73 114 -198q0 -246 -342 -246q-151 0 -327 45v252h37q0 -132 61 -187.5t195 -55.5q247 0 247 178q0 59 -39 99q-29 28 -190 89q-326 123 -326 266q0 128 117 190
q91 48 232 48q140 0 299 -33z" />
    <glyph glyph-name="t" unicode="t" horiz-adv-x="692" 
d="M270 1081h47v-213h271v-61h-266v-539q0 -148 24 -189q25 -44 86 -44q145 0 158 178h48q-8 -240 -239 -240q-125 0 -169 82q-31 58 -31 191v561h-160v39q105 17 158 75q47 51 73 160z" />
    <glyph glyph-name="u" unicode="u" horiz-adv-x="1145" 
d="M309 878v-528q0 -309 246 -309q270 0 270 330v340q0 82 -25 102q-21 16 -106 16v39q130 0 256 10v-720q0 -82 25 -101q20 -16 106 -18v-39q-147 0 -249 -10l-1 125q-112 -144 -317 -144q-187 0 -264 106q-64 89 -64 285v349q0 78 -23.5 98t-103.5 20v39q140 0 250 10z
" />
    <glyph glyph-name="v" unicode="v" horiz-adv-x="1010" 
d="M19 872q43 -4 90 -4h223q49 0 92 4v-47q-178 0 -178 -71q0 -22 14 -56l260 -632l244 616q16 40 16 63q0 54 -64 71q-29 8 -108 10v46q41 -4 90 -4h203q51 0 90 4v-46q-57 -12 -90 -52q-21 -26 -49 -94l-287 -694h-119l-307 709q-55 128 -121 130z" />
    <glyph glyph-name="w" unicode="w" horiz-adv-x="1501" 
d="M14 872q39 -4 83 -4h212q45 0 84 4v-46q-81 -5 -104 -12q-60 -17 -60 -71q0 -18 13 -59l196 -623l262 807h127l269 -811l166 627q10 38 10 59q0 69 -127 83v46q35 -4 80 -4h183q46 0 79 4v-46q-104 -11 -144 -158l-184 -682h-145l-260 782l-256 -782h-140l-229 712
q-21 66 -35 86q-26 37 -79 41z" />
    <glyph glyph-name="x" unicode="x" horiz-adv-x="1034" 
d="M47 874q38 -6 92 -6h156q57 0 102 6v-49q-98 0 -98 -51q0 -23 25 -51l200 -223l178 218q25 31 25 50q0 51 -92 58v48q42 -6 96 -6h147q55 0 95 6v-49q-82 0 -170 -102l-234 -270l289 -320q81 -90 148 -90v-43q-64 4 -179 4q-118 0 -182 -4v43q98 0 98 39q0 23 -33 60
l-206 233l-203 -236q-31 -36 -31 -61q0 -35 101 -35v-43q-64 4 -174 4t-168 -4v43q92 0 151 68l277 317l-252 285q-93 105 -158 113v48z" />
    <glyph glyph-name="y" unicode="y" horiz-adv-x="985" 
d="M-39 874q43 0 130.5 -3t131.5 -3q90 0 160 10v-53q-91 0 -111 -4q-67 -13 -67 -69q0 -20 10 -41l291 -619l285 617q12 26 12 45q0 71 -174 71v45q27 0 81 -1t81 -1h108q62 0 111 8l-1 -51q-82 -10 -147 -149l-405 -866q-29 -62 -29 -99q0 -49 53 -60q14 -3 92 -3v-41
q-64 4 -182 4q-114 0 -176 -4v41q82 0 129 98l105 221l-349 729q-62 129 -139 129v49z" />
    <glyph glyph-name="z" unicode="z" horiz-adv-x="918" 
d="M94 868h717v-108l-621 -699h458q92 0 114 21t22 158v16h45v-256h-741v102l617 705h-449q-80 0 -100 -52q-11 -27 -11 -124h-51v237z" />
    <glyph glyph-name="braceleft" unicode="{" horiz-adv-x="1024" 
d="M846 1516v-49q-147 -2 -201 -55.5t-54 -255.5v-48.5v-48.5q0 -228 -63 -310.5t-233 -113.5q170 -32 233 -114t63 -310v-48.5v-48.5q0 -201 53.5 -254t201.5 -55v-49h-10q-240 0 -318 100q-59 75 -59 283q0 26 1 86t1 94q0 158 -65 219q-59 57 -220 70v56q162 14 221 69
q64 61 64 219q0 34 -1 93v84q0 214 60 289q78 98 326 98z" />
    <glyph glyph-name="bar" unicode="|" horiz-adv-x="1024" 
d="M459 1565h108v-2048h-108v2048z" />
    <glyph glyph-name="braceright" unicode="}" horiz-adv-x="1024" 
d="M178 1516h10q241 0 320 -101q58 -76 58 -286v-85q-1 -59 -1 -92q0 -156 58 -214.5t225 -73.5v-56q-161 -13 -220 -69q-63 -62 -63 -220q0 -33 1 -91v-83q0 -216 -60 -291q-79 -98 -328 -98v49q149 2 203 55.5t54 254.5v49.5v50.5q0 226 62.5 307.5t231.5 112.5
q-169 31 -232 114q-62 80 -62 305v51v50q0 201 -54 255t-203 57v49z" />
    <glyph glyph-name="asciitilde" unicode="~" horiz-adv-x="1706" 
d="M1530 750v-113q-203 -143 -387 -143q-101 0 -289.5 68.5t-288.5 68.5q-158 0 -387 -160v113q211 145 387 145q101 0 291.5 -69.5t286.5 -69.5q162 0 387 160z" />
    <glyph glyph-name="euro" horiz-adv-x="1128" 
d="M1024 18q-196 -47 -336 -47q-421 0 -473 502h-174l16 64h152q-2 28 -2 92q0 27 4 122l-170 1l16 63h160q62 469 469 469q162 0 330 -61v-285h-76q0 158 -47 216q-53 65 -207 65q-297 0 -340 -404h465l-16 -63l-453 -1q-4 -64 -4 -120q0 -64 2 -94h389l-16 -64h-369
q37 -432 342 -432q151 0 202.5 46.5t51.5 258.5h84v-328z" />
    <glyph glyph-name="nonbreakingspace" unicode="&#xa0;" horiz-adv-x="1128" 
 />
    <glyph glyph-name="exclamdown" unicode="&#xa1;" horiz-adv-x="616" 
d="M258 895h96l29 -895h-156zM307 1284q88 0 88 -82q0 -84 -88 -84q-90 0 -90 82q0 84 90 84z" />
    <glyph glyph-name="cent" unicode="&#xa2;" horiz-adv-x="1128" 
d="M657 831q-12 3 -41 3q-309 0 -309 -414q0 -219 111 -320zM760 1133h80l-80 -246l153 -33v-240l-47 1q-2 176 -129 204l-245 -758q48 -22 114 -22q216 0 250 207h78q-35 -275 -328 -275q-63 0 -139 19l-88 -277h-80l98 301q-219 114 -219 420q0 463 453 463q33 0 53 -2z
" />
    <glyph glyph-name="sterling" unicode="&#xa3;" horiz-adv-x="1128" 
d="M1038 1264v-285h-75q0 142 -42 190q-46 52 -186 52q-179 0 -259.5 -83.5t-80.5 -263.5v-204h346v-68h-346v-526h365q152 0 188 56q23 37 23 202h80v-334h-920v39q94 0 120 32q21 26 21 117v414h-157v68h157v207q0 220 123 318q110 89 336 89q123 0 307 -20z" />
    <glyph glyph-name="currency" unicode="&#xa4;" horiz-adv-x="1128" 
d="M1024 18q-196 -47 -336 -47q-421 0 -473 502h-174l16 64h152q-2 28 -2 92q0 27 4 122l-170 1l16 63h160q62 469 469 469q162 0 330 -61v-285h-76q0 158 -47 216q-53 65 -207 65q-297 0 -340 -404h465l-16 -63l-453 -1q-4 -64 -4 -120q0 -64 2 -94h389l-16 -64h-369
q37 -432 342 -432q151 0 202.5 46.5t51.5 258.5h84v-328z" />
    <glyph glyph-name="yen" unicode="&#xa5;" horiz-adv-x="1128" 
d="M33 1255q194 -6 477 0v-51q-132 0 -159 -14t-27 -51q0 -25 20 -68l231 -491l252 503q15 30 15 54q0 50 -70 63q-23 4 -110 4v51q272 -6 448 0v-51q-128 -8 -203 -153l-100 -195h229v-65h-266l-115 -216h381v-61h-413v-315q0 -104 46 -130q30 -18 144 -18v-51
q-85 4 -196 4h-112q-102 0 -188 -4v51q114 0 145 18q46 26 46 130v315h-389v61h360l-112 216h-248v65h215l-111 213q-69 133 -190 135v51z" />
    <glyph glyph-name="brokenbar" unicode="&#xa6;" horiz-adv-x="1024" 
d="M459 408h108v-758h-108v758zM459 1432h108v-758h-108v758z" />
    <glyph glyph-name="section" unicode="&#xa7;" horiz-adv-x="1024" 
d="M333 792q-100 -98 -100 -192q0 -146 455 -317q103 101 103 194q0 151 -458 315zM821 1243v-262h-59q0 126 -54 182t-180 56q-227 0 -227 -177q0 -93 157 -167q145 -67 290 -133q157 -95 157 -238q0 -139 -168 -252q105 -74 105 -219q0 -140 -109 -209q-90 -57 -239 -57
t-318 55v276h62q0 -147 49 -204q53 -62 198 -62q234 0 234 180q0 72 -41 123q-29 36 -215 109q-170 67 -231 112q-113 84 -113 217q0 141 168 246q-111 77 -111 203q0 138 114 207q93 57 240 57q140 0 291 -43z" />
    <glyph glyph-name="dieresis" unicode="&#xa8;" horiz-adv-x="1024" 
d="M684 1241q86 0 86 -80t-86 -80q-82 0 -82 80t82 80zM338 1241q86 0 86 -80t-86 -80q-84 0 -84 80t84 80z" />
    <glyph glyph-name="copyright" unicode="&#xa9;" horiz-adv-x="1683" 
d="M1120 1093l31 1v-310h-37q-65 275 -283 275q-253 0 -253 -375q0 -383 272 -383q173 0 285 174l32 -22q-114 -207 -342 -207q-168 0 -284 126q-113 122 -113 292q0 178 108 304q114 132 289 132q72 0 148 -34t82 -34q57 0 65 61zM844 1300q-255 0 -436 -183.5t-181 -438.5
q0 -253 181 -437t434 -184q254 0 435 183.5t181 437.5q0 256 -179.5 439t-434.5 183zM844 1376q288 0 491 -204.5t203 -493.5q0 -288 -204 -492t-492 -204t-492.5 204t-204.5 492q0 291 204 494.5t495 203.5z" />
    <glyph glyph-name="ordfeminine" unicode="&#xaa;" horiz-adv-x="754" 
d="M416 971q-254 0 -254 -152q0 -143 174 -143q205 0 205 237v58h-125zM731 676v-27q-120 0 -190 -6v94q-67 -108 -234 -108q-239 0 -239 188q0 196 358 196h62q39 -1 53 -1v75q0 150 -199 150q-164 0 -170 -137h-33v151q125 25 217 25q155 0 216 -59t61 -213v-244
q0 -56 22 -72q16 -12 76 -12z" />
    <glyph glyph-name="guillemotleft" unicode="&#xab;" horiz-adv-x="887" 
d="M664 748h135l-258 -314l258 -313h-135l-250 313zM336 748h135l-258 -314l258 -313h-135l-248 313z" />
    <glyph glyph-name="logicalnot" unicode="&#xac;" horiz-adv-x="1706" 
d="M254 858h1198v-502h-96v402h-1102v100z" />
    <glyph glyph-name="sfthyphen" unicode="&#xad;" horiz-adv-x="797" 
d="M86 502h625v-113h-625v113z" />
    <glyph glyph-name="registered" unicode="&#xae;" horiz-adv-x="1683" 
d="M723 717h68q247 0 247 176q0 82 -65 125q-56 37 -142 37q-108 0 -108 -74v-264zM469 1090h393q121 0 205 -39q111 -52 111 -160q0 -144 -289 -199q111 -37 159 -100q43 -56 65 -177q15 -85 58 -85q72 0 72 131h41v-12q0 -177 -156 -177q-45 0 -79 19q-57 31 -63 119
q-9 137 -11 143q-41 129 -215 129q-6 0 -18.5 -1t-18.5 -1v-246q0 -61 37 -84q28 -17 94 -19v-40h-385v40q67 3 94 19q37 23 37 84v514q0 61 -37 83q-27 16 -94 18v41zM844 1300q-255 0 -436 -183.5t-181 -438.5q0 -253 181 -437t434 -184q254 0 435 183.5t181 437.5
q0 255 -179.5 438.5t-434.5 183.5zM844 1376q287 0 490.5 -205t203.5 -493q0 -289 -205 -492.5t-495 -203.5q-286 0 -489.5 205t-203.5 491q0 291 204 494.5t495 203.5z" />
    <glyph glyph-name="macron" unicode="&#xaf;" horiz-adv-x="1024" 
d="M256 1217h512v-109h-512v109z" />
    <glyph glyph-name="macron" unicode="&#x2c9;" horiz-adv-x="1024" 
d="M256 1217h512v-109h-512v109z" />
    <glyph glyph-name="degree" unicode="&#xb0;" horiz-adv-x="674" 
d="M338 1382q-87 0 -148 -60.5t-61 -147.5t60.5 -147t148.5 -60t147.5 59.5t59.5 147.5q0 87 -60 147.5t-147 60.5zM338 1452q116 0 196 -81t80 -197t-81 -197.5t-197 -81.5q-118 0 -197.5 80.5t-79.5 198.5q0 117 81 197.5t198 80.5z" />
    <glyph glyph-name="plusminus" unicode="&#xb1;" horiz-adv-x="1706" 
d="M254 150h1198v-99h-1198v99zM805 1169h98v-348h549v-98h-549v-348h-98v348h-551v98h551v348z" />
    <glyph glyph-name="twosuperior" unicode="&#xb2;" horiz-adv-x="745" 
d="M102 502v33q0 101 21 149q29 66 184 166l133 86q105 68 105 154q0 141 -199 141q-90 0 -131 -22q-59 -31 -59 -115v-16q1 -10 1 -15h-42v178q99 31 229 31q279 0 279 -187q0 -120 -127 -196q-134 -80 -157 -96q-116 -78 -138 -129q-17 -39 -17 -109h282q72 0 89 14
q23 19 23 125h51v-192h-527z" />
    <glyph glyph-name="threesuperior" unicode="&#xb3;" horiz-adv-x="745" 
d="M100 709h55q0 -6 -1 -18v-19q0 -83 42 -117q37 -29 123 -29q226 0 226 183q0 159 -221 178v49q82 3 139 39q69 43 69 119q0 139 -194 139q-100 0 -139 -34q-43 -37 -43 -134h-52v182q98 25 230 25q278 0 278 -172q0 -154 -194 -185q211 -38 211 -208q0 -222 -299 -222
q-112 0 -230 28v196z" />
    <glyph glyph-name="acute" unicode="&#xb4;" horiz-adv-x="1024" 
d="M436 1008h-49l242 305q40 51 71 51q56 0 56 -53q0 -30 -47 -70z" />
    <glyph glyph-name="mu" unicode="&#xb5;" horiz-adv-x="1079" 
d="M162 190q-20 -111 -44 -329l-2 -15q-30 -262 -104 -262q-71 0 -71 74q0 39 60 279q49 197 210 948h129l-109 -509q-10 -47 -10 -95q0 -84 39 -137q44 -60 125 -60q203 0 272 307l111 494h129l-115 -527q-22 -101 -22 -155q0 -107 80 -107q68 0 111 61q20 29 52 114
q23 61 44 61q22 0 22 -35q0 -27 -16 -80q-71 -231 -244 -231q-152 0 -152 207q-87 -213 -274 -213q-195 0 -221 210z" />
    <glyph glyph-name="mu" unicode="&#x3bc;" horiz-adv-x="1079" 
d="M162 190q-20 -111 -44 -329l-2 -15q-30 -262 -104 -262q-71 0 -71 74q0 39 60 279q49 197 210 948h129l-109 -509q-10 -47 -10 -95q0 -84 39 -137q44 -60 125 -60q203 0 272 307l111 494h129l-115 -527q-22 -101 -22 -155q0 -107 80 -107q68 0 111 61q20 29 52 114
q23 61 44 61q22 0 22 -35q0 -27 -16 -80q-71 -231 -244 -231q-152 0 -152 207q-87 -213 -274 -213q-195 0 -221 210z" />
    <glyph glyph-name="paragraph" unicode="&#xb6;" horiz-adv-x="1024" 
d="M940 1479v-70h-127v-1409h-82v1409h-186v-1409h-84v782q-164 7 -266 94q-111 94 -111 254q0 166 116 261q108 88 277 88h463z" />
    <glyph glyph-name="ch270" unicode="&#xb7;" horiz-adv-x="563" 
d="M283 727q38 0 63 -25t25 -63q0 -36 -26 -61t-62 -25t-62 25t-26 61q0 37 25.5 62.5t62.5 25.5z" />
    <glyph glyph-name="ch270" unicode="&#x2219;" horiz-adv-x="563" 
d="M283 727q38 0 63 -25t25 -63q0 -36 -26 -61t-62 -25t-62 25t-26 61q0 37 25.5 62.5t62.5 25.5z" />
    <glyph glyph-name="cedilla" unicode="&#xb8;" horiz-adv-x="1024" 
d="M483 0h56v-121q20 4 55 4q174 0 174 -162q0 -80 -66 -123q-57 -38 -141 -38q-111 0 -276 67l26 66q138 -68 221 -68q127 0 127 101q0 92 -118 92q-27 0 -57 -6z" />
    <glyph glyph-name="onesuperior" unicode="&#xb9;" horiz-adv-x="745" 
d="M342 1255h88v-626q0 -70 31 -85q17 -9 98 -9v-33q-147 4 -180 4q-35 0 -180 -4v33q84 0 105 8q42 17 42 86v563q-84 -71 -194 -105v52q87 37 190 116z" />
    <glyph glyph-name="ordmasculine" unicode="&#xba;" horiz-adv-x="776" 
d="M387 1231q-221 0 -221 -279q0 -276 221 -276q223 0 223 276q0 279 -223 279zM387 1276q153 0 238.5 -85.5t85.5 -238.5q0 -152 -86 -237.5t-238 -85.5t-236.5 85.5t-84.5 237.5t84.5 238t236.5 86z" />
    <glyph glyph-name="guillemotright" unicode="&#xbb;" horiz-adv-x="887" 
d="M414 748h135l250 -314l-250 -313h-135l258 313zM88 748h135l248 -314l-248 -313h-135l258 313z" />
    <glyph glyph-name="onequarter" unicode="&#xbc;" horiz-adv-x="1763" 
d="M1473 657l-308 -395h308v395zM1440 702h104v-440h152v-45h-152v-100q0 -65 30 -79q15 -7 93 -7v-31q-148 6 -321 0v31q81 0 95 6q32 14 32 80v100h-361v68zM1288 1284h105l-920 -1313h-104zM328 1255h84v-583q0 -66 29 -81q16 -7 94 -7l-1 -31q-141 4 -172 4
q-28 0 -84 -2t-84 -2h-6v31q81 0 101 7q43 16 43 81v526q-89 -73 -189 -98v49q81 29 185 106z" />
    <glyph glyph-name="onehalf" unicode="&#xbd;" horiz-adv-x="1763" 
d="M1149 0v31q0 95 20 139q28 62 177 156l127 80q100 63 100 143q0 131 -191 131q-85 0 -125 -21q-57 -29 -57 -108q0 -16 2 -26l-39 -1v166q87 29 217 29q267 0 267 -174q0 -115 -121 -185q-75 -43 -151 -87q-107 -69 -130 -121q-16 -36 -16 -103h269q77 0 94 27
q11 16 14 102h47v-178h-504zM1288 1284h105l-920 -1313h-104zM328 1255h84v-583q0 -66 29 -81q16 -7 94 -7l-1 -31q-141 4 -172 4q-28 0 -84 -2t-84 -2h-6v31q81 0 101 7q43 16 43 81v526q-89 -73 -189 -98v49q81 29 185 106z" />
    <glyph glyph-name="threequarters" unicode="&#xbe;" horiz-adv-x="1763" 
d="M1473 657l-308 -395h308v395zM1440 702h104v-440h152v-45h-152v-100q0 -65 30 -79q15 -7 93 -7v-31q-148 6 -321 0v31q81 0 95 6q32 14 32 80v100h-361v68zM1288 1284h105l-920 -1313h-104zM96 748h51q0 -100 28 -134q32 -39 130 -39q91 0 148 38q67 45 67 132
q0 151 -211 166v47q78 4 132 37q67 40 67 111q0 129 -184 129q-96 0 -134 -31q-43 -35 -43 -127h-47v172q99 23 219 23q265 0 265 -162q0 -143 -185 -172q201 -37 201 -193q0 -208 -285 -208q-91 0 -219 26v185z" />
    <glyph glyph-name="questiondown" unicode="&#xbf;" horiz-adv-x="1010" 
d="M514 907h129v-69q0 -91 -102 -193q-95 -87 -191 -175q-102 -108 -102 -214q0 -112 93 -168q77 -47 196 -47q136 0 195 29q85 42 85 163v93h70v-299q-182 -56 -350 -56q-422 0 -422 297q0 122 103 238q96 89 193 178q103 98 103 174v49zM590 1284q88 0 88 -82
q0 -84 -88 -84t-88 82q0 84 88 84z" />
    <glyph glyph-name="Agrave" unicode="&#xc0;" horiz-adv-x="1376" 
d="M678 1147l-234 -612h478zM627 1255h127l450 -1097q31 -75 61 -92q25 -15 111 -15v-51h-12q-37 0 -110.5 2t-110.5 2q-100 0 -215 -4v51q7 0 22 -1t23 -1q100 0 100 51q0 29 -20 84l-101 279h-540l-109 -303q-14 -39 -14 -56q0 -41 59 -51q14 -2 90 -2v-51q-197 6 -413 0
v51q77 0 109 23t61 96zM821 1397h-49l-273 233q-47 40 -47 70q0 53 56 53q31 0 71 -51z" />
    <glyph glyph-name="Aacute" unicode="&#xc1;" horiz-adv-x="1376" 
d="M678 1147l-234 -612h478zM627 1255h127l450 -1097q31 -75 61 -92q25 -15 111 -15v-51h-12q-37 0 -110.5 2t-110.5 2q-100 0 -215 -4v51q7 0 22 -1t23 -1q100 0 100 51q0 29 -20 84l-101 279h-540l-109 -303q-14 -39 -14 -56q0 -41 59 -51q14 -2 90 -2v-51q-197 6 -413 0
v51q77 0 109 23t61 96zM620 1397h-49l242 305q40 51 71 51q56 0 56 -53q0 -30 -47 -70z" />
    <glyph glyph-name="Acircumflex" unicode="&#xc2;" horiz-adv-x="1376" 
d="M678 1147l-234 -612h478zM627 1255h127l450 -1097q31 -75 61 -92q25 -15 111 -15v-51h-12q-37 0 -110.5 2t-110.5 2q-100 0 -215 -4v51q7 0 22 -1t23 -1q100 0 100 51q0 29 -20 84l-101 279h-540l-109 -303q-14 -39 -14 -56q0 -41 59 -51q14 -2 90 -2v-51q-197 6 -413 0
v51q77 0 109 23t61 96zM649 1685h94l223 -348h-47l-223 231l-223 -231h-47z" />
    <glyph glyph-name="Atilde" unicode="&#xc3;" horiz-adv-x="1376" 
d="M678 1147l-234 -612h478zM627 1255h127l450 -1097q31 -75 61 -92q25 -15 111 -15v-51h-12q-37 0 -110.5 2t-110.5 2q-100 0 -215 -4v51q7 0 22 -1t23 -1q100 0 100 51q0 29 -20 84l-101 279h-540l-109 -303q-14 -39 -14 -56q0 -41 59 -51q14 -2 90 -2v-51q-197 6 -413 0
v51q77 0 109 23t61 96zM938 1663h43q-37 -182 -174 -182q-42 0 -131.5 30.5t-122.5 30.5q-75 0 -99 -90h-43q34 184 170 184q45 0 132 -29.5t130 -29.5q74 0 95 86z" />
    <glyph glyph-name="Adieresis" unicode="&#xc4;" horiz-adv-x="1376" 
d="M678 1147l-234 -612h478zM627 1255h127l450 -1097q31 -75 61 -92q25 -15 111 -15v-51h-12q-37 0 -110.5 2t-110.5 2q-100 0 -215 -4v51q7 0 22 -1t23 -1q100 0 100 51q0 29 -20 84l-101 279h-540l-109 -303q-14 -39 -14 -56q0 -41 59 -51q14 -2 90 -2v-51q-197 6 -413 0
v51q77 0 109 23t61 96zM868 1630q86 0 86 -80t-86 -80q-82 0 -82 80t82 80zM522 1630q86 0 86 -80t-86 -80q-84 0 -84 80t84 80z" />
    <glyph glyph-name="Aring" unicode="&#xc5;" horiz-adv-x="1376" 
d="M627 1255h127l450 -1097q31 -75 61 -92q25 -15 111 -15v-51h-12q-37 0 -110.5 2t-110.5 2q-100 0 -215 -4v51q7 0 22 -1t23 -1q100 0 100 51q0 29 -20 84l-101 279h-540l-109 -303q-14 -39 -14 -56q0 -41 59 -51q14 -2 90 -2v-51q-197 6 -413 0v51q77 0 109 23t61 96z
M678 1147l-234 -612h480zM688 1735q-64 0 -108.5 -45t-44.5 -109q0 -65 44 -108t109 -43t108.5 43t43.5 108q0 63 -44.5 108.5t-107.5 45.5zM686 1815q99 0 167.5 -67.5t68.5 -166.5t-68.5 -166t-167.5 -67t-166 67t-67 166t67 166.5t166 67.5z" />
    <glyph glyph-name="AE" unicode="&#xc6;" horiz-adv-x="1796" 
d="M879 1192l-418 -657h454v657h-36zM584 1255h1120v-303h-78q0 166 -29 203t-161 37h-387v-514h147q170 0 193 20q34 30 34 156h60v-426h-58q0 121 -32 152.5t-203 31.5h-141v-534h405q121 0 149 40t30 222h75v-340h-1010v51q135 0 162 12q55 25 55 136v264h-505l-177 -291
q-18 -30 -18 -63q0 -43 57 -54q19 -4 90 -4v-51q-198 6 -413 0v51q3 0 10.5 -1t11.5 -1q70 0 148 121l571 889q37 58 37 82q0 63 -143 63v51z" />
    <glyph glyph-name="Ccedilla" unicode="&#xc7;" horiz-adv-x="1268" 
d="M1153 1206v-282h-65q2 18 2 47q0 146 -105 202q-77 41 -237 41q-249 0 -372 -171q-108 -150 -108 -408q0 -594 516 -594q224 0 281 74q28 36 35 239h69v-321q-212 -62 -401 -62q-651 0 -651 658q0 314 154 482q160 173 472 173q208 0 410 -78zM661 0h56v-121q20 4 55 4
q174 0 174 -162q0 -80 -66 -123q-57 -38 -141 -38q-111 0 -276 67l26 66q138 -68 221 -68q127 0 127 101q0 92 -118 92q-27 0 -57 -6z" />
    <glyph glyph-name="Egrave" unicode="&#xc8;" horiz-adv-x="1143" 
d="M74 1251h977v-299l-78 1q-1 59 -4 97q-7 72 -22 92q-25 32 -165 32h-387v-496h162q108 0 138 5q17 2 46 15q25 22 30 156h58v-426h-57q0 121 -32 152.5t-181 31.5h-164v-534h406q120 0 148 39t30 223h76v-340h-1010v51q135 0 162 12q55 24 55 136v858q0 104 -44 130
q-29 17 -144 17v47zM719 1397h-49l-273 233q-47 40 -47 70q0 53 56 53q31 0 71 -51z" />
    <glyph glyph-name="Eacute" unicode="&#xc9;" horiz-adv-x="1143" 
d="M74 1251h977v-299l-78 1q-1 59 -4 97q-7 72 -22 92q-25 32 -165 32h-387v-496h162q108 0 138 5q17 2 46 15q25 22 30 156h58v-426h-57q0 121 -32 152.5t-181 31.5h-164v-534h406q120 0 148 39t30 223h76v-340h-1010v51q135 0 162 12q55 24 55 136v858q0 104 -44 130
q-29 17 -144 17v47zM518 1397h-49l242 305q40 51 71 51q56 0 56 -53q0 -30 -47 -70z" />
    <glyph glyph-name="Ecircumflex" unicode="&#xca;" horiz-adv-x="1143" 
d="M74 1251h977v-299l-78 1q-1 59 -4 97q-7 72 -22 92q-25 32 -165 32h-387v-496h162q108 0 138 5q17 2 46 15q25 22 30 156h58v-426h-57q0 121 -32 152.5t-181 31.5h-164v-534h406q120 0 148 39t30 223h76v-340h-1010v51q135 0 162 12q55 24 55 136v858q0 104 -44 130
q-29 17 -144 17v47zM549 1685h94l223 -348h-47l-223 231l-223 -231h-47z" />
    <glyph glyph-name="Edieresis" unicode="&#xcb;" horiz-adv-x="1143" 
d="M74 1251h977v-299l-78 1q-1 59 -4 97q-7 72 -22 92q-25 32 -165 32h-387v-496h162q108 0 138 5q17 2 46 15q25 22 30 156h58v-426h-57q0 121 -32 152.5t-181 31.5h-164v-534h406q120 0 148 39t30 223h76v-340h-1010v51q135 0 162 12q55 24 55 136v858q0 104 -44 130
q-29 17 -144 17v47zM766 1630q86 0 86 -80t-86 -80q-82 0 -82 80t82 80zM420 1630q86 0 86 -80t-86 -80q-84 0 -84 80t84 80z" />
    <glyph glyph-name="Igrave" unicode="&#xcc;" horiz-adv-x="666" 
d="M78 1255h6q42 0 125 -2t125 -2q49 0 256 4v-51q-114 0 -144 -18q-47 -26 -47 -129v-858q0 -103 46 -130q31 -18 145 -18v-51q-89 4 -233 4h-67q-123 0 -212 -4v51q113 0 143 18q45 27 45 130v858q0 102 -45 129q-30 18 -143 18v51zM459 1397h-49l-273 233q-47 40 -47 70
q0 53 56 53q31 0 71 -51z" />
    <glyph glyph-name="Iacute" unicode="&#xcd;" horiz-adv-x="666" 
d="M78 1255h6q42 0 125 -2t125 -2q49 0 256 4v-51q-114 0 -144 -18q-47 -26 -47 -129v-858q0 -103 46 -130q31 -18 145 -18v-51q-89 4 -233 4h-67q-123 0 -212 -4v51q113 0 143 18q45 27 45 130v858q0 102 -45 129q-30 18 -143 18v51zM258 1397h-49l242 305q40 51 71 51
q56 0 56 -53q0 -30 -47 -70z" />
    <glyph glyph-name="Icircumflex" unicode="&#xce;" horiz-adv-x="666" 
d="M78 1255h6q42 0 125 -2t125 -2q49 0 256 4v-51q-114 0 -144 -18q-47 -26 -47 -129v-858q0 -103 46 -130q31 -18 145 -18v-51q-89 4 -233 4h-67q-123 0 -212 -4v51q113 0 143 18q45 27 45 130v858q0 102 -45 129q-30 18 -143 18v51zM287 1745h94l223 -348h-47l-223 231
l-223 -231h-47z" />
    <glyph glyph-name="Idieresis" unicode="&#xcf;" horiz-adv-x="666" 
d="M78 1255h6q42 0 125 -2t125 -2q49 0 256 4v-51q-114 0 -144 -18q-47 -26 -47 -129v-858q0 -103 46 -130q31 -18 145 -18v-51q-89 4 -233 4h-67q-123 0 -212 -4v51q113 0 143 18q45 27 45 130v858q0 102 -45 129q-30 18 -143 18v51zM506 1630q86 0 86 -80t-86 -80
q-82 0 -82 80t82 80zM160 1630q86 0 86 -80t-86 -80q-84 0 -84 80t84 80z" />
    <glyph glyph-name="Eth" unicode="&#xd0;" horiz-adv-x="1456" 
d="M420 1192v-492h358v-77h-358v-553h201q565 0 565 559q0 284 -127 421q-131 142 -414 142h-225zM96 1255h580q661 0 661 -606q0 -339 -176 -498q-168 -151 -512 -151h-553v51q114 0 145 18q46 26 46 130v424h-187v77h187v357q0 103 -48 130q-29 17 -143 17v51z" />
    <glyph glyph-name="Ntilde" unicode="&#xd1;" horiz-adv-x="1352" 
d="M70 1255q170 -6 334 0l628 -1155v957q0 104 -44 130q-28 17 -144 17v51q191 -4 231 -4q44 0 225 4v-57q-97 0 -121 -9q-53 -19 -53 -95v-1094h-153l-637 1167v-968q0 -105 43 -131q29 -17 145 -17v-51q-84 4 -239 4q-152 0 -234 -4v51q114 0 145 18q46 27 46 130v876
q0 86 -46 109q-28 14 -126 14v57zM918 1663h43q-37 -182 -174 -182q-42 0 -131.5 30.5t-122.5 30.5q-75 0 -99 -90h-43q34 184 170 184q45 0 132 -29.5t130 -29.5q74 0 95 86z" />
    <glyph glyph-name="Ograve" unicode="&#xd2;" horiz-adv-x="1432" 
d="M717 1219q-240 0 -354 -183q-93 -149 -93 -405t93 -405q114 -183 354 -183q444 0 444 588q0 256 -92 405q-112 183 -352 183zM717 1286q295 0 451 -185q145 -172 145 -472q0 -301 -145 -473q-156 -185 -451 -185q-296 0 -452 184q-146 172 -146 474q0 301 146 473
q157 184 452 184zM842 1397h-49l-273 233q-47 40 -47 70q0 53 56 53q31 0 71 -51z" />
    <glyph glyph-name="Oacute" unicode="&#xd3;" horiz-adv-x="1432" 
d="M717 1219q-240 0 -354 -183q-93 -149 -93 -405t93 -405q114 -183 354 -183q444 0 444 588q0 256 -92 405q-112 183 -352 183zM717 1286q295 0 451 -185q145 -172 145 -472q0 -301 -145 -473q-156 -185 -451 -185q-296 0 -452 184q-146 172 -146 474q0 301 146 473
q157 184 452 184zM641 1397h-49l242 305q40 51 71 51q56 0 56 -53q0 -30 -47 -70z" />
    <glyph glyph-name="Ocircumflex" unicode="&#xd4;" horiz-adv-x="1432" 
d="M717 1219q-240 0 -354 -183q-93 -149 -93 -405t93 -405q114 -183 354 -183q444 0 444 588q0 256 -92 405q-112 183 -352 183zM717 1286q295 0 451 -185q145 -172 145 -472q0 -301 -145 -473q-156 -185 -451 -185q-296 0 -452 184q-146 172 -146 474q0 301 146 473
q157 184 452 184zM669 1685h94l223 -348h-47l-223 231l-223 -231h-47z" />
    <glyph glyph-name="Otilde" unicode="&#xd5;" horiz-adv-x="1432" 
d="M717 1219q-240 0 -354 -183q-93 -149 -93 -405t93 -405q114 -183 354 -183q444 0 444 588q0 256 -92 405q-112 183 -352 183zM717 1286q295 0 451 -185q145 -172 145 -472q0 -301 -145 -473q-156 -185 -451 -185q-296 0 -452 184q-146 172 -146 474q0 301 146 473
q157 184 452 184zM959 1663h43q-37 -182 -174 -182q-42 0 -131.5 30.5t-122.5 30.5q-75 0 -99 -90h-43q34 184 170 184q45 0 132 -29.5t130 -29.5q74 0 95 86z" />
    <glyph glyph-name="Odieresis" unicode="&#xd6;" horiz-adv-x="1432" 
d="M717 1219q-240 0 -354 -183q-93 -149 -93 -405t93 -405q114 -183 354 -183q444 0 444 588q0 256 -92 405q-112 183 -352 183zM717 1286q295 0 451 -185q145 -172 145 -472q0 -301 -145 -473q-156 -185 -451 -185q-296 0 -452 184q-146 172 -146 474q0 301 146 473
q157 184 452 184zM889 1630q86 0 86 -80t-86 -80q-82 0 -82 80t82 80zM543 1630q86 0 86 -80t-86 -80q-84 0 -84 80t84 80z" />
    <glyph glyph-name="multiply" unicode="&#xd7;" horiz-adv-x="1706" 
d="M375 1161l481 -481l481 481l70 -67l-481 -484l481 -481l-70 -68l-481 482l-481 -482l-70 68l481 481l-481 484z" />
    <glyph glyph-name="Oslash" unicode="&#xd8;" horiz-adv-x="1432" 
d="M1071 1042l-651 -892q117 -111 297 -111q242 0 356 184q94 150 94 408q0 274 -96 411zM1024 1102q-115 121 -307 121q-243 0 -358 -183q-95 -151 -95 -409q0 -275 107 -426zM1204 1358h96l-165 -223q178 -168 178 -506q0 -301 -145 -473q-156 -185 -451 -185
q-217 0 -357 95l-137 -193h-96l174 242q-182 180 -182 514q0 301 146 472q157 183 452 183q212 0 358 -106z" />
    <glyph glyph-name="Ugrave" unicode="&#xd9;" horiz-adv-x="1337" 
d="M18 1255h6q42 0 125 -2t125 -2q49 0 256 4v-51q-115 0 -144 -17q-46 -27 -46 -130v-570q0 -224 69 -322q83 -116 296 -116q120 0 206 48q99 56 123 165q10 47 10 158v616q0 124 -46 151q-29 17 -169 17v51h7q41 0 123.5 -2t123.5 -2q66 0 236 4v-51q-118 0 -143 -16
q-37 -23 -37 -131v-586q0 -141 -11 -203q-53 -297 -444 -297q-405 0 -464 296q-11 55 -11 222v568q0 103 -47 130q-30 17 -144 17v51zM817 1397h-49l-273 233q-47 40 -47 70q0 53 56 53q31 0 71 -51z" />
    <glyph glyph-name="Uacute" unicode="&#xda;" horiz-adv-x="1337" 
d="M18 1255h6q42 0 125 -2t125 -2q49 0 256 4v-51q-115 0 -144 -17q-46 -27 -46 -130v-570q0 -224 69 -322q83 -116 296 -116q120 0 206 48q99 56 123 165q10 47 10 158v616q0 124 -46 151q-29 17 -169 17v51h7q41 0 123.5 -2t123.5 -2q66 0 236 4v-51q-118 0 -143 -16
q-37 -23 -37 -131v-586q0 -141 -11 -203q-53 -297 -444 -297q-405 0 -464 296q-11 55 -11 222v568q0 103 -47 130q-30 17 -144 17v51zM616 1397h-49l242 305q40 51 71 51q56 0 56 -53q0 -30 -47 -70z" />
    <glyph glyph-name="Ucircumflex" unicode="&#xdb;" horiz-adv-x="1337" 
d="M18 1255h6q42 0 125 -2t125 -2q49 0 256 4v-51q-115 0 -144 -17q-46 -27 -46 -130v-570q0 -224 69 -322q83 -116 296 -116q120 0 206 48q99 56 123 165q10 47 10 158v616q0 124 -46 151q-29 17 -169 17v51h7q41 0 123.5 -2t123.5 -2q66 0 236 4v-51q-118 0 -143 -16
q-37 -23 -37 -131v-586q0 -141 -11 -203q-53 -297 -444 -297q-405 0 -464 296q-11 55 -11 222v568q0 103 -47 130q-30 17 -144 17v51zM645 1745h94l223 -348h-47l-223 231l-223 -231h-47z" />
    <glyph glyph-name="Udieresis" unicode="&#xdc;" horiz-adv-x="1337" 
d="M18 1255h6q42 0 125 -2t125 -2q49 0 256 4v-51q-115 0 -144 -17q-46 -27 -46 -130v-570q0 -224 69 -322q83 -116 296 -116q120 0 206 48q99 56 123 165q10 47 10 158v616q0 124 -46 151q-29 17 -169 17v51h7q41 0 123.5 -2t123.5 -2q66 0 236 4v-51q-118 0 -143 -16
q-37 -23 -37 -131v-586q0 -141 -11 -203q-53 -297 -444 -297q-405 0 -464 296q-11 55 -11 222v568q0 103 -47 130q-30 17 -144 17v51zM864 1630q86 0 86 -80t-86 -80q-82 0 -82 80t82 80zM518 1630q86 0 86 -80t-86 -80q-84 0 -84 80t84 80z" />
    <glyph glyph-name="Yacute" unicode="&#xdd;" horiz-adv-x="1266" 
d="M14 1255q207 -6 486 0v-51q-127 0 -155 -14.5t-28 -54.5q0 -24 25 -64l301 -481l291 459q39 62 39 94q0 61 -178 61v51q270 -6 456 0v-51q-106 -6 -202 -153l-353 -541v-311q0 -103 46 -130q31 -18 145 -18v-51q-90 4 -256 4t-256 -4v51q113 0 143 18q45 27 45 130v315
l-356 555q-87 135 -193 135v51zM557 1397h-49l242 305q40 51 71 51q56 0 56 -53q0 -30 -47 -70z" />
    <glyph glyph-name="Thorn" unicode="&#xde;" horiz-adv-x="1110" 
d="M399 942v-549h150q360 0 360 271q0 278 -346 278h-164zM78 1255h6q42 0 125 -2t125 -2q49 0 256 4v-51q-131 0 -159 -28q-32 -31 -32 -170h215q180 0 291 -77q129 -88 129 -261q0 -240 -218 -304q-96 -28 -417 -28v-137q0 -104 47 -131q30 -17 144 -17v-51q-97 4 -200 4
h-112q-112 0 -200 -4v51q113 0 143 18q45 27 45 130v858q0 102 -45 129q-31 18 -143 18v51z" />
    <glyph glyph-name="germandbls" unicode="&#xdf;" horiz-adv-x="1120" 
d="M719 721q317 -23 317 -371q0 -178 -87 -276q-92 -103 -267 -103q-48 0 -76 4v58h31q270 0 270 317q0 183 -102 261q-89 67 -279 67v65q140 0 199 54q63 57 63 196q0 108 -61.5 169t-169.5 61q-136 0 -186 -78q-39 -61 -39 -207v-752q0 -95 39 -122q29 -21 123 -21v-43
q-76 4 -218 4q-138 0 -210 -4v43q87 0 115 28t28 115v748q0 350 350 350q352 0 352 -307q0 -202 -192 -256z" />
    <glyph glyph-name="agrave" unicode="&#xe0;" 
d="M553 459q-338 0 -338 -217q0 -203 231 -203q275 0 275 338v82h-168zM975 39v-39q-150 0 -254 -10v137q-87 -156 -311 -156q-142 0 -226 62q-94 70 -94 207q0 170 161 235q109 45 321 45q29 0 79 -1t70 -1v109q0 213 -266 213q-218 0 -226 -197h-43v217q165 35 289 35
q212 0 293 -90q76 -84 76 -299v-348q0 -80 26 -101q22 -18 105 -18zM621 1008h-49l-273 233q-47 40 -47 70q0 53 56 53q31 0 71 -51z" />
    <glyph glyph-name="aacute" unicode="&#xe1;" 
d="M553 459q-338 0 -338 -217q0 -203 231 -203q275 0 275 338v82h-168zM975 39v-39q-150 0 -254 -10v137q-87 -156 -311 -156q-142 0 -226 62q-94 70 -94 207q0 170 161 235q109 45 321 45q29 0 79 -1t70 -1v109q0 213 -266 213q-218 0 -226 -197h-43v217q165 35 289 35
q212 0 293 -90q76 -84 76 -299v-348q0 -80 26 -101q22 -18 105 -18zM420 1008h-49l242 305q40 51 71 51q56 0 56 -53q0 -30 -47 -70z" />
    <glyph glyph-name="acircumflex" unicode="&#xe2;" 
d="M553 459q-338 0 -338 -217q0 -203 231 -203q275 0 275 338v82h-168zM975 39v-39q-150 0 -254 -10v137q-87 -156 -311 -156q-142 0 -226 62q-94 70 -94 207q0 170 161 235q109 45 321 45q29 0 79 -1t70 -1v109q0 213 -266 213q-218 0 -226 -197h-43v217q165 35 289 35
q212 0 293 -90q76 -84 76 -299v-348q0 -80 26 -101q22 -18 105 -18zM449 1356h94l223 -348h-47l-223 231l-223 -231h-47z" />
    <glyph glyph-name="atilde" unicode="&#xe3;" 
d="M553 459q-338 0 -338 -217q0 -203 231 -203q275 0 275 338v82h-168zM975 39v-39q-150 0 -254 -10v137q-87 -156 -311 -156q-142 0 -226 62q-94 70 -94 207q0 170 161 235q109 45 321 45q29 0 79 -1t70 -1v109q0 213 -266 213q-218 0 -226 -197h-43v217q165 35 289 35
q212 0 293 -90q76 -84 76 -299v-348q0 -80 26 -101q22 -18 105 -18zM738 1274h43q-37 -182 -174 -182q-42 0 -131.5 30.5t-122.5 30.5q-75 0 -99 -90h-43q34 184 170 184q45 0 132 -29.5t130 -29.5q74 0 95 86z" />
    <glyph glyph-name="adieresis" unicode="&#xe4;" 
d="M553 459q-338 0 -338 -217q0 -203 231 -203q275 0 275 338v82h-168zM975 39v-39q-150 0 -254 -10v137q-87 -156 -311 -156q-142 0 -226 62q-94 70 -94 207q0 170 161 235q109 45 321 45q29 0 79 -1t70 -1v109q0 213 -266 213q-218 0 -226 -197h-43v217q165 35 289 35
q212 0 293 -90q76 -84 76 -299v-348q0 -80 26 -101q22 -18 105 -18zM668 1241q86 0 86 -80t-86 -80q-82 0 -82 80t82 80zM322 1241q86 0 86 -80t-86 -80q-84 0 -84 80t84 80z" />
    <glyph glyph-name="aring" unicode="&#xe5;" 
d="M553 459q-338 0 -338 -217q0 -203 231 -203q275 0 275 338v82h-168zM975 39v-39q-150 0 -254 -10v137q-87 -156 -311 -156q-142 0 -226 62q-94 70 -94 207q0 170 161 235q109 45 321 45q29 0 79 -1t70 -1v109q0 213 -266 213q-218 0 -226 -197h-43v217q165 35 289 35
q212 0 293 -90q76 -84 76 -299v-348q0 -80 26 -101q22 -18 105 -18zM498 1374q-64 0 -109 -43.5t-45 -107.5q0 -65 44.5 -109.5t109.5 -44.5t108 44.5t43 109.5q0 63 -44 107t-107 44zM498 1454q99 0 166 -66t67 -165t-67 -167.5t-166 -68.5q-100 0 -168 68t-68 168
q0 98 68.5 164.5t167.5 66.5z" />
    <glyph glyph-name="ae" unicode="&#xe6;" horiz-adv-x="1620" 
d="M817 469h594q-6 365 -295 365q-277 0 -299 -365zM696 467h-168q-331 0 -331 -221q0 -99 57.5 -153t157.5 -54q284 0 284 338v90zM743 176q-113 -205 -358 -205q-315 0 -315 269q0 175 158 242q108 46 322 46q27 0 76.5 -1t69.5 -1v49q0 138 -63 200.5t-201 62.5
q-225 0 -225 -195h-43v217q156 35 287 35q239 0 325 -147q115 147 340 147q408 0 408 -453v-39h-703q12 -364 320 -364q243 0 284 199h82q-54 -267 -379 -267q-268 0 -385 205z" />
    <glyph glyph-name="ccedilla" unicode="&#xe7;" horiz-adv-x="920" 
d="M825 854v-240l-47 1q-2 119 -62 171q-56 48 -177 48q-316 0 -316 -400q0 -395 295 -395q215 0 250 207h78q-29 -275 -348 -275q-204 0 -312 132q-100 122 -100 331q0 212 107 333q112 128 321 128q137 0 311 -41zM434 0h56v-121q20 4 55 4q174 0 174 -162q0 -80 -66 -123
q-57 -38 -141 -38q-111 0 -276 67l26 66q138 -68 221 -68q127 0 127 101q0 92 -118 92q-27 0 -57 -6z" />
    <glyph glyph-name="egrave" unicode="&#xe8;" horiz-adv-x="1020" 
d="M926 403h-705q10 -364 320 -364q243 0 284 199h84q-56 -267 -393 -267q-213 0 -324 127q-104 119 -104 336q0 212 107 333q112 128 321 128q410 0 410 -453v-39zM809 469v6q0 359 -293 359q-277 0 -299 -365h592zM649 1008h-49l-273 233q-47 40 -47 70q0 53 56 53
q31 0 71 -51z" />
    <glyph glyph-name="eacute" unicode="&#xe9;" horiz-adv-x="1020" 
d="M926 403h-705q10 -364 320 -364q243 0 284 199h84q-56 -267 -393 -267q-213 0 -324 127q-104 119 -104 336q0 212 107 333q112 128 321 128q410 0 410 -453v-39zM809 469v6q0 359 -293 359q-277 0 -299 -365h592zM448 1008h-49l242 305q40 51 71 51q56 0 56 -53
q0 -30 -47 -70z" />
    <glyph glyph-name="ecircumflex" unicode="&#xea;" horiz-adv-x="1020" 
d="M926 403h-705q10 -364 320 -364q243 0 284 199h84q-56 -267 -393 -267q-213 0 -324 127q-104 119 -104 336q0 212 107 333q112 128 321 128q410 0 410 -453v-39zM809 469v6q0 359 -293 359q-277 0 -299 -365h592zM477 1356h94l223 -348h-47l-223 231l-223 -231h-47z" />
    <glyph glyph-name="edieresis" unicode="&#xeb;" horiz-adv-x="1020" 
d="M926 403h-705q10 -364 320 -364q243 0 284 199h84q-56 -267 -393 -267q-213 0 -324 127q-104 119 -104 336q0 212 107 333q112 128 321 128q410 0 410 -453v-39zM809 469v6q0 359 -293 359q-277 0 -299 -365h592zM696 1241q86 0 86 -80t-86 -80q-82 0 -82 80t82 80z
M350 1241q86 0 86 -80t-86 -80q-84 0 -84 80t84 80z" />
    <glyph glyph-name="igrave" unicode="&#xec;" horiz-adv-x="545" 
d="M332 878v-692q0 -95 39 -122q29 -21 123 -21v-43q-76 4 -199 4h-48q-109 0 -181 -4v43q87 0 115 28t28 115v525q0 81 -26 101q-21 16 -107 18v38q130 0 256 10zM385 1008h-49l-273 233q-47 40 -47 70q0 53 56 53q31 0 71 -51z" />
    <glyph glyph-name="iacute" unicode="&#xed;" horiz-adv-x="545" 
d="M332 878v-692q0 -95 39 -122q29 -21 123 -21v-43q-76 4 -199 4h-48q-109 0 -181 -4v43q87 0 115 28t28 115v525q0 81 -26 101q-21 16 -107 18v38q130 0 256 10zM184 1008h-49l242 305q40 51 71 51q56 0 56 -53q0 -30 -47 -70z" />
    <glyph glyph-name="icircumflex" unicode="&#xee;" horiz-adv-x="545" 
d="M332 878v-692q0 -95 39 -122q29 -21 123 -21v-43q-76 4 -199 4h-48q-109 0 -181 -4v43q87 0 115 28t28 115v525q0 81 -26 101q-21 16 -107 18v38q130 0 256 10zM213 1356h94l223 -348h-47l-223 231l-223 -231h-47z" />
    <glyph glyph-name="idieresis" unicode="&#xef;" horiz-adv-x="545" 
d="M332 878v-692q0 -95 39 -122q29 -21 123 -21v-43q-76 4 -199 4h-48q-109 0 -181 -4v43q87 0 115 28t28 115v525q0 81 -26 101q-21 16 -107 18v38q130 0 256 10zM432 1241q86 0 86 -80t-86 -80q-82 0 -82 80t82 80zM86 1241q86 0 86 -80t-86 -80q-84 0 -84 80t84 80z" />
    <glyph glyph-name="eth" unicode="&#xf0;" horiz-adv-x="1034" 
d="M221 434q0 -395 295 -395q297 0 297 395q0 169 -62 271q-77 126 -235 126q-295 0 -295 -397zM645 870l-135 199l-270 -131l-27 53l262 129l-113 164h127l84 -121l230 113l24 -53l-221 -107l187 -266q153 -218 153 -416q0 -213 -107 -335q-113 -128 -323 -128
q-209 0 -322 129q-106 122 -106 334q0 202 101 327q109 136 307 136q57 0 149 -27z" />
    <glyph glyph-name="ntilde" unicode="&#xf1;" horiz-adv-x="1145" 
d="M1112 43v-43q-72 4 -207 4q-141 0 -221 -4v43q95 0 124 20q38 28 38 123v332q0 309 -244 309q-272 0 -272 -331v-310q0 -95 39 -122q29 -21 123 -21v-43q-76 4 -218 4q-137 0 -211 -4v43q87 0 115.5 28t28.5 115v525q0 80 -27 101q-21 16 -106 18v38q140 0 250 10v-124
q112 143 317 143q187 0 264 -105q66 -91 66 -286v-330q0 -89 27 -111q22 -19 114 -22zM811 1274h43q-37 -182 -174 -182q-42 0 -131.5 30.5t-122.5 30.5q-75 0 -99 -90h-43q34 184 170 184q45 0 132 -29.5t130 -29.5q74 0 95 86z" />
    <glyph glyph-name="ograve" unicode="&#xf2;" horiz-adv-x="1034" 
d="M516 831q-295 0 -295 -397q0 -395 295 -395q158 0 235 124q62 102 62 271q0 397 -297 397zM516 895q210 0 323 -127q107 -121 107 -334q0 -212 -107 -334q-114 -129 -323 -129t-322 129q-106 122 -106 334t107 333q112 128 321 128zM643 1008h-49l-273 233q-47 40 -47 70
q0 53 56 53q31 0 71 -51z" />
    <glyph glyph-name="oacute" unicode="&#xf3;" horiz-adv-x="1034" 
d="M516 831q-295 0 -295 -397q0 -395 295 -395q158 0 235 124q62 102 62 271q0 397 -297 397zM516 895q210 0 323 -127q107 -121 107 -334q0 -212 -107 -334q-114 -129 -323 -129t-322 129q-106 122 -106 334t107 333q112 128 321 128zM442 1008h-49l242 305q40 51 71 51
q56 0 56 -53q0 -30 -47 -70z" />
    <glyph glyph-name="ocircumflex" unicode="&#xf4;" horiz-adv-x="1034" 
d="M516 831q-295 0 -295 -397q0 -395 295 -395q158 0 235 124q62 102 62 271q0 397 -297 397zM516 895q210 0 323 -127q107 -121 107 -334q0 -212 -107 -334q-114 -129 -323 -129t-322 129q-106 122 -106 334t107 333q112 128 321 128zM471 1356h94l223 -348h-47l-223 231
l-223 -231h-47z" />
    <glyph glyph-name="otilde" unicode="&#xf5;" horiz-adv-x="1034" 
d="M516 831q-295 0 -295 -397q0 -395 295 -395q158 0 235 124q62 102 62 271q0 397 -297 397zM516 895q210 0 323 -127q107 -121 107 -334q0 -212 -107 -334q-114 -129 -323 -129t-322 129q-106 122 -106 334t107 333q112 128 321 128zM760 1274h43q-37 -182 -174 -182
q-42 0 -131.5 30.5t-122.5 30.5q-75 0 -99 -90h-43q34 184 170 184q45 0 132 -29.5t130 -29.5q74 0 95 86z" />
    <glyph glyph-name="odieresis" unicode="&#xf6;" horiz-adv-x="1034" 
d="M516 831q-295 0 -295 -397q0 -395 295 -395q158 0 235 124q62 102 62 271q0 397 -297 397zM516 895q210 0 323 -127q107 -121 107 -334q0 -212 -107 -334q-114 -129 -323 -129t-322 129q-106 122 -106 334t107 333q112 128 321 128zM690 1241q86 0 86 -80t-86 -80
q-82 0 -82 80t82 80zM344 1241q86 0 86 -80t-86 -80q-84 0 -84 80t84 80z" />
    <glyph glyph-name="divide" unicode="&#xf7;" horiz-adv-x="1706" 
d="M854 365q45 0 76 -31t31 -76t-31 -75.5t-76 -30.5t-75.5 30.5t-30.5 75.5q0 44 31 75.5t75 31.5zM254 659h1198v-98h-1198v98zM854 1071q44 0 75.5 -32t31.5 -76q0 -45 -31 -76t-76 -31q-46 0 -76 30.5t-30 76.5q0 44 31 76t75 32z" />
    <glyph glyph-name="oslash" unicode="&#xf8;" horiz-adv-x="1034" 
d="M758 713l-436 -604q91 -74 196 -74q160 0 238 125q63 103 63 274q0 185 -61 279zM711 768q-76 68 -193 68q-303 0 -303 -402q0 -156 59 -266zM885 999h88l-156 -211q129 -113 129 -354q0 -212 -108 -334q-113 -129 -322 -129q-138 0 -248 66l-137 -189h-88l174 232
q-129 125 -129 346q0 216 104 338q112 131 324 131q143 0 246 -64z" />
    <glyph glyph-name="ugrave" unicode="&#xf9;" horiz-adv-x="1145" 
d="M309 878v-528q0 -309 246 -309q270 0 270 330v340q0 82 -25 102q-21 16 -106 16v39q130 0 256 10v-720q0 -82 25 -101q20 -16 106 -18v-39q-147 0 -249 -10l-1 125q-112 -144 -317 -144q-187 0 -264 106q-64 89 -64 285v349q0 78 -23.5 98t-103.5 20v39q140 0 250 10z
M698 1008h-49l-273 233q-47 40 -47 70q0 53 56 53q31 0 71 -51z" />
    <glyph glyph-name="uacute" unicode="&#xfa;" horiz-adv-x="1145" 
d="M309 878v-528q0 -309 246 -309q270 0 270 330v340q0 82 -25 102q-21 16 -106 16v39q130 0 256 10v-720q0 -82 25 -101q20 -16 106 -18v-39q-147 0 -249 -10l-1 125q-112 -144 -317 -144q-187 0 -264 106q-64 89 -64 285v349q0 78 -23.5 98t-103.5 20v39q140 0 250 10z
M497 1008h-49l242 305q40 51 71 51q56 0 56 -53q0 -30 -47 -70z" />
    <glyph glyph-name="ucircumflex" unicode="&#xfb;" horiz-adv-x="1145" 
d="M309 878v-528q0 -309 246 -309q270 0 270 330v340q0 82 -25 102q-21 16 -106 16v39q130 0 256 10v-720q0 -82 25 -101q20 -16 106 -18v-39q-147 0 -249 -10l-1 125q-112 -144 -317 -144q-187 0 -264 106q-64 89 -64 285v349q0 78 -23.5 98t-103.5 20v39q140 0 250 10z
M526 1356h94l223 -348h-47l-223 231l-223 -231h-47z" />
    <glyph glyph-name="udieresis" unicode="&#xfc;" horiz-adv-x="1145" 
d="M309 878v-528q0 -309 246 -309q270 0 270 330v340q0 82 -25 102q-21 16 -106 16v39q130 0 256 10v-720q0 -82 25 -101q20 -16 106 -18v-39q-147 0 -249 -10l-1 125q-112 -144 -317 -144q-187 0 -264 106q-64 89 -64 285v349q0 78 -23.5 98t-103.5 20v39q140 0 250 10z
M745 1241q86 0 86 -80t-86 -80q-82 0 -82 80t82 80zM399 1241q86 0 86 -80t-86 -80q-84 0 -84 80t84 80z" />
    <glyph glyph-name="yacute" unicode="&#xfd;" horiz-adv-x="985" 
d="M-39 874q43 0 130.5 -3t131.5 -3q90 0 160 10v-53q-91 0 -111 -4q-67 -13 -67 -69q0 -20 10 -41l291 -619l285 617q12 26 12 45q0 71 -174 71v45q27 0 81 -1t81 -1h108q62 0 111 8l-1 -51q-82 -10 -147 -149l-405 -866q-29 -62 -29 -99q0 -49 53 -60q14 -3 92 -3v-41
q-64 4 -182 4q-114 0 -176 -4v41q82 0 129 98l105 221l-349 729q-62 129 -139 129v49zM418 1008h-49l242 305q40 51 71 51q56 0 56 -53q0 -30 -47 -70z" />
    <glyph glyph-name="thorn" unicode="&#xfe;" horiz-adv-x="1098" 
d="M586 823q-283 0 -283 -370q0 -170 57 -276q72 -136 228 -136q157 0 231 128q60 103 60 271q0 383 -293 383zM313 1272v-541q80 164 308 164q193 0 295 -126q94 -116 94 -314q0 -208 -88 -336q-102 -148 -301 -148q-201 0 -308 152v-330q0 -97 38 -123q29 -20 132 -20v-43
q-78 4 -223 4q-139 0 -213 -4v43q87 0 115 28t28 115v1311q0 81 -26 102q-21 15 -107 17v39q142 0 256 10z" />
    <glyph glyph-name="ydieresis" unicode="&#xff;" horiz-adv-x="985" 
d="M-39 874q43 0 130.5 -3t131.5 -3q90 0 160 10v-53q-91 0 -111 -4q-67 -13 -67 -69q0 -20 10 -41l291 -619l285 617q12 26 12 45q0 71 -174 71v45q27 0 81 -1t81 -1h108q62 0 111 8l-1 -51q-82 -10 -147 -149l-405 -866q-29 -62 -29 -99q0 -49 53 -60q14 -3 92 -3v-41
q-64 4 -182 4q-114 0 -176 -4v41q82 0 129 98l105 221l-349 729q-62 129 -139 129v49zM666 1241q86 0 86 -80t-86 -80q-82 0 -82 80t82 80zM320 1241q86 0 86 -80t-86 -80q-84 0 -84 80t84 80z" />
    <glyph glyph-name="glyph271" unicode="&#x102;" horiz-adv-x="1376" 
d="M678 1147l-234 -612h478zM627 1255h127l450 -1097q31 -75 61 -92q25 -15 111 -15v-51h-12q-37 0 -110.5 2t-110.5 2q-100 0 -215 -4v51q7 0 22 -1t23 -1q100 0 100 51q0 29 -20 84l-101 279h-540l-109 -303q-14 -39 -14 -56q0 -41 59 -51q14 -2 90 -2v-51q-197 6 -413 0
v51q77 0 109 23t61 96zM413 1642h45q32 -156 238 -156t236 156h47q-41 -264 -283 -264t-283 264z" />
    <glyph glyph-name="glyph272" unicode="&#x103;" 
d="M553 459q-338 0 -338 -217q0 -203 231 -203q275 0 275 338v82h-168zM975 39v-39q-150 0 -254 -10v137q-87 -156 -311 -156q-142 0 -226 62q-94 70 -94 207q0 170 161 235q109 45 321 45q29 0 79 -1t70 -1v109q0 213 -266 213q-218 0 -226 -197h-43v217q165 35 289 35
q212 0 293 -90q76 -84 76 -299v-348q0 -80 26 -101q22 -18 105 -18zM214 1313h45q32 -156 238 -156t236 156h47q-41 -264 -283 -264t-283 264z" />
    <glyph glyph-name="Cacute" unicode="&#x106;" horiz-adv-x="1268" 
d="M1153 1206v-282h-65q2 18 2 47q0 146 -105 202q-77 41 -237 41q-249 0 -372 -171q-108 -150 -108 -408q0 -594 516 -594q224 0 281 74q28 36 35 239h69v-321q-212 -62 -401 -62q-651 0 -651 658q0 314 154 482q160 173 472 173q208 0 410 -78zM635 1397h-49l242 305
q40 51 71 51q56 0 56 -53q0 -30 -47 -70z" />
    <glyph glyph-name="cacute" unicode="&#x107;" horiz-adv-x="920" 
d="M825 854v-240l-47 1q-2 119 -62 171q-56 48 -177 48q-316 0 -316 -400q0 -395 295 -395q215 0 250 207h78q-29 -275 -348 -275q-204 0 -312 132q-100 122 -100 331q0 212 107 333q112 128 321 128q137 0 311 -41zM416 1008h-49l242 305q40 51 71 51q56 0 56 -53
q0 -30 -47 -70z" />
    <glyph glyph-name="Ccaron" unicode="&#x10c;" horiz-adv-x="1268" 
d="M1153 1206v-282h-65q2 18 2 47q0 146 -105 202q-77 41 -237 41q-249 0 -372 -171q-108 -150 -108 -408q0 -594 516 -594q224 0 281 74q28 36 35 239h69v-321q-212 -62 -401 -62q-651 0 -651 658q0 314 154 482q160 173 472 173q208 0 410 -78zM441 1745h47l223 -232
l223 232h47l-223 -348h-94z" />
    <glyph glyph-name="ccaron" unicode="&#x10d;" horiz-adv-x="920" 
d="M825 854v-240l-47 1q-2 119 -62 171q-56 48 -177 48q-316 0 -316 -400q0 -395 295 -395q215 0 250 207h78q-29 -275 -348 -275q-204 0 -312 132q-100 122 -100 331q0 212 107 333q112 128 321 128q137 0 311 -41zM222 1356h47l223 -232l223 232h47l-223 -348h-94z" />
    <glyph glyph-name="Dslash" unicode="&#x110;" horiz-adv-x="1456" 
d="M420 1192v-492h358v-77h-358v-553h201q565 0 565 559q0 284 -127 421q-131 142 -414 142h-225zM96 1255h580q661 0 661 -606q0 -339 -176 -498q-168 -151 -512 -151h-553v51q114 0 145 18q46 26 46 130v424h-187v77h187v357q0 103 -48 130q-29 17 -143 17v51z" />
    <glyph glyph-name="dcroat" unicode="&#x111;" horiz-adv-x="1118" 
d="M506 825q-155 0 -227 -128q-58 -102 -58 -269q0 -383 287 -383q278 0 278 371q0 169 -55 273q-71 136 -225 136zM907 1272v-191h211v-69h-211v-854q0 -82 26 -102q19 -14 107 -17v-39q-139 0 -243 -10v147q-111 -166 -320 -166q-198 0 -299 132q-90 119 -90 323
q0 201 91 327q102 142 296 142q217 0 305 -152v269h-309v69h309v19q0 83 -23 103q-21 17 -110 20v39q150 0 260 10z" />
    <glyph glyph-name="Gbreve" unicode="&#x11e;" horiz-adv-x="1427" 
d="M1198 1219v-316h-63q0 180 -94 249q-79 58 -267 58q-273 0 -395 -159q-109 -140 -109 -422q0 -298 128 -440q135 -150 429 -150q128 0 242 27v352q0 63 -32 87q-30 21 -148 21v43h6q39 0 117.5 -2t117.5 -2q46 0 238 4v-43q-89 0 -118 -15q-44 -24 -44 -103v-404
q-219 -33 -407 -33q-343 0 -509 149q-173 157 -173 496q0 668 641 668q208 0 440 -65zM432 1702h45q32 -156 238 -156t236 156h47q-41 -264 -283 -264t-283 264z" />
    <glyph glyph-name="gbreve" unicode="&#x11f;" horiz-adv-x="1098" 
d="M807 731v147q76 -10 244 -10v-38q-86 -2 -107 -18q-26 -20 -26 -101v-645q0 -235 -35 -297q-106 -187 -387 -187q-186 0 -340 58v258h45q0 -149 68 -206q62 -52 216 -52q310 0 310 321v209q-101 -158 -310 -158q-194 0 -296 127q-93 115 -93 314q0 194 97 313
q104 129 294 129q209 0 320 -164zM520 823q-287 0 -287 -370q0 -377 285 -377q147 0 220 124q59 101 59 259q0 364 -277 364zM266 1313h45q32 -156 238 -156t236 156h47q-41 -264 -283 -264t-283 264z" />
    <glyph glyph-name="glyph273" unicode="&#x128;" horiz-adv-x="666" 
d="M78 1255h6q42 0 125 -2t125 -2q49 0 256 4v-51q-114 0 -144 -18q-47 -26 -47 -129v-858q0 -103 46 -130q31 -18 145 -18v-51q-89 4 -233 4h-67q-123 0 -212 -4v51q113 0 143 18q45 27 45 130v858q0 102 -45 129q-30 18 -143 18v51zM589 1663h43q-37 -182 -174 -182
q-42 0 -131.5 30.5t-122.5 30.5q-75 0 -99 -90h-43q34 184 170 184q45 0 132 -29.5t130 -29.5q74 0 95 86z" />
    <glyph glyph-name="glyph274" unicode="&#x129;" horiz-adv-x="545" 
d="M332 878v-692q0 -95 39 -122q29 -21 123 -21v-43q-76 4 -199 4h-48q-109 0 -181 -4v43q87 0 115 28t28 115v525q0 81 -26 101q-21 16 -107 18v38q130 0 256 10zM510 1274h43q-37 -182 -174 -182q-42 0 -131.5 30.5t-122.5 30.5q-75 0 -99 -90h-43q34 184 170 184
q45 0 132 -29.5t130 -29.5q74 0 95 86z" />
    <glyph glyph-name="Idotaccent" unicode="&#x130;" horiz-adv-x="666" 
d="M78 1255h6q42 0 125 -2t125 -2q49 0 256 4v-51q-114 0 -144 -18q-47 -26 -47 -129v-858q0 -103 46 -130q31 -18 145 -18v-51q-89 4 -233 4h-67q-123 0 -212 -4v51q113 0 143 18q45 27 45 130v858q0 102 -45 129q-30 18 -143 18v51zM334 1640q94 0 94 -90q0 -88 -94 -88
t-94 88q0 90 94 90z" />
    <glyph glyph-name="dotlessi" unicode="&#x131;" horiz-adv-x="545" 
d="M332 878v-692q0 -95 39 -122q29 -21 123 -21v-43q-76 4 -199 4h-48q-109 0 -181 -4v43q87 0 115 28t28 115v525q0 81 -26 101q-21 16 -107 18v38q130 0 256 10z" />
    <glyph glyph-name="Lslash" unicode="&#x141;" horiz-adv-x="1112" 
d="M96 1255h6q42 0 125 -2t125 -2q49 0 256 4v-51q-114 0 -144 -17q-46 -27 -46 -130v-340l321 207v-93l-321 -204v-549h373q119 0 146.5 38t29.5 216h75v-332h-946v51q114 0 145 18q46 26 46 130v368l-269 -172v92l269 170v400q0 103 -47 130q-30 17 -144 17v51z" />
    <glyph glyph-name="lslash" unicode="&#x142;" horiz-adv-x="573" 
d="M346 1271v-562l213 137v-86l-213 -137v-437q0 -95 39 -122q29 -21 123 -21v-43q-76 4 -217 4q-139 0 -211 -4v43q87 0 115 28t28 115v379l-209 -135v84l209 137v453q0 81 -26 101q-20 16 -107 18v39q126 0 256 9z" />
    <glyph glyph-name="OE" unicode="&#x152;" horiz-adv-x="1804" 
d="M801 1192q-541 0 -541 -549q0 -292 137 -431.5t428 -139.5h101v1120h-125zM770 1255h942v-303l-78 1q-1 171 -30.5 205t-157.5 34h-389v-514h147q176 0 198 20q28 26 32 156h57v-426h-57q0 120 -32 152t-181 32h-164v-534h407q118 0 148 39q27 37 29 223h75v-340h-917
q-344 0 -513 151q-177 159 -177 498q0 606 661 606z" />
    <glyph glyph-name="oe" unicode="&#x153;" horiz-adv-x="1745" 
d="M944 469h592q-6 365 -295 365q-275 0 -297 -365zM221 434q0 -395 295 -395q297 0 297 395q0 170 -62 273q-76 127 -235 127q-295 0 -295 -400zM877 160q-112 -189 -361 -189q-209 0 -322 129q-106 122 -106 334q0 213 106 334q112 127 322 127q254 0 367 -195
q106 195 358 195q410 0 410 -453v-39h-705q12 -364 320 -364q244 0 284 199h82q-54 -267 -379 -267q-267 0 -376 189z" />
    <glyph glyph-name="Scedilla" unicode="&#x15e;" horiz-adv-x="1128" 
d="M967 1235v-305h-84q2 20 2 53q0 143 -77 195q-63 43 -214 43q-126 0 -213 -49q-107 -60 -107 -177q0 -84 41 -133.5t164 -97.5l260 -102q271 -106 271 -334q0 -191 -159 -283q-127 -74 -333 -74q-145 0 -401 45v342h96q-2 -20 -2 -59q0 -152 86 -211q71 -49 231 -49
q148 0 238 60q106 71 106 212q0 155 -186 230l-233 94q-150 60 -213 114q-99 82 -99 209q0 174 144 258q116 68 303 68q134 0 379 -49zM536 0h56v-121q20 4 55 4q174 0 174 -162q0 -80 -66 -123q-57 -38 -141 -38q-111 0 -276 67l26 66q138 -68 221 -68q127 0 127 101
q0 92 -118 92q-27 0 -57 -6z" />
    <glyph glyph-name="scedilla" unicode="&#x15f;" horiz-adv-x="891" 
d="M750 862v-239h-41q0 126 -66 176q-57 43 -188 43q-232 0 -232 -158q0 -106 223 -179q170 -55 226 -90q114 -73 114 -198q0 -246 -342 -246q-151 0 -327 45v252h37q0 -132 61 -187.5t195 -55.5q247 0 247 178q0 59 -39 99q-29 28 -190 89q-326 123 -326 266q0 128 117 190
q91 48 232 48q140 0 299 -33zM417 0h56v-121q20 4 55 4q174 0 174 -162q0 -80 -66 -123q-57 -38 -141 -38q-111 0 -276 67l26 66q138 -68 221 -68q127 0 127 101q0 92 -118 92q-27 0 -57 -6z" />
    <glyph glyph-name="Scaron" unicode="&#x160;" horiz-adv-x="1128" 
d="M967 1235v-305h-84q2 20 2 53q0 143 -77 195q-63 43 -214 43q-126 0 -213 -49q-107 -60 -107 -177q0 -84 41 -133.5t164 -97.5l260 -102q271 -106 271 -334q0 -191 -159 -283q-127 -74 -333 -74q-145 0 -401 45v342h96q-2 -20 -2 -59q0 -152 86 -211q71 -49 231 -49
q148 0 238 60q106 71 106 212q0 155 -186 230l-233 94q-150 60 -213 114q-99 82 -99 209q0 174 144 258q116 68 303 68q134 0 379 -49zM295 1745h47l223 -232l223 232h47l-223 -348h-94z" />
    <glyph glyph-name="scaron" unicode="&#x161;" horiz-adv-x="891" 
d="M750 862v-239h-41q0 126 -66 176q-57 43 -188 43q-232 0 -232 -158q0 -106 223 -179q170 -55 226 -90q114 -73 114 -198q0 -246 -342 -246q-151 0 -327 45v252h37q0 -132 61 -187.5t195 -55.5q247 0 247 178q0 59 -39 99q-29 28 -190 89q-326 123 -326 266q0 128 117 190
q91 48 232 48q140 0 299 -33zM176 1356h47l223 -232l223 232h47l-223 -348h-94z" />
    <glyph glyph-name="glyph275" unicode="&#x168;" horiz-adv-x="1337" 
d="M18 1255h6q42 0 125 -2t125 -2q49 0 256 4v-51q-115 0 -144 -17q-46 -27 -46 -130v-570q0 -224 69 -322q83 -116 296 -116q120 0 206 48q99 56 123 165q10 47 10 158v616q0 124 -46 151q-29 17 -169 17v51h7q41 0 123.5 -2t123.5 -2q66 0 236 4v-51q-118 0 -143 -16
q-37 -23 -37 -131v-586q0 -141 -11 -203q-53 -297 -444 -297q-405 0 -464 296q-11 55 -11 222v568q0 103 -47 130q-30 17 -144 17v51zM929 1663h43q-37 -182 -174 -182q-42 0 -131.5 30.5t-122.5 30.5q-75 0 -99 -90h-43q34 184 170 184q45 0 132 -29.5t130 -29.5
q74 0 95 86z" />
    <glyph glyph-name="glyph276" unicode="&#x169;" horiz-adv-x="1145" 
d="M309 878v-528q0 -309 246 -309q270 0 270 330v340q0 82 -25 102q-21 16 -106 16v39q130 0 256 10v-720q0 -82 25 -101q20 -16 106 -18v-39q-147 0 -249 -10l-1 125q-112 -144 -317 -144q-187 0 -264 106q-64 89 -64 285v349q0 78 -23.5 98t-103.5 20v39q140 0 250 10z
M800 1274h43q-37 -182 -174 -182q-42 0 -131.5 30.5t-122.5 30.5q-75 0 -99 -90h-43q34 184 170 184q45 0 132 -29.5t130 -29.5q74 0 95 86z" />
    <glyph glyph-name="Ydieresis" unicode="&#x178;" horiz-adv-x="1266" 
d="M14 1255q207 -6 486 0v-51q-127 0 -155 -14.5t-28 -54.5q0 -24 25 -64l301 -481l291 459q39 62 39 94q0 61 -178 61v51q270 -6 456 0v-51q-106 -6 -202 -153l-353 -541v-311q0 -103 46 -130q31 -18 145 -18v-51q-90 4 -256 4t-256 -4v51q113 0 143 18q45 27 45 130v315
l-356 555q-87 135 -193 135v51zM805 1630q86 0 86 -80t-86 -80q-82 0 -82 80t82 80zM459 1630q86 0 86 -80t-86 -80q-84 0 -84 80t84 80z" />
    <glyph glyph-name="Zcaron" unicode="&#x17d;" horiz-adv-x="1079" 
d="M84 1251h899v-153l-817 -1024h606q99 0 132 41t40 243h76v-358h-948v139l823 1045h-563q-107 0 -139.5 -31t-32.5 -137v-107h-76v342zM271 1745h47l223 -232l223 232h47l-223 -348h-94z" />
    <glyph glyph-name="zcaron" unicode="&#x17e;" horiz-adv-x="918" 
d="M94 868h717v-108l-621 -699h458q92 0 114 21t22 158v16h45v-256h-741v102l617 705h-449q-80 0 -100 -52q-11 -27 -11 -124h-51v237zM189 1356h47l223 -232l223 232h47l-223 -348h-94z" />
    <glyph glyph-name="florin" unicode="&#x192;" horiz-adv-x="1128" 
d="M1022 1251l-49 -202h-45q2 18 2 45q0 131 -107 131q-137 0 -176 -264l-33 -226h217v-71h-227l-74 -549q-40 -297 -124 -416q-87 -121 -252 -121q-84 0 -148 33l31 242l53 -1q-2 -20 -2 -53q0 -143 109 -143q82 0 124 71q40 68 70 298l84 639h-184v71h196q35 228 40 250
q33 141 97 212q81 89 228 89q83 0 170 -35z" />
    <glyph glyph-name="glyph277" unicode="&#x1a0;" horiz-adv-x="1432" 
d="M717 1219q-240 0 -354 -183q-93 -149 -93 -405t93 -405q114 -183 354 -183q444 0 444 588q0 256 -92 405q-112 183 -352 183zM717 1286q295 0 451 -185q145 -172 145 -472q0 -301 -145 -473q-156 -185 -451 -185q-296 0 -452 184q-146 172 -146 474q0 301 146 473
q157 184 452 184zM1253 1326h165l-249 -309h-77z" />
    <glyph glyph-name="glyph278" unicode="&#x1a1;" horiz-adv-x="1034" 
d="M516 831q-295 0 -295 -397q0 -395 295 -395q158 0 235 124q62 102 62 271q0 397 -297 397zM516 895q210 0 323 -127q107 -121 107 -334q0 -212 -107 -334q-114 -129 -323 -129t-322 129q-106 122 -106 334t107 333q112 128 321 128zM945 968h165l-249 -309h-77z" />
    <glyph glyph-name="glyph279" unicode="&#x1af;" horiz-adv-x="1383" 
d="M18 1255h6q42 0 125 -2t125 -2q49 0 256 4v-51q-115 0 -144 -17q-46 -27 -46 -130v-570q0 -224 69 -322q83 -116 296 -116q120 0 206 48q99 56 123 165q10 47 10 158v616q0 124 -46 151q-29 17 -169 17v51h7q41 0 123.5 -2t123.5 -2q66 0 236 4v-51q-118 0 -143 -16
q-37 -23 -37 -131v-586q0 -141 -11 -203q-53 -297 -444 -297q-405 0 -464 296q-11 55 -11 222v568q0 103 -47 130q-30 17 -144 17v51zM1293 1326h165l-249 -309h-77z" />
    <glyph glyph-name="glyph280" unicode="&#x1b0;" horiz-adv-x="1178" 
d="M309 878v-528q0 -309 246 -309q270 0 270 330v340q0 82 -25 102q-21 16 -106 16v39q130 0 256 10v-720q0 -82 25 -101q20 -16 106 -18v-39q-147 0 -249 -10l-1 125q-112 -144 -317 -144q-187 0 -264 106q-64 89 -64 285v349q0 78 -23.5 98t-103.5 20v39q140 0 250 10z
M1033 968h165l-249 -309h-77z" />
    <glyph glyph-name="circumflex" unicode="&#x2c6;" horiz-adv-x="1024" 
d="M465 1356h94l223 -348h-47l-223 231l-223 -231h-47z" />
    <glyph glyph-name="caron" unicode="&#x2c7;" horiz-adv-x="1024" 
d="M242 1356h47l223 -232l223 232h47l-223 -348h-94z" />
    <glyph glyph-name="breve" unicode="&#x2d8;" horiz-adv-x="1024" 
d="M229 1313h45q32 -156 238 -156t236 156h47q-41 -264 -283 -264t-283 264z" />
    <glyph glyph-name="dotaccent" unicode="&#x2d9;" horiz-adv-x="1024" 
d="M512 1251q94 0 94 -90q0 -88 -94 -88t-94 88q0 90 94 90z" />
    <glyph glyph-name="ring" unicode="&#x2da;" horiz-adv-x="1024" 
d="M512 1374q-64 0 -108 -43.5t-44 -107.5q0 -65 43.5 -109.5t108.5 -44.5t109.5 44.5t44.5 109.5q0 63 -45.5 107t-108.5 44zM512 1454q99 0 166 -66t67 -165t-67 -167.5t-166 -68.5t-166 68.5t-67 167.5t67 165t166 66z" />
    <glyph glyph-name="ogonek" unicode="&#x2db;" horiz-adv-x="1024" 
d="M578 31h43q-187 -138 -187 -277q0 -119 107 -119q62 0 125 80l24 -16q-66 -139 -203 -139q-67 0 -110 42t-43 109q0 169 244 320z" />
    <glyph glyph-name="tilde" unicode="&#x2dc;" horiz-adv-x="1024" 
d="M754 1274h43q-37 -182 -174 -182q-42 0 -131.5 30.5t-122.5 30.5q-75 0 -99 -90h-43q34 184 170 184q45 0 132 -29.5t130 -29.5q74 0 95 86z" />
    <glyph glyph-name="hungarumlaut" unicode="&#x2dd;" horiz-adv-x="1024" 
d="M578 1008l141 295q30 63 67 63q54 0 54 -49q0 -21 -33 -64l-186 -245h-43zM352 1008l117 288q28 68 68 68q51 0 51 -49q0 -22 -27 -62l-166 -245h-43z" />
    <glyph glyph-name="Delta" unicode="&#x394;" horiz-adv-x="1081" 
d="M514 1247l-391 -1118h766zM532 1497h29l512 -1497h-1067z" />
    <glyph glyph-name="Delta" unicode="&#x2206;" horiz-adv-x="1081" 
d="M514 1247l-391 -1118h766zM532 1497h29l512 -1497h-1067z" />
    <glyph glyph-name="Omega" unicode="&#x3a9;" horiz-adv-x="1565" 
d="M1087 150v-25h316l74 219h59l-102 -344h-494q295 498 295 866q0 242 -101 391q-117 173 -348 173q-232 0 -349 -173q-101 -148 -101 -391q0 -365 297 -866h-496l-102 344h59l74 -219h315v25q-299 385 -299 729q0 273 165 445.5t437 172.5t438 -174q162 -170 162 -444
q0 -345 -299 -729z" />
    <glyph glyph-name="Omega" unicode="&#x2126;" horiz-adv-x="1565" 
d="M1087 150v-25h316l74 219h59l-102 -344h-494q295 498 295 866q0 242 -101 391q-117 173 -348 173q-232 0 -349 -173q-101 -148 -101 -391q0 -365 297 -866h-496l-102 344h59l74 -219h315v25q-299 385 -299 729q0 273 165 445.5t437 172.5t438 -174q162 -170 162 -444
q0 -345 -299 -729z" />
    <glyph glyph-name="pi" unicode="&#x3c0;" horiz-adv-x="1321" 
d="M1292 885l-28 -129h-320q-37 -187 -68 -493t-116 -306q-76 0 -76 78q0 50 80 292.5t125 428.5h-367q-36 -187 -67 -486q-33 -313 -117 -313q-76 0 -76 78q0 51 79 293q80 246 126 428h-127q-133 0 -175.5 -45t-74.5 -191h-63q30 177 95 259q82 106 245 106h925z" />
    <glyph glyph-name="glyph281" unicode="&#x1ea0;" horiz-adv-x="1376" 
d="M678 1147l-234 -612h478zM627 1255h127l450 -1097q31 -75 61 -92q25 -15 111 -15v-51h-12q-37 0 -110.5 2t-110.5 2q-100 0 -215 -4v51q7 0 22 -1t23 -1q100 0 100 51q0 29 -20 84l-101 279h-540l-109 -303q-14 -39 -14 -56q0 -41 59 -51q14 -2 90 -2v-51q-197 6 -413 0
v51q77 0 109 23t61 96zM698 -163q88 0 88 -84t-88 -84t-88 84t88 84z" />
    <glyph glyph-name="glyph282" unicode="&#x1ea1;" 
d="M553 459q-338 0 -338 -217q0 -203 231 -203q275 0 275 338v82h-168zM975 39v-39q-150 0 -254 -10v137q-87 -156 -311 -156q-142 0 -226 62q-94 70 -94 207q0 170 161 235q109 45 321 45q29 0 79 -1t70 -1v109q0 213 -266 213q-218 0 -226 -197h-43v217q165 35 289 35
q212 0 293 -90q76 -84 76 -299v-348q0 -80 26 -101q22 -18 105 -18zM497 -163q88 0 88 -84t-88 -84t-88 84t88 84z" />
    <glyph glyph-name="glyph283" unicode="&#x1ea2;" horiz-adv-x="1376" 
d="M678 1147l-234 -612h478zM627 1255h127l450 -1097q31 -75 61 -92q25 -15 111 -15v-51h-12q-37 0 -110.5 2t-110.5 2q-100 0 -215 -4v51q7 0 22 -1t23 -1q100 0 100 51q0 29 -20 84l-101 279h-540l-109 -303q-14 -39 -14 -56q0 -41 59 -51q14 -2 90 -2v-51q-197 6 -413 0
v51q77 0 109 23t61 96zM720 1365h-66v28q0 41 78 110t78 119q0 85 -103 85q-102 0 -102 -76v-35h-37v137q79 28 138 28q70 0 122 -30q65 -38 65 -110q0 -69 -86.5 -137.5t-86.5 -98.5v-20z" />
    <glyph glyph-name="glyph284" unicode="&#x1ea3;" 
d="M553 459q-338 0 -338 -217q0 -203 231 -203q275 0 275 338v82h-168zM975 39v-39q-150 0 -254 -10v137q-87 -156 -311 -156q-142 0 -226 62q-94 70 -94 207q0 170 161 235q109 45 321 45q29 0 79 -1t70 -1v109q0 213 -266 213q-218 0 -226 -197h-43v217q165 35 289 35
q212 0 293 -90q76 -84 76 -299v-348q0 -80 26 -101q22 -18 105 -18zM511 997h-66v28q0 41 78 110t78 119q0 85 -103 85q-102 0 -102 -76v-35h-37v137q79 28 138 28q70 0 122 -30q65 -38 65 -110q0 -69 -86.5 -137.5t-86.5 -98.5v-20z" />
    <glyph glyph-name="glyph285" unicode="&#x1ea4;" horiz-adv-x="1376" 
d="M678 1147l-234 -612h478zM627 1255h127l450 -1097q31 -75 61 -92q25 -15 111 -15v-51h-12q-37 0 -110.5 2t-110.5 2q-100 0 -215 -4v51q7 0 22 -1t23 -1q100 0 100 51q0 29 -20 84l-101 279h-540l-109 -303q-14 -39 -14 -56q0 -41 59 -51q14 -2 90 -2v-51q-197 6 -413 0
v51q77 0 109 23t61 96zM649 1685h94l223 -348h-47l-223 231l-223 -231h-47zM555 1715h-49l242 305q40 51 71 51q56 0 56 -53q0 -30 -47 -70z" />
    <glyph glyph-name="glyph286" unicode="&#x1ea5;" 
d="M553 459q-338 0 -338 -217q0 -203 231 -203q275 0 275 338v82h-168zM975 39v-39q-150 0 -254 -10v137q-87 -156 -311 -156q-142 0 -226 62q-94 70 -94 207q0 170 161 235q109 45 321 45q29 0 79 -1t70 -1v109q0 213 -266 213q-218 0 -226 -197h-43v217q165 35 289 35
q212 0 293 -90q76 -84 76 -299v-348q0 -80 26 -101q22 -18 105 -18zM449 1356h94l223 -348h-47l-223 231l-223 -231h-47zM355 1386h-49l242 305q40 51 71 51q56 0 56 -53q0 -30 -47 -70z" />
    <glyph glyph-name="glyph287" unicode="&#x1ea6;" horiz-adv-x="1376" 
d="M678 1147l-234 -612h478zM627 1255h127l450 -1097q31 -75 61 -92q25 -15 111 -15v-51h-12q-37 0 -110.5 2t-110.5 2q-100 0 -215 -4v51q7 0 22 -1t23 -1q100 0 100 51q0 29 -20 84l-101 279h-540l-109 -303q-14 -39 -14 -56q0 -41 59 -51q14 -2 90 -2v-51q-197 6 -413 0
v51q77 0 109 23t61 96zM649 1685h94l223 -348h-47l-223 231l-223 -231h-47zM888 1715h-49l-273 233q-47 40 -47 70q0 53 56 53q31 0 71 -51z" />
    <glyph glyph-name="glyph288" unicode="&#x1ea7;" 
d="M553 459q-338 0 -338 -217q0 -203 231 -203q275 0 275 338v82h-168zM975 39v-39q-150 0 -254 -10v137q-87 -156 -311 -156q-142 0 -226 62q-94 70 -94 207q0 170 161 235q109 45 321 45q29 0 79 -1t70 -1v109q0 213 -266 213q-218 0 -226 -197h-43v217q165 35 289 35
q212 0 293 -90q76 -84 76 -299v-348q0 -80 26 -101q22 -18 105 -18zM449 1356h94l223 -348h-47l-223 231l-223 -231h-47zM687 1386h-49l-273 233q-47 40 -47 70q0 53 56 53q31 0 71 -51z" />
    <glyph glyph-name="glyph289" unicode="&#x1ea8;" horiz-adv-x="1376" 
d="M678 1147l-234 -612h478zM627 1255h127l450 -1097q31 -75 61 -92q25 -15 111 -15v-51h-12q-37 0 -110.5 2t-110.5 2q-100 0 -215 -4v51q7 0 22 -1t23 -1q100 0 100 51q0 29 -20 84l-101 279h-540l-109 -303q-14 -39 -14 -56q0 -41 59 -51q14 -2 90 -2v-51q-197 6 -413 0
v51q77 0 109 23t61 96zM649 1685h94l223 -348h-47l-223 231l-223 -231h-47zM906 1650h-66v28q0 41 78 110t78 119q0 85 -103 85q-102 0 -102 -76v-35h-37v137q79 28 138 28q70 0 122 -30q65 -38 65 -110q0 -69 -86.5 -137.5t-86.5 -98.5v-20z" />
    <glyph glyph-name="glyph290" unicode="&#x1ea9;" 
d="M553 459q-338 0 -338 -217q0 -203 231 -203q275 0 275 338v82h-168zM975 39v-39q-150 0 -254 -10v137q-87 -156 -311 -156q-142 0 -226 62q-94 70 -94 207q0 170 161 235q109 45 321 45q29 0 79 -1t70 -1v109q0 213 -266 213q-218 0 -226 -197h-43v217q165 35 289 35
q212 0 293 -90q76 -84 76 -299v-348q0 -80 26 -101q22 -18 105 -18zM449 1356h94l223 -348h-47l-223 231l-223 -231h-47zM705 1321h-66v28q0 41 78 110t78 119q0 85 -103 85q-102 0 -102 -76v-35h-37v137q79 28 138 28q70 0 122 -30q65 -38 65 -110q0 -69 -86.5 -137.5
t-86.5 -98.5v-20z" />
    <glyph glyph-name="glyph291" unicode="&#x1eaa;" horiz-adv-x="1376" 
d="M678 1147l-234 -612h478zM627 1255h127l450 -1097q31 -75 61 -92q25 -15 111 -15v-51h-12q-37 0 -110.5 2t-110.5 2q-100 0 -215 -4v51q7 0 22 -1t23 -1q100 0 100 51q0 29 -20 84l-101 279h-540l-109 -303q-14 -39 -14 -56q0 -41 59 -51q14 -2 90 -2v-51q-197 6 -413 0
v51q77 0 109 23t61 96zM649 1685h94l223 -348h-47l-223 231l-223 -231h-47zM1026 1953h43q-37 -182 -174 -182q-42 0 -131.5 30.5t-122.5 30.5q-75 0 -99 -90h-43q34 184 170 184q45 0 132 -29.5t130 -29.5q74 0 95 86z" />
    <glyph glyph-name="glyph292" unicode="&#x1eab;" 
d="M553 459q-338 0 -338 -217q0 -203 231 -203q275 0 275 338v82h-168zM975 39v-39q-150 0 -254 -10v137q-87 -156 -311 -156q-142 0 -226 62q-94 70 -94 207q0 170 161 235q109 45 321 45q29 0 79 -1t70 -1v109q0 213 -266 213q-218 0 -226 -197h-43v217q165 35 289 35
q212 0 293 -90q76 -84 76 -299v-348q0 -80 26 -101q22 -18 105 -18zM449 1356h94l223 -348h-47l-223 231l-223 -231h-47zM826 1625h43q-37 -182 -174 -182q-42 0 -131.5 30.5t-122.5 30.5q-75 0 -99 -90h-43q34 184 170 184q45 0 132 -29.5t130 -29.5q74 0 95 86z" />
    <glyph glyph-name="glyph293" unicode="&#x1eac;" horiz-adv-x="1376" 
d="M678 1147l-234 -612h478zM627 1255h127l450 -1097q31 -75 61 -92q25 -15 111 -15v-51h-12q-37 0 -110.5 2t-110.5 2q-100 0 -215 -4v51q7 0 22 -1t23 -1q100 0 100 51q0 29 -20 84l-101 279h-540l-109 -303q-14 -39 -14 -56q0 -41 59 -51q14 -2 90 -2v-51q-197 6 -413 0
v51q77 0 109 23t61 96zM649 1685h94l223 -348h-47l-223 231l-223 -231h-47zM698 -163q88 0 88 -84t-88 -84t-88 84t88 84z" />
    <glyph glyph-name="glyph294" unicode="&#x1ead;" 
d="M553 459q-338 0 -338 -217q0 -203 231 -203q275 0 275 338v82h-168zM975 39v-39q-150 0 -254 -10v137q-87 -156 -311 -156q-142 0 -226 62q-94 70 -94 207q0 170 161 235q109 45 321 45q29 0 79 -1t70 -1v109q0 213 -266 213q-218 0 -226 -197h-43v217q165 35 289 35
q212 0 293 -90q76 -84 76 -299v-348q0 -80 26 -101q22 -18 105 -18zM449 1356h94l223 -348h-47l-223 231l-223 -231h-47zM497 -163q88 0 88 -84t-88 -84t-88 84t88 84z" />
    <glyph glyph-name="glyph295" unicode="&#x1eae;" horiz-adv-x="1376" 
d="M678 1147l-234 -612h478zM627 1255h127l450 -1097q31 -75 61 -92q25 -15 111 -15v-51h-12q-37 0 -110.5 2t-110.5 2q-100 0 -215 -4v51q7 0 22 -1t23 -1q100 0 100 51q0 29 -20 84l-101 279h-540l-109 -303q-14 -39 -14 -56q0 -41 59 -51q14 -2 90 -2v-51q-197 6 -413 0
v51q77 0 109 23t61 96zM413 1642h45q32 -156 238 -156t236 156h47q-41 -264 -283 -264t-283 264zM583 1715h-49l242 305q40 51 71 51q56 0 56 -53q0 -30 -47 -70z" />
    <glyph glyph-name="glyph296" unicode="&#x1eaf;" 
d="M553 459q-338 0 -338 -217q0 -203 231 -203q275 0 275 338v82h-168zM975 39v-39q-150 0 -254 -10v137q-87 -156 -311 -156q-142 0 -226 62q-94 70 -94 207q0 170 161 235q109 45 321 45q29 0 79 -1t70 -1v109q0 213 -266 213q-218 0 -226 -197h-43v217q165 35 289 35
q212 0 293 -90q76 -84 76 -299v-348q0 -80 26 -101q22 -18 105 -18zM214 1313h45q32 -156 238 -156t236 156h47q-41 -264 -283 -264t-283 264zM385 1386h-49l242 305q40 51 71 51q56 0 56 -53q0 -30 -47 -70z" />
    <glyph glyph-name="glyph297" unicode="&#x1eb0;" horiz-adv-x="1376" 
d="M678 1147l-234 -612h478zM627 1255h127l450 -1097q31 -75 61 -92q25 -15 111 -15v-51h-12q-37 0 -110.5 2t-110.5 2q-100 0 -215 -4v51q7 0 22 -1t23 -1q100 0 100 51q0 29 -20 84l-101 279h-540l-109 -303q-14 -39 -14 -56q0 -41 59 -51q14 -2 90 -2v-51q-197 6 -413 0
v51q77 0 109 23t61 96zM413 1642h45q32 -156 238 -156t236 156h47q-41 -264 -283 -264t-283 264zM865 1716h-49l-273 233q-47 40 -47 70q0 53 56 53q31 0 71 -51z" />
    <glyph glyph-name="glyph298" unicode="&#x1eb1;" 
d="M553 459q-338 0 -338 -217q0 -203 231 -203q275 0 275 338v82h-168zM975 39v-39q-150 0 -254 -10v137q-87 -156 -311 -156q-142 0 -226 62q-94 70 -94 207q0 170 161 235q109 45 321 45q29 0 79 -1t70 -1v109q0 213 -266 213q-218 0 -226 -197h-43v217q165 35 289 35
q212 0 293 -90q76 -84 76 -299v-348q0 -80 26 -101q22 -18 105 -18zM214 1313h45q32 -156 238 -156t236 156h47q-41 -264 -283 -264t-283 264zM667 1386h-49l-273 233q-47 40 -47 70q0 53 56 53q31 0 71 -51z" />
    <glyph glyph-name="glyph299" unicode="&#x1eb2;" horiz-adv-x="1376" 
d="M678 1147l-234 -612h478zM627 1255h127l450 -1097q31 -75 61 -92q25 -15 111 -15v-51h-12q-37 0 -110.5 2t-110.5 2q-100 0 -215 -4v51q7 0 22 -1t23 -1q100 0 100 51q0 29 -20 84l-101 279h-540l-109 -303q-14 -39 -14 -56q0 -41 59 -51q14 -2 90 -2v-51q-197 6 -413 0
v51q77 0 109 23t61 96zM413 1642h45q32 -156 238 -156t236 156h47q-41 -264 -283 -264t-283 264zM709 1651h-66v28q0 41 78 110t78 119q0 85 -103 85q-102 0 -102 -76v-35h-37v137q79 28 138 28q70 0 122 -30q65 -38 65 -110q0 -69 -86.5 -137.5t-86.5 -98.5v-20z" />
    <glyph glyph-name="glyph300" unicode="&#x1eb3;" 
d="M553 459q-338 0 -338 -217q0 -203 231 -203q275 0 275 338v82h-168zM975 39v-39q-150 0 -254 -10v137q-87 -156 -311 -156q-142 0 -226 62q-94 70 -94 207q0 170 161 235q109 45 321 45q29 0 79 -1t70 -1v109q0 213 -266 213q-218 0 -226 -197h-43v217q165 35 289 35
q212 0 293 -90q76 -84 76 -299v-348q0 -80 26 -101q22 -18 105 -18zM214 1313h45q32 -156 238 -156t236 156h47q-41 -264 -283 -264t-283 264zM511 1321h-66v28q0 41 78 110t78 119q0 85 -103 85q-102 0 -102 -76v-35h-37v137q79 28 138 28q70 0 122 -30q65 -38 65 -110
q0 -69 -86.5 -137.5t-86.5 -98.5v-20z" />
    <glyph glyph-name="glyph301" unicode="&#x1eb4;" horiz-adv-x="1376" 
d="M678 1147l-234 -612h478zM627 1255h127l450 -1097q31 -75 61 -92q25 -15 111 -15v-51h-12q-37 0 -110.5 2t-110.5 2q-100 0 -215 -4v51q7 0 22 -1t23 -1q100 0 100 51q0 29 -20 84l-101 279h-540l-109 -303q-14 -39 -14 -56q0 -41 59 -51q14 -2 90 -2v-51q-197 6 -413 0
v51q77 0 109 23t61 96zM413 1642h45q32 -156 238 -156t236 156h47q-41 -264 -283 -264t-283 264zM1004 1954h43q-37 -182 -174 -182q-42 0 -131.5 30.5t-122.5 30.5q-75 0 -99 -90h-43q34 184 170 184q45 0 132 -29.5t130 -29.5q74 0 95 86z" />
    <glyph glyph-name="glyph302" unicode="&#x1eb5;" 
d="M553 459q-338 0 -338 -217q0 -203 231 -203q275 0 275 338v82h-168zM975 39v-39q-150 0 -254 -10v137q-87 -156 -311 -156q-142 0 -226 62q-94 70 -94 207q0 170 161 235q109 45 321 45q29 0 79 -1t70 -1v109q0 213 -266 213q-218 0 -226 -197h-43v217q165 35 289 35
q212 0 293 -90q76 -84 76 -299v-348q0 -80 26 -101q22 -18 105 -18zM214 1313h45q32 -156 238 -156t236 156h47q-41 -264 -283 -264t-283 264zM806 1625h43q-37 -182 -174 -182q-42 0 -131.5 30.5t-122.5 30.5q-75 0 -99 -90h-43q34 184 170 184q45 0 132 -29.5t130 -29.5
q74 0 95 86z" />
    <glyph glyph-name="glyph303" unicode="&#x1eb6;" horiz-adv-x="1376" 
d="M678 1147l-234 -612h478zM627 1255h127l450 -1097q31 -75 61 -92q25 -15 111 -15v-51h-12q-37 0 -110.5 2t-110.5 2q-100 0 -215 -4v51q7 0 22 -1t23 -1q100 0 100 51q0 29 -20 84l-101 279h-540l-109 -303q-14 -39 -14 -56q0 -41 59 -51q14 -2 90 -2v-51q-197 6 -413 0
v51q77 0 109 23t61 96zM413 1642h45q32 -156 238 -156t236 156h47q-41 -264 -283 -264t-283 264zM698 -163q88 0 88 -84t-88 -84t-88 84t88 84z" />
    <glyph glyph-name="glyph304" unicode="&#x1eb7;" 
d="M553 459q-338 0 -338 -217q0 -203 231 -203q275 0 275 338v82h-168zM975 39v-39q-150 0 -254 -10v137q-87 -156 -311 -156q-142 0 -226 62q-94 70 -94 207q0 170 161 235q109 45 321 45q29 0 79 -1t70 -1v109q0 213 -266 213q-218 0 -226 -197h-43v217q165 35 289 35
q212 0 293 -90q76 -84 76 -299v-348q0 -80 26 -101q22 -18 105 -18zM214 1313h45q32 -156 238 -156t236 156h47q-41 -264 -283 -264t-283 264zM497 -163q88 0 88 -84t-88 -84t-88 84t88 84z" />
    <glyph glyph-name="glyph305" unicode="&#x1eb8;" horiz-adv-x="1143" 
d="M74 1251h977v-299l-78 1q-1 59 -4 97q-7 72 -22 92q-25 32 -165 32h-387v-496h162q108 0 138 5q17 2 46 15q25 22 30 156h58v-426h-57q0 121 -32 152.5t-181 31.5h-164v-534h406q120 0 148 39t30 223h76v-340h-1010v51q135 0 162 12q55 24 55 136v858q0 104 -44 130
q-29 17 -144 17v47zM598 -163q88 0 88 -84t-88 -84t-88 84t88 84z" />
    <glyph glyph-name="glyph306" unicode="&#x1eb9;" horiz-adv-x="1020" 
d="M926 403h-705q10 -364 320 -364q243 0 284 199h84q-56 -267 -393 -267q-213 0 -324 127q-104 119 -104 336q0 212 107 333q112 128 321 128q410 0 410 -453v-39zM809 469v6q0 359 -293 359q-277 0 -299 -365h592zM520 -163q88 0 88 -84t-88 -84t-88 84t88 84z" />
    <glyph glyph-name="glyph307" unicode="&#x1eba;" horiz-adv-x="1143" 
d="M74 1251h977v-299l-78 1q-1 59 -4 97q-7 72 -22 92q-25 32 -165 32h-387v-496h162q108 0 138 5q17 2 46 15q25 22 30 156h58v-426h-57q0 121 -32 152.5t-181 31.5h-164v-534h406q120 0 148 39t30 223h76v-340h-1010v51q135 0 162 12q55 24 55 136v858q0 104 -44 130
q-29 17 -144 17v47zM610 1365h-66v28q0 41 78 110t78 119q0 85 -103 85q-102 0 -102 -76v-35h-37v137q79 28 138 28q70 0 122 -30q65 -38 65 -110q0 -69 -86.5 -137.5t-86.5 -98.5v-20z" />
    <glyph glyph-name="glyph308" unicode="&#x1ebb;" horiz-adv-x="1020" 
d="M926 403h-705q10 -364 320 -364q243 0 284 199h84q-56 -267 -393 -267q-213 0 -324 127q-104 119 -104 336q0 212 107 333q112 128 321 128q410 0 410 -453v-39zM809 469v6q0 359 -293 359q-277 0 -299 -365h592zM547 997h-66v28q0 41 78 110t78 119q0 85 -103 85
q-102 0 -102 -76v-35h-37v137q79 28 138 28q70 0 122 -30q65 -38 65 -110q0 -69 -86.5 -137.5t-86.5 -98.5v-20z" />
    <glyph glyph-name="glyph309" unicode="&#x1ebc;" horiz-adv-x="1143" 
d="M74 1251h977v-299l-78 1q-1 59 -4 97q-7 72 -22 92q-25 32 -165 32h-387v-496h162q108 0 138 5q17 2 46 15q25 22 30 156h58v-426h-57q0 121 -32 152.5t-181 31.5h-164v-534h406q120 0 148 39t30 223h76v-340h-1010v51q135 0 162 12q55 24 55 136v858q0 104 -44 130
q-29 17 -144 17v47zM849 1663h43q-37 -182 -174 -182q-42 0 -131.5 30.5t-122.5 30.5q-75 0 -99 -90h-43q34 184 170 184q45 0 132 -29.5t130 -29.5q74 0 95 86z" />
    <glyph glyph-name="glyph310" unicode="&#x1ebd;" horiz-adv-x="1020" 
d="M926 403h-705q10 -364 320 -364q243 0 284 199h84q-56 -267 -393 -267q-213 0 -324 127q-104 119 -104 336q0 212 107 333q112 128 321 128q410 0 410 -453v-39zM809 469v6q0 359 -293 359q-277 0 -299 -365h592zM770 1274h43q-37 -182 -174 -182q-42 0 -131.5 30.5
t-122.5 30.5q-75 0 -99 -90h-43q34 184 170 184q45 0 132 -29.5t130 -29.5q74 0 95 86z" />
    <glyph glyph-name="glyph311" unicode="&#x1ebe;" horiz-adv-x="1143" 
d="M74 1251h977v-299l-78 1q-1 59 -4 97q-7 72 -22 92q-25 32 -165 32h-387v-496h162q108 0 138 5q17 2 46 15q25 22 30 156h58v-426h-57q0 121 -32 152.5t-181 31.5h-164v-534h406q120 0 148 39t30 223h76v-340h-1010v51q135 0 162 12q55 24 55 136v858q0 104 -44 130
q-29 17 -144 17v47zM549 1685h94l223 -348h-47l-223 231l-223 -231h-47zM455 1715h-49l242 305q40 51 71 51q56 0 56 -53q0 -30 -47 -70z" />
    <glyph glyph-name="glyph312" unicode="&#x1ebf;" horiz-adv-x="1020" 
d="M926 403h-705q10 -364 320 -364q243 0 284 199h84q-56 -267 -393 -267q-213 0 -324 127q-104 119 -104 336q0 212 107 333q112 128 321 128q410 0 410 -453v-39zM809 469v6q0 359 -293 359q-277 0 -299 -365h592zM477 1356h94l223 -348h-47l-223 231l-223 -231h-47z
M383 1386h-49l242 305q40 51 71 51q56 0 56 -53q0 -30 -47 -70z" />
    <glyph glyph-name="glyph313" unicode="&#x1ec0;" horiz-adv-x="1143" 
d="M74 1251h977v-299l-78 1q-1 59 -4 97q-7 72 -22 92q-25 32 -165 32h-387v-496h162q108 0 138 5q17 2 46 15q25 22 30 156h58v-426h-57q0 121 -32 152.5t-181 31.5h-164v-534h406q120 0 148 39t30 223h76v-340h-1010v51q135 0 162 12q55 24 55 136v858q0 104 -44 130
q-29 17 -144 17v47zM549 1685h94l223 -348h-47l-223 231l-223 -231h-47zM788 1715h-49l-273 233q-47 40 -47 70q0 53 56 53q31 0 71 -51z" />
    <glyph glyph-name="glyph314" unicode="&#x1ec1;" horiz-adv-x="1020" 
d="M926 403h-705q10 -364 320 -364q243 0 284 199h84q-56 -267 -393 -267q-213 0 -324 127q-104 119 -104 336q0 212 107 333q112 128 321 128q410 0 410 -453v-39zM809 469v6q0 359 -293 359q-277 0 -299 -365h592zM477 1356h94l223 -348h-47l-223 231l-223 -231h-47z
M715 1386h-49l-273 233q-47 40 -47 70q0 53 56 53q31 0 71 -51z" />
    <glyph glyph-name="glyph315" unicode="&#x1ec2;" horiz-adv-x="1143" 
d="M74 1251h977v-299l-78 1q-1 59 -4 97q-7 72 -22 92q-25 32 -165 32h-387v-496h162q108 0 138 5q17 2 46 15q25 22 30 156h58v-426h-57q0 121 -32 152.5t-181 31.5h-164v-534h406q120 0 148 39t30 223h76v-340h-1010v51q135 0 162 12q55 24 55 136v858q0 104 -44 130
q-29 17 -144 17v47zM549 1685h94l223 -348h-47l-223 231l-223 -231h-47zM806 1650h-66v28q0 41 78 110t78 119q0 85 -103 85q-102 0 -102 -76v-35h-37v137q79 28 138 28q70 0 122 -30q65 -38 65 -110q0 -69 -86.5 -137.5t-86.5 -98.5v-20z" />
    <glyph glyph-name="glyph316" unicode="&#x1ec3;" horiz-adv-x="1020" 
d="M926 403h-705q10 -364 320 -364q243 0 284 199h84q-56 -267 -393 -267q-213 0 -324 127q-104 119 -104 336q0 212 107 333q112 128 321 128q410 0 410 -453v-39zM809 469v6q0 359 -293 359q-277 0 -299 -365h592zM477 1356h94l223 -348h-47l-223 231l-223 -231h-47z
M733 1321h-66v28q0 41 78 110t78 119q0 85 -103 85q-102 0 -102 -76v-35h-37v137q79 28 138 28q70 0 122 -30q65 -38 65 -110q0 -69 -86.5 -137.5t-86.5 -98.5v-20z" />
    <glyph glyph-name="glyph317" unicode="&#x1ec4;" horiz-adv-x="1143" 
d="M74 1251h977v-299l-78 1q-1 59 -4 97q-7 72 -22 92q-25 32 -165 32h-387v-496h162q108 0 138 5q17 2 46 15q25 22 30 156h58v-426h-57q0 121 -32 152.5t-181 31.5h-164v-534h406q120 0 148 39t30 223h76v-340h-1010v51q135 0 162 12q55 24 55 136v858q0 104 -44 130
q-29 17 -144 17v47zM549 1685h94l223 -348h-47l-223 231l-223 -231h-47zM926 1953h43q-37 -182 -174 -182q-42 0 -131.5 30.5t-122.5 30.5q-75 0 -99 -90h-43q34 184 170 184q45 0 132 -29.5t130 -29.5q74 0 95 86z" />
    <glyph glyph-name="glyph318" unicode="&#x1ec5;" horiz-adv-x="1020" 
d="M926 403h-705q10 -364 320 -364q243 0 284 199h84q-56 -267 -393 -267q-213 0 -324 127q-104 119 -104 336q0 212 107 333q112 128 321 128q410 0 410 -453v-39zM809 469v6q0 359 -293 359q-277 0 -299 -365h592zM477 1356h94l223 -348h-47l-223 231l-223 -231h-47z
M854 1625h43q-37 -182 -174 -182q-42 0 -131.5 30.5t-122.5 30.5q-75 0 -99 -90h-43q34 184 170 184q45 0 132 -29.5t130 -29.5q74 0 95 86z" />
    <glyph glyph-name="glyph319" unicode="&#x1ec6;" horiz-adv-x="1143" 
d="M74 1251h977v-299l-78 1q-1 59 -4 97q-7 72 -22 92q-25 32 -165 32h-387v-496h162q108 0 138 5q17 2 46 15q25 22 30 156h58v-426h-57q0 121 -32 152.5t-181 31.5h-164v-534h406q120 0 148 39t30 223h76v-340h-1010v51q135 0 162 12q55 24 55 136v858q0 104 -44 130
q-29 17 -144 17v47zM549 1685h94l223 -348h-47l-223 231l-223 -231h-47zM598 -163q88 0 88 -84t-88 -84t-88 84t88 84z" />
    <glyph glyph-name="glyph320" unicode="&#x1ec7;" horiz-adv-x="1020" 
d="M926 403h-705q10 -364 320 -364q243 0 284 199h84q-56 -267 -393 -267q-213 0 -324 127q-104 119 -104 336q0 212 107 333q112 128 321 128q410 0 410 -453v-39zM809 469v6q0 359 -293 359q-277 0 -299 -365h592zM477 1356h94l223 -348h-47l-223 231l-223 -231h-47z
M520 -163q88 0 88 -84t-88 -84t-88 84t88 84z" />
    <glyph glyph-name="glyph321" unicode="&#x1ec8;" horiz-adv-x="666" 
d="M78 1255h6q42 0 125 -2t125 -2q49 0 256 4v-51q-114 0 -144 -18q-47 -26 -47 -129v-858q0 -103 46 -130q31 -18 145 -18v-51q-89 4 -233 4h-67q-123 0 -212 -4v51q113 0 143 18q45 27 45 130v858q0 102 -45 129q-30 18 -143 18v51zM340 1365h-66v28q0 41 78 110t78 119
q0 85 -103 85q-102 0 -102 -76v-35h-37v137q79 28 138 28q70 0 122 -30q65 -38 65 -110q0 -69 -86.5 -137.5t-86.5 -98.5v-20z" />
    <glyph glyph-name="glyph322" unicode="&#x1ec9;" horiz-adv-x="545" 
d="M332 878v-692q0 -95 39 -122q29 -21 123 -21v-43q-76 4 -199 4h-48q-109 0 -181 -4v43q87 0 115 28t28 115v525q0 81 -26 101q-21 16 -107 18v38q130 0 256 10zM271 997h-66v28q0 41 78 110t78 119q0 85 -103 85q-102 0 -102 -76v-35h-37v137q79 28 138 28q70 0 122 -30
q65 -38 65 -110q0 -69 -86.5 -137.5t-86.5 -98.5v-20z" />
    <glyph glyph-name="glyph323" unicode="&#x1eca;" horiz-adv-x="666" 
d="M78 1255h6q42 0 125 -2t125 -2q49 0 256 4v-51q-114 0 -144 -18q-47 -26 -47 -129v-858q0 -103 46 -130q31 -18 145 -18v-51q-89 4 -233 4h-67q-123 0 -212 -4v51q113 0 143 18q45 27 45 130v858q0 102 -45 129q-30 18 -143 18v51zM335 -163q88 0 88 -84t-88 -84t-88 84
t88 84z" />
    <glyph glyph-name="glyph324" unicode="&#x1ecb;" horiz-adv-x="545" 
d="M340 878v-692q0 -95 37 -122q29 -21 123 -21v-43q-76 4 -196 4h-49q-108 0 -181 -4v43q87 0 115 28t28 115v525q0 81 -27 101q-20 16 -106 18v38q130 0 256 10zM260 1284q49 0 68.5 -17t19.5 -65q0 -84 -88 -84t-88 84q0 82 88 82zM278 -163q88 0 88 -84t-88 -84t-88 84
t88 84z" />
    <glyph glyph-name="glyph325" unicode="&#x1ecc;" horiz-adv-x="1432" 
d="M717 1219q-240 0 -354 -183q-93 -149 -93 -405t93 -405q114 -183 354 -183q444 0 444 588q0 256 -92 405q-112 183 -352 183zM717 1286q295 0 451 -185q145 -172 145 -472q0 -301 -145 -473q-156 -185 -451 -185q-296 0 -452 184q-146 172 -146 474q0 301 146 473
q157 184 452 184zM718 -163q88 0 88 -84t-88 -84t-88 84t88 84z" />
    <glyph glyph-name="glyph326" unicode="&#x1ecd;" horiz-adv-x="1034" 
d="M516 831q-295 0 -295 -397q0 -395 295 -395q158 0 235 124q62 102 62 271q0 397 -297 397zM516 895q210 0 323 -127q107 -121 107 -334q0 -212 -107 -334q-114 -129 -323 -129t-322 129q-106 122 -106 334t107 333q112 128 321 128zM515 -163q88 0 88 -84t-88 -84t-88 84
t88 84z" />
    <glyph glyph-name="glyph327" unicode="&#x1ece;" horiz-adv-x="1432" 
d="M717 1219q-240 0 -354 -183q-93 -149 -93 -405t93 -405q114 -183 354 -183q444 0 444 588q0 256 -92 405q-112 183 -352 183zM717 1286q295 0 451 -185q145 -172 145 -472q0 -301 -145 -473q-156 -185 -451 -185q-296 0 -452 184q-146 172 -146 474q0 301 146 473
q157 184 452 184zM740 1365h-66v28q0 41 78 110t78 119q0 85 -103 85q-102 0 -102 -76v-35h-37v137q79 28 138 28q70 0 122 -30q65 -38 65 -110q0 -69 -86.5 -137.5t-86.5 -98.5v-20z" />
    <glyph glyph-name="glyph328" unicode="&#x1ecf;" horiz-adv-x="1034" 
d="M516 831q-295 0 -295 -397q0 -395 295 -395q158 0 235 124q62 102 62 271q0 397 -297 397zM516 895q210 0 323 -127q107 -121 107 -334q0 -212 -107 -334q-114 -129 -323 -129t-322 129q-106 122 -106 334t107 333q112 128 321 128zM531 997h-66v28q0 41 78 110t78 119
q0 85 -103 85q-102 0 -102 -76v-35h-37v137q79 28 138 28q70 0 122 -30q65 -38 65 -110q0 -69 -86.5 -137.5t-86.5 -98.5v-20z" />
    <glyph glyph-name="glyph329" unicode="&#x1ed0;" horiz-adv-x="1432" 
d="M717 1219q-240 0 -354 -183q-93 -149 -93 -405t93 -405q114 -183 354 -183q444 0 444 588q0 256 -92 405q-112 183 -352 183zM717 1286q295 0 451 -185q145 -172 145 -472q0 -301 -145 -473q-156 -185 -451 -185q-296 0 -452 184q-146 172 -146 474q0 301 146 473
q157 184 452 184zM669 1685h94l223 -348h-47l-223 231l-223 -231h-47zM575 1715h-49l242 305q40 51 71 51q56 0 56 -53q0 -30 -47 -70z" />
    <glyph glyph-name="glyph330" unicode="&#x1ed1;" horiz-adv-x="1034" 
d="M516 831q-295 0 -295 -397q0 -395 295 -395q158 0 235 124q62 102 62 271q0 397 -297 397zM516 895q210 0 323 -127q107 -121 107 -334q0 -212 -107 -334q-114 -129 -323 -129t-322 129q-106 122 -106 334t107 333q112 128 321 128zM471 1356h94l223 -348h-47l-223 231
l-223 -231h-47zM377 1386h-49l242 305q40 51 71 51q56 0 56 -53q0 -30 -47 -70z" />
    <glyph glyph-name="glyph331" unicode="&#x1ed2;" horiz-adv-x="1432" 
d="M717 1219q-240 0 -354 -183q-93 -149 -93 -405t93 -405q114 -183 354 -183q444 0 444 588q0 256 -92 405q-112 183 -352 183zM717 1286q295 0 451 -185q145 -172 145 -472q0 -301 -145 -473q-156 -185 -451 -185q-296 0 -452 184q-146 172 -146 474q0 301 146 473
q157 184 452 184zM669 1685h94l223 -348h-47l-223 231l-223 -231h-47zM908 1715h-49l-273 233q-47 40 -47 70q0 53 56 53q31 0 71 -51z" />
    <glyph glyph-name="glyph332" unicode="&#x1ed3;" horiz-adv-x="1034" 
d="M516 831q-295 0 -295 -397q0 -395 295 -395q158 0 235 124q62 102 62 271q0 397 -297 397zM516 895q210 0 323 -127q107 -121 107 -334q0 -212 -107 -334q-114 -129 -323 -129t-322 129q-106 122 -106 334t107 333q112 128 321 128zM471 1356h94l223 -348h-47l-223 231
l-223 -231h-47zM709 1386h-49l-273 233q-47 40 -47 70q0 53 56 53q31 0 71 -51z" />
    <glyph glyph-name="glyph333" unicode="&#x1ed4;" horiz-adv-x="1432" 
d="M717 1219q-240 0 -354 -183q-93 -149 -93 -405t93 -405q114 -183 354 -183q444 0 444 588q0 256 -92 405q-112 183 -352 183zM717 1286q295 0 451 -185q145 -172 145 -472q0 -301 -145 -473q-156 -185 -451 -185q-296 0 -452 184q-146 172 -146 474q0 301 146 473
q157 184 452 184zM669 1685h94l223 -348h-47l-223 231l-223 -231h-47zM926 1650h-66v28q0 41 78 110t78 119q0 85 -103 85q-102 0 -102 -76v-35h-37v137q79 28 138 28q70 0 122 -30q65 -38 65 -110q0 -69 -86.5 -137.5t-86.5 -98.5v-20z" />
    <glyph glyph-name="glyph334" unicode="&#x1ed5;" horiz-adv-x="1034" 
d="M516 831q-295 0 -295 -397q0 -395 295 -395q158 0 235 124q62 102 62 271q0 397 -297 397zM516 895q210 0 323 -127q107 -121 107 -334q0 -212 -107 -334q-114 -129 -323 -129t-322 129q-106 122 -106 334t107 333q112 128 321 128zM471 1356h94l223 -348h-47l-223 231
l-223 -231h-47zM727 1321h-66v28q0 41 78 110t78 119q0 85 -103 85q-102 0 -102 -76v-35h-37v137q79 28 138 28q70 0 122 -30q65 -38 65 -110q0 -69 -86.5 -137.5t-86.5 -98.5v-20z" />
    <glyph glyph-name="glyph335" unicode="&#x1ed6;" horiz-adv-x="1432" 
d="M717 1219q-240 0 -354 -183q-93 -149 -93 -405t93 -405q114 -183 354 -183q444 0 444 588q0 256 -92 405q-112 183 -352 183zM717 1286q295 0 451 -185q145 -172 145 -472q0 -301 -145 -473q-156 -185 -451 -185q-296 0 -452 184q-146 172 -146 474q0 301 146 473
q157 184 452 184zM669 1685h94l223 -348h-47l-223 231l-223 -231h-47zM1046 1953h43q-37 -182 -174 -182q-42 0 -131.5 30.5t-122.5 30.5q-75 0 -99 -90h-43q34 184 170 184q45 0 132 -29.5t130 -29.5q74 0 95 86z" />
    <glyph glyph-name="glyph336" unicode="&#x1ed7;" horiz-adv-x="1034" 
d="M516 831q-295 0 -295 -397q0 -395 295 -395q158 0 235 124q62 102 62 271q0 397 -297 397zM516 895q210 0 323 -127q107 -121 107 -334q0 -212 -107 -334q-114 -129 -323 -129t-322 129q-106 122 -106 334t107 333q112 128 321 128zM471 1356h94l223 -348h-47l-223 231
l-223 -231h-47zM848 1625h43q-37 -182 -174 -182q-42 0 -131.5 30.5t-122.5 30.5q-75 0 -99 -90h-43q34 184 170 184q45 0 132 -29.5t130 -29.5q74 0 95 86z" />
    <glyph glyph-name="glyph337" unicode="&#x1ed8;" horiz-adv-x="1432" 
d="M717 1219q-240 0 -354 -183q-93 -149 -93 -405t93 -405q114 -183 354 -183q444 0 444 588q0 256 -92 405q-112 183 -352 183zM717 1286q295 0 451 -185q145 -172 145 -472q0 -301 -145 -473q-156 -185 -451 -185q-296 0 -452 184q-146 172 -146 474q0 301 146 473
q157 184 452 184zM669 1685h94l223 -348h-47l-223 231l-223 -231h-47zM718 -163q88 0 88 -84t-88 -84t-88 84t88 84z" />
    <glyph glyph-name="glyph338" unicode="&#x1ed9;" horiz-adv-x="1034" 
d="M516 831q-295 0 -295 -397q0 -395 295 -395q158 0 235 124q62 102 62 271q0 397 -297 397zM516 895q210 0 323 -127q107 -121 107 -334q0 -212 -107 -334q-114 -129 -323 -129t-322 129q-106 122 -106 334t107 333q112 128 321 128zM471 1356h94l223 -348h-47l-223 231
l-223 -231h-47zM515 -163q88 0 88 -84t-88 -84t-88 84t88 84z" />
    <glyph glyph-name="glyph339" unicode="&#x1eda;" horiz-adv-x="1432" 
d="M717 1219q-240 0 -354 -183q-93 -149 -93 -405t93 -405q114 -183 354 -183q444 0 444 588q0 256 -92 405q-112 183 -352 183zM717 1286q295 0 451 -185q145 -172 145 -472q0 -301 -145 -473q-156 -185 -451 -185q-296 0 -452 184q-146 172 -146 474q0 301 146 473
q157 184 452 184zM1253 1326h165l-249 -309h-77zM641 1397h-49l242 305q40 51 71 51q56 0 56 -53q0 -30 -47 -70z" />
    <glyph glyph-name="glyph340" unicode="&#x1edb;" horiz-adv-x="1034" 
d="M516 831q-295 0 -295 -397q0 -395 295 -395q158 0 235 124q62 102 62 271q0 397 -297 397zM516 895q210 0 323 -127q107 -121 107 -334q0 -212 -107 -334q-114 -129 -323 -129t-322 129q-106 122 -106 334t107 333q112 128 321 128zM945 968h165l-249 -309h-77zM442 1008
h-49l242 305q40 51 71 51q56 0 56 -53q0 -30 -47 -70z" />
    <glyph glyph-name="glyph341" unicode="&#x1edc;" horiz-adv-x="1432" 
d="M717 1219q-240 0 -354 -183q-93 -149 -93 -405t93 -405q114 -183 354 -183q444 0 444 588q0 256 -92 405q-112 183 -352 183zM717 1286q295 0 451 -185q145 -172 145 -472q0 -301 -145 -473q-156 -185 -451 -185q-296 0 -452 184q-146 172 -146 474q0 301 146 473
q157 184 452 184zM1253 1326h165l-249 -309h-77zM842 1397h-49l-273 233q-47 40 -47 70q0 53 56 53q31 0 71 -51z" />
    <glyph glyph-name="glyph342" unicode="&#x1edd;" horiz-adv-x="1034" 
d="M516 831q-295 0 -295 -397q0 -395 295 -395q158 0 235 124q62 102 62 271q0 397 -297 397zM516 895q210 0 323 -127q107 -121 107 -334q0 -212 -107 -334q-114 -129 -323 -129t-322 129q-106 122 -106 334t107 333q112 128 321 128zM945 968h165l-249 -309h-77zM643 1008
h-49l-273 233q-47 40 -47 70q0 53 56 53q31 0 71 -51z" />
    <glyph glyph-name="glyph343" unicode="&#x1ede;" horiz-adv-x="1432" 
d="M717 1219q-240 0 -354 -183q-93 -149 -93 -405t93 -405q114 -183 354 -183q444 0 444 588q0 256 -92 405q-112 183 -352 183zM717 1286q295 0 451 -185q145 -172 145 -472q0 -301 -145 -473q-156 -185 -451 -185q-296 0 -452 184q-146 172 -146 474q0 301 146 473
q157 184 452 184zM1253 1326h165l-249 -309h-77zM740 1365h-66v28q0 41 78 110t78 119q0 85 -103 85q-102 0 -102 -76v-35h-37v137q79 28 138 28q70 0 122 -30q65 -38 65 -110q0 -69 -86.5 -137.5t-86.5 -98.5v-20z" />
    <glyph glyph-name="glyph344" unicode="&#x1edf;" horiz-adv-x="1034" 
d="M516 831q-295 0 -295 -397q0 -395 295 -395q158 0 235 124q62 102 62 271q0 397 -297 397zM516 895q210 0 323 -127q107 -121 107 -334q0 -212 -107 -334q-114 -129 -323 -129t-322 129q-106 122 -106 334t107 333q112 128 321 128zM945 968h165l-249 -309h-77zM531 997
h-66v28q0 41 78 110t78 119q0 85 -103 85q-102 0 -102 -76v-35h-37v137q79 28 138 28q70 0 122 -30q65 -38 65 -110q0 -69 -86.5 -137.5t-86.5 -98.5v-20z" />
    <glyph glyph-name="glyph345" unicode="&#x1ee0;" horiz-adv-x="1432" 
d="M717 1219q-240 0 -354 -183q-93 -149 -93 -405t93 -405q114 -183 354 -183q444 0 444 588q0 256 -92 405q-112 183 -352 183zM717 1286q295 0 451 -185q145 -172 145 -472q0 -301 -145 -473q-156 -185 -451 -185q-296 0 -452 184q-146 172 -146 474q0 301 146 473
q157 184 452 184zM1253 1326h165l-249 -309h-77zM959 1663h43q-37 -182 -174 -182q-42 0 -131.5 30.5t-122.5 30.5q-75 0 -99 -90h-43q34 184 170 184q45 0 132 -29.5t130 -29.5q74 0 95 86z" />
    <glyph glyph-name="glyph346" unicode="&#x1ee1;" horiz-adv-x="1034" 
d="M516 831q-295 0 -295 -397q0 -395 295 -395q158 0 235 124q62 102 62 271q0 397 -297 397zM516 895q210 0 323 -127q107 -121 107 -334q0 -212 -107 -334q-114 -129 -323 -129t-322 129q-106 122 -106 334t107 333q112 128 321 128zM945 968h165l-249 -309h-77zM760 1274
h43q-37 -182 -174 -182q-42 0 -131.5 30.5t-122.5 30.5q-75 0 -99 -90h-43q34 184 170 184q45 0 132 -29.5t130 -29.5q74 0 95 86z" />
    <glyph glyph-name="glyph347" unicode="&#x1ee2;" horiz-adv-x="1432" 
d="M717 1219q-240 0 -354 -183q-93 -149 -93 -405t93 -405q114 -183 354 -183q444 0 444 588q0 256 -92 405q-112 183 -352 183zM717 1286q295 0 451 -185q145 -172 145 -472q0 -301 -145 -473q-156 -185 -451 -185q-296 0 -452 184q-146 172 -146 474q0 301 146 473
q157 184 452 184zM1253 1326h165l-249 -309h-77zM718 -163q88 0 88 -84t-88 -84t-88 84t88 84z" />
    <glyph glyph-name="glyph348" unicode="&#x1ee3;" horiz-adv-x="1034" 
d="M516 831q-295 0 -295 -397q0 -395 295 -395q158 0 235 124q62 102 62 271q0 397 -297 397zM516 895q210 0 323 -127q107 -121 107 -334q0 -212 -107 -334q-114 -129 -323 -129t-322 129q-106 122 -106 334t107 333q112 128 321 128zM945 968h165l-249 -309h-77zM515 -163
q88 0 88 -84t-88 -84t-88 84t88 84z" />
    <glyph glyph-name="glyph349" unicode="&#x1ee4;" horiz-adv-x="1337" 
d="M18 1255h6q42 0 125 -2t125 -2q49 0 256 4v-51q-115 0 -144 -17q-46 -27 -46 -130v-570q0 -224 69 -322q83 -116 296 -116q120 0 206 48q99 56 123 165q10 47 10 158v616q0 124 -46 151q-29 17 -169 17v51h7q41 0 123.5 -2t123.5 -2q66 0 236 4v-51q-118 0 -143 -16
q-37 -23 -37 -131v-586q0 -141 -11 -203q-53 -297 -444 -297q-405 0 -464 296q-11 55 -11 222v568q0 103 -47 130q-30 17 -144 17v51zM692 -163q88 0 88 -84t-88 -84t-88 84t88 84z" />
    <glyph glyph-name="glyph350" unicode="&#x1ee5;" horiz-adv-x="1145" 
d="M309 878v-528q0 -309 246 -309q270 0 270 330v340q0 82 -25 102q-21 16 -106 16v39q130 0 256 10v-720q0 -82 25 -101q20 -16 106 -18v-39q-147 0 -249 -10l-1 125q-112 -144 -317 -144q-187 0 -264 106q-64 89 -64 285v349q0 78 -23.5 98t-103.5 20v39q140 0 250 10z
M563 -163q88 0 88 -84t-88 -84t-88 84t88 84z" />
    <glyph glyph-name="glyph351" unicode="&#x1ee6;" horiz-adv-x="1337" 
d="M18 1255h6q42 0 125 -2t125 -2q49 0 256 4v-51q-115 0 -144 -17q-46 -27 -46 -130v-570q0 -224 69 -322q83 -116 296 -116q120 0 206 48q99 56 123 165q10 47 10 158v616q0 124 -46 151q-29 17 -169 17v51h7q41 0 123.5 -2t123.5 -2q66 0 236 4v-51q-118 0 -143 -16
q-37 -23 -37 -131v-586q0 -141 -11 -203q-53 -297 -444 -297q-405 0 -464 296q-11 55 -11 222v568q0 103 -47 130q-30 17 -144 17v51zM695 1365h-66v28q0 41 78 110t78 119q0 85 -103 85q-102 0 -102 -76v-35h-37v137q79 28 138 28q70 0 122 -30q65 -38 65 -110
q0 -69 -86.5 -137.5t-86.5 -98.5v-20z" />
    <glyph glyph-name="glyph352" unicode="&#x1ee7;" horiz-adv-x="1145" 
d="M309 878v-528q0 -309 246 -309q270 0 270 330v340q0 82 -25 102q-21 16 -106 16v39q130 0 256 10v-720q0 -82 25 -101q20 -16 106 -18v-39q-147 0 -249 -10l-1 125q-112 -144 -317 -144q-187 0 -264 106q-64 89 -64 285v349q0 78 -23.5 98t-103.5 20v39q140 0 250 10z
M571 997h-66v28q0 41 78 110t78 119q0 85 -103 85q-102 0 -102 -76v-35h-37v137q79 28 138 28q70 0 122 -30q65 -38 65 -110q0 -69 -86.5 -137.5t-86.5 -98.5v-20z" />
    <glyph glyph-name="glyph353" unicode="&#x1ee8;" horiz-adv-x="1383" 
d="M18 1255h6q42 0 125 -2t125 -2q49 0 256 4v-51q-115 0 -144 -17q-46 -27 -46 -130v-570q0 -224 69 -322q83 -116 296 -116q120 0 206 48q99 56 123 165q10 47 10 158v616q0 124 -46 151q-29 17 -169 17v51h7q41 0 123.5 -2t123.5 -2q66 0 236 4v-51q-118 0 -143 -16
q-37 -23 -37 -131v-586q0 -141 -11 -203q-53 -297 -444 -297q-405 0 -464 296q-11 55 -11 222v568q0 103 -47 130q-30 17 -144 17v51zM1293 1326h165l-249 -309h-77zM616 1397h-49l242 305q40 51 71 51q56 0 56 -53q0 -30 -47 -70z" />
    <glyph glyph-name="glyph354" unicode="&#x1ee9;" horiz-adv-x="1178" 
d="M309 878v-528q0 -309 246 -309q270 0 270 330v340q0 82 -25 102q-21 16 -106 16v39q130 0 256 10v-720q0 -82 25 -101q20 -16 106 -18v-39q-147 0 -249 -10l-1 125q-112 -144 -317 -144q-187 0 -264 106q-64 89 -64 285v349q0 78 -23.5 98t-103.5 20v39q140 0 250 10z
M1033 968h165l-249 -309h-77zM497 1008h-49l242 305q40 51 71 51q56 0 56 -53q0 -30 -47 -70z" />
    <glyph glyph-name="glyph355" unicode="&#x1eea;" horiz-adv-x="1383" 
d="M18 1255h6q42 0 125 -2t125 -2q49 0 256 4v-51q-115 0 -144 -17q-46 -27 -46 -130v-570q0 -224 69 -322q83 -116 296 -116q120 0 206 48q99 56 123 165q10 47 10 158v616q0 124 -46 151q-29 17 -169 17v51h7q41 0 123.5 -2t123.5 -2q66 0 236 4v-51q-118 0 -143 -16
q-37 -23 -37 -131v-586q0 -141 -11 -203q-53 -297 -444 -297q-405 0 -464 296q-11 55 -11 222v568q0 103 -47 130q-30 17 -144 17v51zM1293 1326h165l-249 -309h-77zM817 1397h-49l-273 233q-47 40 -47 70q0 53 56 53q31 0 71 -51z" />
    <glyph glyph-name="glyph356" unicode="&#x1eeb;" horiz-adv-x="1178" 
d="M309 878v-528q0 -309 246 -309q270 0 270 330v340q0 82 -25 102q-21 16 -106 16v39q130 0 256 10v-720q0 -82 25 -101q20 -16 106 -18v-39q-147 0 -249 -10l-1 125q-112 -144 -317 -144q-187 0 -264 106q-64 89 -64 285v349q0 78 -23.5 98t-103.5 20v39q140 0 250 10z
M1033 968h165l-249 -309h-77zM698 1008h-49l-273 233q-47 40 -47 70q0 53 56 53q31 0 71 -51z" />
    <glyph glyph-name="glyph357" unicode="&#x1eec;" horiz-adv-x="1383" 
d="M18 1255h6q42 0 125 -2t125 -2q49 0 256 4v-51q-115 0 -144 -17q-46 -27 -46 -130v-570q0 -224 69 -322q83 -116 296 -116q120 0 206 48q99 56 123 165q10 47 10 158v616q0 124 -46 151q-29 17 -169 17v51h7q41 0 123.5 -2t123.5 -2q66 0 236 4v-51q-118 0 -143 -16
q-37 -23 -37 -131v-586q0 -141 -11 -203q-53 -297 -444 -297q-405 0 -464 296q-11 55 -11 222v568q0 103 -47 130q-30 17 -144 17v51zM1293 1326h165l-249 -309h-77zM695 1365h-66v28q0 41 78 110t78 119q0 85 -103 85q-102 0 -102 -76v-35h-37v137q79 28 138 28
q70 0 122 -30q65 -38 65 -110q0 -69 -86.5 -137.5t-86.5 -98.5v-20z" />
    <glyph glyph-name="glyph358" unicode="&#x1eed;" horiz-adv-x="1178" 
d="M309 878v-528q0 -309 246 -309q270 0 270 330v340q0 82 -25 102q-21 16 -106 16v39q130 0 256 10v-720q0 -82 25 -101q20 -16 106 -18v-39q-147 0 -249 -10l-1 125q-112 -144 -317 -144q-187 0 -264 106q-64 89 -64 285v349q0 78 -23.5 98t-103.5 20v39q140 0 250 10z
M1033 968h165l-249 -309h-77zM571 997h-66v28q0 41 78 110t78 119q0 85 -103 85q-102 0 -102 -76v-35h-37v137q79 28 138 28q70 0 122 -30q65 -38 65 -110q0 -69 -86.5 -137.5t-86.5 -98.5v-20z" />
    <glyph glyph-name="glyph359" unicode="&#x1eee;" horiz-adv-x="1383" 
d="M18 1255h6q42 0 125 -2t125 -2q49 0 256 4v-51q-115 0 -144 -17q-46 -27 -46 -130v-570q0 -224 69 -322q83 -116 296 -116q120 0 206 48q99 56 123 165q10 47 10 158v616q0 124 -46 151q-29 17 -169 17v51h7q41 0 123.5 -2t123.5 -2q66 0 236 4v-51q-118 0 -143 -16
q-37 -23 -37 -131v-586q0 -141 -11 -203q-53 -297 -444 -297q-405 0 -464 296q-11 55 -11 222v568q0 103 -47 130q-30 17 -144 17v51zM1293 1326h165l-249 -309h-77zM929 1663h43q-37 -182 -174 -182q-42 0 -131.5 30.5t-122.5 30.5q-75 0 -99 -90h-43q34 184 170 184
q45 0 132 -29.5t130 -29.5q74 0 95 86z" />
    <glyph glyph-name="glyph360" unicode="&#x1eef;" horiz-adv-x="1178" 
d="M309 878v-528q0 -309 246 -309q270 0 270 330v340q0 82 -25 102q-21 16 -106 16v39q130 0 256 10v-720q0 -82 25 -101q20 -16 106 -18v-39q-147 0 -249 -10l-1 125q-112 -144 -317 -144q-187 0 -264 106q-64 89 -64 285v349q0 78 -23.5 98t-103.5 20v39q140 0 250 10z
M1033 968h165l-249 -309h-77zM800 1274h43q-37 -182 -174 -182q-42 0 -131.5 30.5t-122.5 30.5q-75 0 -99 -90h-43q34 184 170 184q45 0 132 -29.5t130 -29.5q74 0 95 86z" />
    <glyph glyph-name="glyph361" unicode="&#x1ef0;" horiz-adv-x="1383" 
d="M18 1255h6q42 0 125 -2t125 -2q49 0 256 4v-51q-115 0 -144 -17q-46 -27 -46 -130v-570q0 -224 69 -322q83 -116 296 -116q120 0 206 48q99 56 123 165q10 47 10 158v616q0 124 -46 151q-29 17 -169 17v51h7q41 0 123.5 -2t123.5 -2q66 0 236 4v-51q-118 0 -143 -16
q-37 -23 -37 -131v-586q0 -141 -11 -203q-53 -297 -444 -297q-405 0 -464 296q-11 55 -11 222v568q0 103 -47 130q-30 17 -144 17v51zM1293 1326h165l-249 -309h-77zM692 -163q88 0 88 -84t-88 -84t-88 84t88 84z" />
    <glyph glyph-name="glyph362" unicode="&#x1ef1;" horiz-adv-x="1178" 
d="M309 878v-528q0 -309 246 -309q270 0 270 330v340q0 82 -25 102q-21 16 -106 16v39q130 0 256 10v-720q0 -82 25 -101q20 -16 106 -18v-39q-147 0 -249 -10l-1 125q-112 -144 -317 -144q-187 0 -264 106q-64 89 -64 285v349q0 78 -23.5 98t-103.5 20v39q140 0 250 10z
M1033 968h165l-249 -309h-77zM563 -163q88 0 88 -84t-88 -84t-88 84t88 84z" />
    <glyph glyph-name="glyph363" unicode="&#x1ef2;" horiz-adv-x="1266" 
d="M14 1255q207 -6 486 0v-51q-127 0 -155 -14.5t-28 -54.5q0 -24 25 -64l301 -481l291 459q39 62 39 94q0 61 -178 61v51q270 -6 456 0v-51q-106 -6 -202 -153l-353 -541v-311q0 -103 46 -130q31 -18 145 -18v-51q-90 4 -256 4t-256 -4v51q113 0 143 18q45 27 45 130v315
l-356 555q-87 135 -193 135v51zM767 1397h-49l-273 233q-47 40 -47 70q0 53 56 53q31 0 71 -51z" />
    <glyph glyph-name="glyph364" unicode="&#x1ef3;" horiz-adv-x="985" 
d="M-39 874q43 0 130.5 -3t131.5 -3q90 0 160 10v-53q-91 0 -111 -4q-67 -13 -67 -69q0 -20 10 -41l291 -619l285 617q12 26 12 45q0 71 -174 71v45q27 0 81 -1t81 -1h108q62 0 111 8l-1 -51q-82 -10 -147 -149l-405 -866q-29 -62 -29 -99q0 -49 53 -60q14 -3 92 -3v-41
q-64 4 -182 4q-114 0 -176 -4v41q82 0 129 98l105 221l-349 729q-62 129 -139 129v49zM618 1008h-49l-273 233q-47 40 -47 70q0 53 56 53q31 0 71 -51z" />
    <glyph glyph-name="glyph365" unicode="&#x1ef4;" horiz-adv-x="1266" 
d="M14 1255q207 -6 486 0v-51q-127 0 -155 -14.5t-28 -54.5q0 -24 25 -64l301 -481l291 459q39 62 39 94q0 61 -178 61v51q270 -6 456 0v-51q-106 -6 -202 -153l-353 -541v-311q0 -103 46 -130q31 -18 145 -18v-51q-90 4 -256 4t-256 -4v51q113 0 143 18q45 27 45 130v315
l-356 555q-87 135 -193 135v51zM632 -163q88 0 88 -84t-88 -84t-88 84t88 84z" />
    <glyph glyph-name="glyph366" unicode="&#x1ef5;" horiz-adv-x="985" 
d="M-39 874q43 0 130.5 -3t131.5 -3q90 0 160 10v-53q-91 0 -111 -4q-67 -13 -67 -69q0 -20 10 -41l291 -619l285 617q12 26 12 45q0 71 -174 71v45q27 0 81 -1t81 -1h108q62 0 111 8l-1 -51q-82 -10 -147 -149l-405 -866q-29 -62 -29 -99q0 -49 53 -60q14 -3 92 -3v-41
q-64 4 -182 4q-114 0 -176 -4v41q82 0 129 98l105 221l-349 729q-62 129 -139 129v49zM722 -163q88 0 88 -84t-88 -84t-88 84t88 84z" />
    <glyph glyph-name="glyph367" unicode="&#x1ef6;" horiz-adv-x="1266" 
d="M14 1255q207 -6 486 0v-51q-127 0 -155 -14.5t-28 -54.5q0 -24 25 -64l301 -481l291 459q39 62 39 94q0 61 -178 61v51q270 -6 456 0v-51q-106 -6 -202 -153l-353 -541v-311q0 -103 46 -130q31 -18 145 -18v-51q-90 4 -256 4t-256 -4v51q113 0 143 18q45 27 45 130v315
l-356 555q-87 135 -193 135v51zM665 1365h-66v28q0 41 78 110t78 119q0 85 -103 85q-102 0 -102 -76v-35h-37v137q79 28 138 28q70 0 122 -30q65 -38 65 -110q0 -69 -86.5 -137.5t-86.5 -98.5v-20z" />
    <glyph glyph-name="glyph368" unicode="&#x1ef7;" horiz-adv-x="985" 
d="M-39 874q43 0 130.5 -3t131.5 -3q90 0 160 10v-53q-91 0 -111 -4q-67 -13 -67 -69q0 -20 10 -41l291 -619l285 617q12 26 12 45q0 71 -174 71v45q27 0 81 -1t81 -1h108q62 0 111 8l-1 -51q-82 -10 -147 -149l-405 -866q-29 -62 -29 -99q0 -49 53 -60q14 -3 92 -3v-41
q-64 4 -182 4q-114 0 -176 -4v41q82 0 129 98l105 221l-349 729q-62 129 -139 129v49zM521 997h-66v28q0 41 78 110t78 119q0 85 -103 85q-102 0 -102 -76v-35h-37v137q79 28 138 28q70 0 122 -30q65 -38 65 -110q0 -69 -86.5 -137.5t-86.5 -98.5v-20z" />
    <glyph glyph-name="glyph369" unicode="&#x1ef8;" horiz-adv-x="1266" 
d="M14 1255q207 -6 486 0v-51q-127 0 -155 -14.5t-28 -54.5q0 -24 25 -64l301 -481l291 459q39 62 39 94q0 61 -178 61v51q270 -6 456 0v-51q-106 -6 -202 -153l-353 -541v-311q0 -103 46 -130q31 -18 145 -18v-51q-90 4 -256 4t-256 -4v51q113 0 143 18q45 27 45 130v315
l-356 555q-87 135 -193 135v51zM889 1663h43q-37 -182 -174 -182q-42 0 -131.5 30.5t-122.5 30.5q-75 0 -99 -90h-43q34 184 170 184q45 0 132 -29.5t130 -29.5q74 0 95 86z" />
    <glyph glyph-name="glyph370" unicode="&#x1ef9;" horiz-adv-x="985" 
d="M-39 874q43 0 130.5 -3t131.5 -3q90 0 160 10v-53q-91 0 -111 -4q-67 -13 -67 -69q0 -20 10 -41l291 -619l285 617q12 26 12 45q0 71 -174 71v45q27 0 81 -1t81 -1h108q62 0 111 8l-1 -51q-82 -10 -147 -149l-405 -866q-29 -62 -29 -99q0 -49 53 -60q14 -3 92 -3v-41
q-64 4 -182 4q-114 0 -176 -4v41q82 0 129 98l105 221l-349 729q-62 129 -139 129v49zM750 1274h43q-37 -182 -174 -182q-42 0 -131.5 30.5t-122.5 30.5q-75 0 -99 -90h-43q34 184 170 184q45 0 132 -29.5t130 -29.5q74 0 95 86z" />
    <glyph glyph-name="endash" unicode="&#x2013;" horiz-adv-x="1024" 
d="M0 485h1024v-82h-1024v82z" />
    <glyph glyph-name="emdash" unicode="&#x2014;" horiz-adv-x="2048" 
d="M0 485h2048v-82h-2048v82z" />
    <glyph glyph-name="quoteleft" unicode="&#x2018;" horiz-adv-x="563" 
d="M129 1255h172l102 -366h-84z" />
    <glyph glyph-name="quoteright" unicode="&#x2019;" horiz-adv-x="563" 
d="M266 1255h174l-190 -366h-86z" />
    <glyph glyph-name="quotesinglbase" unicode="&#x201a;" horiz-adv-x="563" 
d="M213 145h174l-190 -368h-86z" />
    <glyph glyph-name="quotedblleft" unicode="&#x201c;" horiz-adv-x="907" 
d="M473 1255h172l103 -366h-84zM129 1255h172l102 -366h-84z" />
    <glyph glyph-name="quotedblright" unicode="&#x201d;" horiz-adv-x="907" 
d="M612 1255h172l-190 -366h-84zM268 1255h172l-190 -366h-84z" />
    <glyph glyph-name="quotedblbase" unicode="&#x201e;" horiz-adv-x="907" 
d="M557 145h172l-190 -368h-84zM213 145h174l-190 -368h-86z" />
    <glyph glyph-name="dagger" unicode="&#x2020;" horiz-adv-x="1024" 
d="M461 1255h102v-397h338v-94h-338v-973h-102v973h-338v94h338v397z" />
    <glyph glyph-name="daggerdbl" unicode="&#x2021;" horiz-adv-x="1024" 
d="M461 1255h102v-350h338v-96h-338v-494h338v-96h-338v-428h-102v428h-338v96h338v494h-338v96h338v350z" />
    <glyph glyph-name="bullet" unicode="&#x2022;" horiz-adv-x="1208" 
d="M307 762q0 124 86.5 209.5t210.5 85.5q123 0 209 -86t86 -209t-87 -210t-210 -87q-124 0 -209.5 86.5t-85.5 210.5z" />
    <glyph glyph-name="ellipsis" unicode="&#x2026;" horiz-adv-x="2048" 
d="M342 139q88 0 88 -84t-88 -84t-88 84t88 84zM1024 139q88 0 88 -84t-88 -84t-88 84t88 84zM1708 139q88 0 88 -84t-88 -84t-88 84t88 84z" />
    <glyph glyph-name="perthousand" unicode="&#x2030;" horiz-adv-x="2355" 
d="M1948 606q-189 0 -189 -282q0 -295 180 -295q195 0 195 284q0 293 -186 293zM1235 606q-191 0 -191 -282q0 -295 181 -295q194 0 194 284q0 293 -184 293zM1651 317q0 150 74 244q81 103 227 103q142 0 221 -104q70 -94 70 -241q0 -157 -75 -249q-81 -99 -235 -99
q-140 0 -216 107q-66 93 -66 239zM936 317q0 150 74 244q81 103 227 103q142 0 221 -104q70 -94 70 -241q0 -157 -74 -248q-81 -100 -235 -100q-141 0 -217 106q-66 94 -66 240zM412 1227q-189 0 -189 -281q0 -295 178 -295q197 0 197 285q0 291 -186 291zM1176 1284h104
l-811 -1313h-104zM113 938q0 150 74 244q81 104 227 104q143 0 222 -104q71 -93 71 -240q0 -151 -73 -246q-81 -104 -228 -104q-146 0 -224 103q-69 92 -69 243z" />
    <glyph glyph-name="guilsinglleft" unicode="&#x2039;" horiz-adv-x="559" 
d="M336 748h135l-258 -314l258 -313h-135l-248 313z" />
    <glyph glyph-name="guilsinglright" unicode="&#x203a;" horiz-adv-x="559" 
d="M88 748h135l248 -314l-248 -313h-135l258 313z" />
    <glyph glyph-name="fraction" unicode="&#x2044;" horiz-adv-x="342" 
d="M578 1284h104l-920 -1313h-104z" />
    <glyph glyph-name="franc" unicode="&#x20a3;" horiz-adv-x="1847" 
d="M74 1249h962v-297h-78q0 153 -24 186t-156 33h-383v-493h176q135 0 160 20q29 25 33 156h59v-426h-59q0 126 -40 158q-33 26 -165 26h-164v-397q0 -115 52 -145q33 -19 161 -19v-51q-96 4 -278 4q-181 0 -279 -4v51q131 0 158 13q53 25 53 135v858q0 104 -44 130
q-29 17 -144 17v45zM1788 889v-254h-49q0 6 1 18.5t1 18.5q0 151 -133 151q-130 0 -179 -108q-34 -73 -34 -219v-310q0 -95 39 -122q29 -21 123 -21v-43q-74 4 -160 4h-114q-83 0 -155 -4v43q87 0 115.5 28t28.5 115v525q0 80 -27 101q-21 16 -106 18v38q140 0 250 10v-124
q104 143 299 143q52 0 100 -8z" />
    <glyph glyph-name="u20AB" unicode="&#x20ab;" horiz-adv-x="793" 
d="M350 940q-202 0 -202 -281q0 -272 204 -272q197 0 197 263q0 290 -199 290zM634 1257v-135h150v-49h-150v-606q0 -58 19 -72q14 -10 76 -12v-28q-99 0 -173 -7v105q-78 -118 -226 -118q-141 0 -212 94q-64 84 -64 228q0 143 64 232q73 101 210 101q154 0 216 -108v191
h-219v49h219v13q0 59 -15.5 72t-78.5 16v27q106 0 184 7zM110 190h488v-71h-488v71z" />
    <glyph glyph-name="trademark" unicode="&#x2122;" horiz-adv-x="1683" 
d="M795 1434h176l143 -406l154 406h168v-23q-42 -3 -55 -9q-23 -12 -23 -48v-369q0 -36 23 -48q13 -6 55 -9v-25h-234v25q44 3 56 9q24 11 24 48v399l-182 -485h-13l-174 485v-399q0 -37 24 -48q12 -6 56 -9v-25h-198v25q42 0 56 7q23 11 23 48v371q0 36 -24 47
q-13 7 -55 10v23zM260 1434h438l11 -174h-25q-8 82 -41 115q-37 36 -121 36v-426q0 -37 24 -48q13 -7 56 -9v-25h-246v25q42 2 55 9q23 11 23 48v426h-22q-124 0 -138 -151h-24z" />
    <glyph glyph-name="partialdiff" unicode="&#x2202;" horiz-adv-x="1034" 
d="M752 592q24 166 24 309q0 326 -155 326q-45 0 -108 -68.5t-103 -68.5q-29 0 -51.5 19t-22.5 48q0 72 77 116q64 36 142 36q193 0 289 -193q74 -150 74 -364q0 -334 -136 -556.5t-333 -222.5q-154 0 -243 119q-81 107 -81 266q0 168 100 294q107 136 271 136
q191 0 256 -196zM711 463q0 258 -179 258q-137 0 -207 -165q-53 -124 -53 -282q0 -251 179 -251q134 0 205 162q55 124 55 278z" />
    <glyph glyph-name="product" unicode="&#x220f;" horiz-adv-x="1567" 
d="M59 1473h1448v-68h-188v-1731h188v-67h-524v67h201v1731h-803v-1731h203v-67h-525v67h187v1731h-187v68z" />
    <glyph glyph-name="summation" unicode="&#x2211;" horiz-adv-x="1409" 
d="M12 1473h1110l90 -322h-71l-62 213q-12 41 -78 41h-780l907 -862v-37l-886 -772h905q46 0 65.5 11t32.5 52l74 230h70l-127 -420h-1250v18l989 856l-989 946v46z" />
    <glyph glyph-name="minus" unicode="&#x2212;" horiz-adv-x="1706" 
d="M254 659h1198v-98h-1198v98z" />
    <glyph glyph-name="radical" unicode="&#x221a;" horiz-adv-x="1276" 
d="M1098 1636h178v-71h-125l-594 -1606h-41l-328 899l-114 -39l-19 58l246 86l272 -746z" />
    <glyph glyph-name="infinity" unicode="&#x221e;" horiz-adv-x="1706" 
d="M897 559q103 -199 281 -199q111 0 178 79q63 75 63 188q0 105 -56 180q-61 82 -163 82q-104 0 -191 -119q-49 -67 -112 -211zM811 668q-103 196 -281 196q-110 0 -177 -78q-64 -74 -64 -186q0 -104 56 -179q62 -83 163 -83q105 0 192 118q50 68 111 212zM868 502
q-137 -266 -321 -266q-144 0 -233 119q-81 109 -81 257q0 152 69 255q79 120 224 120q188 0 312 -266q134 272 331 272q138 0 226 -123q80 -111 80 -254q0 -152 -69 -255q-79 -119 -224 -119q-180 0 -314 260z" />
    <glyph glyph-name="integral" unicode="&#x222b;" horiz-adv-x="985" 
d="M293 -272q103 0 117 713l4 196q12 491 98 699q88 212 268 212q65 0 109 -33q49 -37 49 -100q0 -104 -107 -104q-76 0 -103 69.5t-34 69.5q-103 0 -116 -623q-2 -96 -7 -289q-16 -501 -101 -703q-87 -206 -267 -206q-63 0 -108 31q-50 36 -50 96q0 111 113 111
q90 0 109 -101q7 -38 26 -38z" />
    <glyph glyph-name="approxequal" unicode="&#x2248;" horiz-adv-x="1706" 
d="M1530 580v-111q-208 -145 -387 -145q-99 0 -290 69.5t-288 69.5q-153 0 -387 -160v111q210 145 387 145q101 0 295 -68.5t283 -68.5q164 0 387 158zM1530 918v-111q-204 -145 -387 -145q-99 0 -290 69.5t-288 69.5q-153 0 -387 -160v113q209 145 387 145q101 0 295 -69.5
t283 -69.5q158 0 387 158z" />
    <glyph glyph-name="approxequal" unicode="&#x22f2;" horiz-adv-x="1706" 
d="M1530 580v-111q-208 -145 -387 -145q-99 0 -290 69.5t-288 69.5q-153 0 -387 -160v111q210 145 387 145q101 0 295 -68.5t283 -68.5q164 0 387 158zM1530 918v-111q-204 -145 -387 -145q-99 0 -290 69.5t-288 69.5q-153 0 -387 -160v113q209 145 387 145q101 0 295 -69.5
t283 -69.5q158 0 387 158z" />
    <glyph glyph-name="notequal" unicode="&#x2260;" horiz-adv-x="1706" 
d="M1214 1169l74 -59l-205 -264h369v-96h-432l-215 -277h647v-98h-709l-254 -324l-73 60l205 264h-367v98h428l215 277h-643v96h707z" />
    <glyph glyph-name="lessequal" unicode="&#x2264;" horiz-adv-x="1706" 
d="M264 139h1178v-98h-1178v98zM1442 1182v-107l-1010 -338l1010 -336v-106l-1178 401v84z" />
    <glyph glyph-name="greaterequal" unicode="&#x2265;" horiz-adv-x="1706" 
d="M264 139h1178v-98h-1178v98zM264 1182l1178 -402v-84l-1178 -401v106l1010 336l-1010 338v107z" />
    <glyph glyph-name="SF370000" unicode="&#x255f;" horiz-adv-x="1376" 
d="M678 1147l-234 -612h478zM627 1255h127l450 -1097q31 -75 61 -92q25 -15 111 -15v-51h-12q-37 0 -110.5 2t-110.5 2q-100 0 -215 -4v51q7 0 22 -1t23 -1q100 0 100 51q0 29 -20 84l-101 279h-540l-109 -303q-14 -39 -14 -56q0 -41 59 -51q14 -2 90 -2v-51q-197 6 -413 0
v51q77 0 109 23t61 96z" />
    <glyph glyph-name="SF420000" unicode="&#x2560;" horiz-adv-x="1143" 
d="M74 1251h977v-299l-78 1q-1 59 -4 97q-7 72 -22 92q-25 32 -165 32h-387v-496h162q108 0 138 5q17 2 46 15q25 22 30 156h58v-426h-57q0 121 -32 152.5t-181 31.5h-164v-534h406q120 0 148 39t30 223h76v-340h-1010v51q135 0 162 12q55 24 55 136v858q0 104 -44 130
q-29 17 -144 17v47z" />
    <glyph glyph-name="SF190000" unicode="&#x2561;" horiz-adv-x="666" 
d="M78 1255h6q42 0 125 -2t125 -2q49 0 256 4v-51q-114 0 -144 -18q-47 -26 -47 -129v-858q0 -103 46 -130q31 -18 145 -18v-51q-89 4 -233 4h-67q-123 0 -212 -4v51q113 0 143 18q45 27 45 130v858q0 102 -45 129q-30 18 -143 18v51z" />
    <glyph glyph-name="SF200000" unicode="&#x2562;" horiz-adv-x="1432" 
d="M717 1219q-240 0 -354 -183q-93 -149 -93 -405t93 -405q114 -183 354 -183q444 0 444 588q0 256 -92 405q-112 183 -352 183zM717 1286q295 0 451 -185q145 -172 145 -472q0 -301 -145 -473q-156 -185 -451 -185q-296 0 -452 184q-146 172 -146 474q0 301 146 473
q157 184 452 184z" />
    <glyph glyph-name="SF230000" unicode="&#x2563;" horiz-adv-x="1337" 
d="M18 1255h6q42 0 125 -2t125 -2q49 0 256 4v-51q-115 0 -144 -17q-46 -27 -46 -130v-570q0 -224 69 -322q83 -116 296 -116q120 0 206 48q99 56 123 165q10 47 10 158v616q0 124 -46 151q-29 17 -169 17v51h7q41 0 123.5 -2t123.5 -2q66 0 236 4v-51q-118 0 -143 -16
q-37 -23 -37 -131v-586q0 -141 -11 -203q-53 -297 -444 -297q-405 0 -464 296q-11 55 -11 222v568q0 103 -47 130q-30 17 -144 17v51z" />
    <glyph glyph-name="SF470000" unicode="&#x2564;" horiz-adv-x="1266" 
d="M14 1255q207 -6 486 0v-51q-127 0 -155 -14.5t-28 -54.5q0 -24 25 -64l301 -481l291 459q39 62 39 94q0 61 -178 61v51q270 -6 456 0v-51q-106 -6 -202 -153l-353 -541v-311q0 -103 46 -130q31 -18 145 -18v-51q-90 4 -256 4t-256 -4v51q113 0 143 18q45 27 45 130v315
l-356 555q-87 135 -193 135v51z" />
    <glyph glyph-name="SF480000" unicode="&#x2565;" 
d="M553 459q-338 0 -338 -217q0 -203 231 -203q275 0 275 338v82h-168zM975 39v-39q-150 0 -254 -10v137q-87 -156 -311 -156q-142 0 -226 62q-94 70 -94 207q0 170 161 235q109 45 321 45q29 0 79 -1t70 -1v109q0 213 -266 213q-218 0 -226 -197h-43v217q165 35 289 35
q212 0 293 -90q76 -84 76 -299v-348q0 -80 26 -101q22 -18 105 -18z" />
    <glyph glyph-name="SF410000" unicode="&#x2566;" horiz-adv-x="1020" 
d="M926 403h-705q10 -364 320 -364q243 0 284 199h84q-56 -267 -393 -267q-213 0 -324 127q-104 119 -104 336q0 212 107 333q112 128 321 128q410 0 410 -453v-39zM809 469v6q0 359 -293 359q-277 0 -299 -365h592z" />
    <glyph glyph-name="SF450000" unicode="&#x2567;" horiz-adv-x="545" 
d="M340 878v-692q0 -95 37 -122q29 -21 123 -21v-43q-76 4 -196 4h-49q-108 0 -181 -4v43q87 0 115 28t28 115v525q0 81 -27 101q-20 16 -106 18v38q130 0 256 10zM260 1284q49 0 68.5 -17t19.5 -65q0 -84 -88 -84t-88 84q0 82 88 82z" />
    <glyph glyph-name="SF460000" unicode="&#x2568;" horiz-adv-x="545" 
d="M332 878v-692q0 -95 39 -122q29 -21 123 -21v-43q-76 4 -199 4h-48q-109 0 -181 -4v43q87 0 115 28t28 115v525q0 81 -26 101q-21 16 -107 18v38q130 0 256 10z" />
    <glyph glyph-name="SF400000" unicode="&#x2569;" horiz-adv-x="1034" 
d="M516 831q-295 0 -295 -397q0 -395 295 -395q158 0 235 124q62 102 62 271q0 397 -297 397zM516 895q210 0 323 -127q107 -121 107 -334q0 -212 -107 -334q-114 -129 -323 -129t-322 129q-106 122 -106 334t107 333q112 128 321 128z" />
    <glyph glyph-name="SF540000" unicode="&#x256a;" horiz-adv-x="1145" 
d="M309 878v-528q0 -309 246 -309q270 0 270 330v340q0 82 -25 102q-21 16 -106 16v39q130 0 256 10v-720q0 -82 25 -101q20 -16 106 -18v-39q-147 0 -249 -10l-1 125q-112 -144 -317 -144q-187 0 -264 106q-64 89 -64 285v349q0 78 -23.5 98t-103.5 20v39q140 0 250 10z
" />
    <glyph glyph-name="SF530000" unicode="&#x256b;" horiz-adv-x="985" 
d="M-39 874q43 0 130.5 -3t131.5 -3q90 0 160 10v-53q-91 0 -111 -4q-67 -13 -67 -69q0 -20 10 -41l291 -619l285 617q12 26 12 45q0 71 -174 71v45q27 0 81 -1t81 -1h108q62 0 111 8l-1 -51q-82 -10 -147 -149l-405 -866q-29 -62 -29 -99q0 -49 53 -60q14 -3 92 -3v-41
q-64 4 -182 4q-114 0 -176 -4v41q82 0 129 98l105 221l-349 729q-62 129 -139 129v49z" />
    <glyph glyph-name="lozenge" unicode="&#x25ca;" horiz-adv-x="1012" 
d="M506 1409l-385 -817l385 -825l385 825zM506 1653l500 -1061l-500 -1069l-500 1069z" />
    <glyph glyph-name="circle" unicode="&#x25cb;" horiz-adv-x="1376" 
d="M649 1685h94l223 -348h-47l-223 231l-223 -231h-47zM555 1715h-49l242 305q40 51 71 51q56 0 56 -53q0 -30 -47 -70z" />
    <glyph glyph-name="H18533" unicode="&#x25cf;" horiz-adv-x="1376" 
d="M649 1685h94l223 -348h-47l-223 231l-223 -231h-47zM888 1715h-49l-273 233q-47 40 -47 70q0 53 56 53q31 0 71 -51z" />
    <glyph glyph-name="invbullet" unicode="&#x25d8;" horiz-adv-x="1376" 
d="M649 1685h94l223 -348h-47l-223 231l-223 -231h-47zM906 1650h-66v28q0 41 78 110t78 119q0 85 -103 85q-102 0 -102 -76v-35h-37v137q79 28 138 28q70 0 122 -30q65 -38 65 -110q0 -69 -86.5 -137.5t-86.5 -98.5v-20z" />
    <glyph glyph-name="invcircle" unicode="&#x25d9;" horiz-adv-x="1376" 
d="M649 1685h94l223 -348h-47l-223 231l-223 -231h-47zM1026 1953h43q-37 -182 -174 -182q-42 0 -131.5 30.5t-122.5 30.5q-75 0 -99 -90h-43q34 184 170 184q45 0 132 -29.5t130 -29.5q74 0 95 86z" />
    <glyph glyph-name="apple" unicode="&#xf000;" horiz-adv-x="1618" 
d="M836 1216q-2 12 -2 37q0 132 101 237q96 99 230 124q2 -20 2 -62q0 -131 -103.5 -234.5t-211.5 -103.5q-3 0 -8.5 1t-7.5 1zM1505 403q-90 -195 -153 -280q-118 -158 -256 -158q-45 0 -128 33t-126 33q-45 0 -129.5 -33t-128.5 -33q-128 0 -259 176q-99 134 -156 296
q-56 155 -56 300q0 211 117 348q124 146 331 146q57 0 150 -34t129 -34q34 0 126 35t148 35q217 0 359 -164q-201 -128 -201 -328q0 -233 233 -338z" />
    <glyph glyph-name="fi" unicode="&#xf001;" horiz-adv-x="1176" 
d="M717 1262v-183h-47q-3 81 -39.5 115.5t-118.5 34.5q-98 0 -135 -52q-31 -44 -31 -147v-162h383q144 0 234 10v-692q0 -95 38 -123q28 -20 123 -20v-43q-74 4 -217 4q-137 0 -211 -4v43q87 0 115.5 28t28.5 115v500q0 83 -20 102t-128 19h-346v-621q0 -94 35 -121
q29 -22 127 -22v-43q-74 4 -161 4h-108q-87 0 -159 -4v43q87 0 115 28t28 115v621h-155v61h155v160q0 142 79 203q70 53 216 53q81 0 199 -22zM883 1284q90 0 90 -82q0 -84 -90 -84q-88 0 -88 84q0 82 88 82z" />
    <glyph glyph-name="fl" unicode="&#xf002;" horiz-adv-x="1176" 
d="M80 43q87 0 115 28t28 115v621h-155v61h155v160q0 142 79 202q69 54 216 54q43 0 129 -12t129 -12q33 0 187 12v-1086q0 -95 38 -122q29 -21 123 -21v-43q-74 4 -217 4q-137 0 -211 -4v43q87 0 115.5 28t28.5 115v918q0 77 -20.5 96t-102.5 22v-143h-47
q-3 81 -39.5 115.5t-118.5 34.5q-98 0 -135 -52q-31 -44 -31 -147v-162h260v-61h-260v-621q0 -94 39 -122q30 -21 123 -21v-43q-76 4 -215 4t-213 -4v43z" />
    <glyph glyph-name="periodcentered" horiz-adv-x="563" 
d="M283 727q38 0 63 -25t25 -63q0 -36 -26 -61t-62 -25t-62 25t-26 61q0 37 25.5 62.5t62.5 25.5z" />
    <glyph glyph-name="glyph275" horiz-adv-x="563" 
 />
    <glyph glyph-name="glyph276" horiz-adv-x="563" 
 />
    <glyph glyph-name="glyph261" horiz-adv-x="563" 
d="M303 1246h165l-249 -309h-77z" />
    <glyph glyph-name="glyph262" horiz-adv-x="744" 
d="M537 987h-66v28q0 41 78 110t78 119q0 85 -103 85q-102 0 -102 -76v-35h-37v137q79 28 138 28q70 0 122 -30q65 -38 65 -110q0 -69 -86.5 -137.5t-86.5 -98.5v-20z" />
    <glyph glyph-name="glyph263" 
d="M449 1356h94l223 -348h-47l-223 231l-223 -231h-47zM355 1386h-49l242 305q40 51 71 51q56 0 56 -53q0 -30 -47 -70z" />
    <glyph glyph-name="glyph264" 
d="M449 1356h94l223 -348h-47l-223 231l-223 -231h-47zM687 1386h-49l-273 233q-47 40 -47 70q0 53 56 53q31 0 71 -51z" />
    <glyph glyph-name="glyph265" 
d="M449 1356h94l223 -348h-47l-223 231l-223 -231h-47zM705 1321h-66v28q0 41 78 110t78 119q0 85 -103 85q-102 0 -102 -76v-35h-37v137q79 28 138 28q70 0 122 -30q65 -38 65 -110q0 -69 -86.5 -137.5t-86.5 -98.5v-20z" />
    <glyph glyph-name="glyph266" 
d="M449 1356h94l223 -348h-47l-223 231l-223 -231h-47zM826 1625h43q-37 -182 -174 -182q-42 0 -131.5 30.5t-122.5 30.5q-75 0 -99 -90h-43q34 184 170 184q45 0 132 -29.5t130 -29.5q74 0 95 86z" />
    <glyph glyph-name="glyph267" 
d="M214 1313h45q32 -156 238 -156t236 156h47q-41 -264 -283 -264t-283 264zM385 1386h-49l242 305q40 51 71 51q56 0 56 -53q0 -30 -47 -70z" />
    <glyph glyph-name="glyph268" 
d="M214 1313h45q32 -156 238 -156t236 156h47q-41 -264 -283 -264t-283 264zM667 1386h-49l-273 233q-47 40 -47 70q0 53 56 53q31 0 71 -51z" />
    <glyph glyph-name="glyph269" 
d="M214 1313h45q32 -156 238 -156t236 156h47q-41 -264 -283 -264t-283 264zM511 1321h-66v28q0 41 78 110t78 119q0 85 -103 85q-102 0 -102 -76v-35h-37v137q79 28 138 28q70 0 122 -30q65 -38 65 -110q0 -69 -86.5 -137.5t-86.5 -98.5v-20z" />
    <glyph glyph-name="glyph270" 
d="M214 1313h45q32 -156 238 -156t236 156h47q-41 -264 -283 -264t-283 264zM806 1625h43q-37 -182 -174 -182q-42 0 -131.5 30.5t-122.5 30.5q-75 0 -99 -90h-43q34 184 170 184q45 0 132 -29.5t130 -29.5q74 0 95 86z" />
    </font>
</defs>
</svg>
