<?xml version="1.0" encoding="utf-8"?>
<!-- Generator: Adobe Illustrator 16.0.0, SVG Export Plug-In . SVG Version: 6.00 Build 0)  -->
<!DOCTYPE svg PUBLIC "-//W3C//DTD SVG 1.1//EN" "http://www.w3.org/Graphics/SVG/1.1/DTD/svg11.dtd">
<svg version="1.1" id="Layer_1" xmlns="http://www.w3.org/2000/svg" xmlns:xlink="http://www.w3.org/1999/xlink" x="0px" y="0px"
	 width="250px" height="250px" viewBox="0 0 250 250" enable-background="new 0 0 250 250" xml:space="preserve">
<g enable-background="new    ">
	<path fill="#FFFFFF" d="M171.504,154.481c0,4.103-3.4,7.502-7.502,7.502H81.48c-4.103,0-7.502-3.399-7.502-7.502v-75.02
		c0-4.103,3.399-7.502,7.502-7.502h7.502v-5.627c0-5.157,4.22-9.377,9.377-9.377h3.751c5.158,0,9.377,4.22,9.377,9.377v5.627h22.506
		v-5.627c0-5.157,4.219-9.377,9.377-9.377h3.751c5.157,0,9.378,4.22,9.378,9.377v5.627h7.502c4.102,0,7.502,3.399,7.502,7.502
		V154.481z M98.359,111.345V94.466H81.48v16.879H98.359z M98.359,133.851v-18.754H81.48v18.754H98.359z M98.359,154.481v-16.879
		H81.48v16.879H98.359z M103.986,66.333c0-0.996-0.879-1.875-1.875-1.875h-3.751c-0.997,0-1.875,0.879-1.875,1.875v16.88
		c0,0.996,0.879,1.876,1.875,1.876h3.751c0.997,0,1.875-0.88,1.875-1.876V66.333z M120.865,111.345V94.466H102.11v16.879H120.865z
		 M120.865,133.851v-18.754H102.11v18.754H120.865z M120.865,154.481v-16.879H102.11v16.879H120.865z M143.371,111.345V94.466
		h-18.755v16.879H143.371z M143.371,133.851v-18.754h-18.755v18.754H143.371z M143.371,154.481v-16.879h-18.755v16.879H143.371z
		 M148.998,66.333c0-0.996-0.879-1.875-1.876-1.875h-3.751c-0.996,0-1.875,0.879-1.875,1.875v16.88c0,0.996,0.879,1.876,1.875,1.876
		h3.751c0.997,0,1.876-0.88,1.876-1.876V66.333z M164.002,111.345V94.466h-16.88v16.879H164.002z M164.002,133.851v-18.754h-16.88
		v18.754H164.002z M164.002,154.481v-16.879h-16.88v16.879H164.002z"/>
</g>
</svg>
