<?xml version="1.0" encoding="utf-8"?>
<!-- Generator: Adobe Illustrator 16.0.0, SVG Export Plug-In . SVG Version: 6.00 Build 0)  -->
<!DOCTYPE svg PUBLIC "-//W3C//DTD SVG 1.1//EN" "http://www.w3.org/Graphics/SVG/1.1/DTD/svg11.dtd">
<svg version="1.1" id="Layer_1" xmlns="http://www.w3.org/2000/svg" xmlns:xlink="http://www.w3.org/1999/xlink" x="0px" y="0px"
	 width="250px" height="250px" viewBox="0 0 250 250" enable-background="new 0 0 250 250" xml:space="preserve">
<g>
	<path fill-rule="evenodd" clip-rule="evenodd" fill="#FFFFFF" d="M211.045,133.192c-0.696-0.99-1.392-1.981-2.088-2.972
		c-0.027-1.01-0.054-2.018-0.08-3.027c0.419-2.54-0.486-4.899-1.324-7.153c-1.936-5.205-9.51-6.606-9.216-13.42
		c0.003-0.075-0.282-0.249-0.414-0.231c-5.481,0.73-5.813-4.435-7.152-7.267c-1.88-3.971-5.118-5.239-8.379-6.935
		c-0.007-0.232-0.024-0.466-0.067-0.701c-3.435-5.129-4.811-11.1-6.784-16.817c-0.593-1.715-0.633-3.887-2.378-4.706
		c-4.058-1.906-5.191-5.566-6.483-9.326c-0.798-2.323-2.022-4.514-3.628-6.436c-1.334,0-2.666,0-4,0
		c-2.833,4.546-3.294,9.626-3.314,14.8c-0.013,3.316,0.076,6.615-1.359,9.76c-1.342,2.941-2.818,4.073-6.103,2.103
		c-3.94-2.364-7.995-4.677-12.548-5.808c-0.363-0.021-0.724-0.018-1.08,0.002c-1.333-1.396-3.79-1.967-3.456-4.585
		c1.453-1.078,1.273-3.053,2.08-4.21c1.259-1.808,3.368-3.419,3.56-5.519c0.296-3.24-2.937-0.834-4.308-1.798
		c-0.049-0.268-0.135-0.546-0.311-0.854c-4.98-0.351-9.767-1.397-14.155-3.891c-0.334,0-0.667,0-1,0
		c-0.506,1.341-2.723,0.167-2.908,1.978c0.416,1.143,2.28,2.945-1.089,2.361c-0.213-0.037-0.43-0.027-0.646,0.003
		c0.85-0.374,1.539-0.866,0.869-2.365c-2.716-1.62-6.229-1.448-6.828,1.267c-0.681,3.088,3.527-0.394,4.609,1.725
		c-3.428,1.976-4.472,5.817-6.804,8.644c-1.331,1.614-0.903,2.566,0.721,3.409c-1.511,2.665-3.244-0.735-4.819,0.176
		c-0.733-0.367-1.467-0.734-2.2-1.101c-2.694-3.667-5.803-3.572-9.293-1.144c-1.656,1.153-3.284,2.13-4.763,3.692
		c-1.578,1.666-1.838,5.165-3.071,5.066c-3.897-0.313-2.043,2.708-2.723,4.06c-1.824,0-1.188-3.324-3.204-2.181
		c-1.514,0.859-3.135,1.875-3.551,3.928c-1.521,7.526-4.252,9.637-11.409,11.51c-7.147,1.871-14.888,2.777-20.632,8.079
		c-1.518,1.401-4.645-0.001-4.563,2.181c0.153,4.127-2.938,7.944-0.785,12.245c0.846,1.691,3.122,3.852,0.999,5.676
		c-2.278,1.957-1.882-2.633-3.911-2.23c-0.317,0.063-0.658,0.012-0.988,0.014c0,0.333,0,0.666,0,1
		c1.114,3.156,4.396,4.925,5.462,7.971c3.207,9.149,7.508,18.03,7.582,28.035c-2.499,1.131-5.483,2.884-2.4,5.448
		c2.644,2.199,5.578,5.061,10.172,3.866c4.187-1.089,7.941-2.596,11.161-5.444c0.339-0.025,0.678-0.052,1.017-0.077
		c1.658-0.31,3.316-0.618,4.975-0.928c3.382-0.151,6.716,2.645,10.136,0.165c2.682-2.817,5.318-6.372,9.288-6.587
		c5.879-0.317,11.143-2.836,16.841-3.578c4.367-0.568,8.467,0.263,12.769,1.222c5.406,1.205,11.432,6.524,11.593,12.178
		c0.042,1.479,1.116,1.996,2.03,2.463c1.283,0.655,1.908-0.062,2.479-1.428c1.037-2.487,2.531-4.758,5.871-4.255
		c0.892,3.061-0.972,4.944-2.907,6.797c1.69,1.544,3.378,1.344,5.18,0.129c1.487-1.004,0.782,0.607,1.095,0.999
		c0.047,0.183,0.125,0.35,0.212,0.512c-1.644,1.749-3.889-0.743-5.629,0.322c-1.37,0.321-2.892,1.946-1.425,2.228
		c2.356,0.45,5.966,2.13,7.517-1.932c1.84-0.129,3.116-0.709,4.657,1.884c1.838,3.093,0.441,7.298,4.171,9.605
		c4.4,2.722,9.798,2.329,14.135,5.046c0.247,0.154,1.064-0.146,1.277-0.462c2.608-3.876,5.269-2.244,8.033-0.213
		c0.771,0.567,1.767,0.83,2.659,1.233v-0.001c1.299,0.838,0.933-0.43,1.174-0.929c4.03-2.033,7.532-5.089,12.52-5.172
		c2.049-0.034,3.018-1.946,3.413-4.569c1.103-7.317,4.028-14.204,8.504-20.064c2.71-3.548,4.899-6.86,4.526-11.428
		c2.043-2.291,1.087-5.661,2.893-8.038C211.045,135.859,211.045,134.525,211.045,133.192z M176.205,175.56
		c-0.066-0.125-0.125-0.249-0.171-0.373c0.005,0.001,0.01,0,0.015,0.001C176.117,175.316,176.157,175.437,176.205,175.56z
		 M183.048,169.171c0,0.005,0,0.01,0,0.015c-0.136,0.062-0.275,0.091-0.418,0.108C182.769,169.251,182.905,169.205,183.048,169.171z
		 M179.813,99.604c0.011-0.424,0.005-0.81-0.014-1.163c0.14,0.052,0.271,0.087,0.395,0.103
		C180.094,98.888,179.975,99.24,179.813,99.604z M172.042,174.134c0.016,0.011,0.032,0.02,0.048,0.03
		c-0.013,0.009-0.026,0.016-0.039,0.024c0.001,0.001,0.002,0.002,0.002,0.003c-0.001-0.001-0.004-0.002-0.005-0.002
		c0.001-0.001,0.001-0.001,0.002-0.002C172.049,174.168,172.044,174.153,172.042,174.134z M186.017,179.19
		c0.014-0.023,0.02-0.034,0.031-0.053c-0.001,0.006,0,0.011,0,0.018C186.035,179.164,186.03,179.183,186.017,179.19L186.017,179.19z
		 M112.156,79.229c0.003,0.001,0.006,0.001,0.009,0.002c-0.01,0.009-0.021,0.014-0.031,0.023c-0.009,0.012-0.017,0.026-0.025,0.038
		c-0.002-0.003-0.004-0.006-0.006-0.009c0.011-0.009,0.021-0.019,0.031-0.029C112.141,79.245,112.149,79.238,112.156,79.229z
		 M107.895,99.102c-0.19-0.245-0.354-0.507-0.491-0.788C107.905,98.515,108.001,98.793,107.895,99.102z M107.078,98.147
		c-0.006,0.018-0.015,0.032-0.02,0.05c0.005,0.001,0.008,0.003,0.013,0.004c-0.006,0.003-0.013,0.004-0.019,0.007
		c0.002-0.004,0.003-0.007,0.005-0.011c-0.021-0.005-0.04-0.012-0.061-0.017C107.023,98.168,107.051,98.157,107.078,98.147z
		 M92.232,132.053c-0.016-0.077-0.024-0.151-0.037-0.227c0.005,0.005,0.008,0.011,0.013,0.016
		C92.562,131.424,92.428,132.128,92.232,132.053z M79.05,149.2c0.005,0.004,0.008,0.011,0.013,0.015
		c0.001,0.037,0.005,0.063,0.007,0.098c-0.023-0.024-0.043-0.052-0.066-0.075C79.019,149.225,79.034,149.212,79.05,149.2z
		 M86.339,138.943c-0.232-0.062-0.472-0.169-0.727-0.354c0.181-0.16,0.374-0.303,0.576-0.434
		C86.226,138.385,86.276,138.646,86.339,138.943z M99.029,126.162c0.025-0.016,0.05-0.033,0.074-0.049
		c-0.014,0.023-0.025,0.049-0.04,0.071c-0.003,0.001-0.006,0.003-0.008,0.005C99.047,126.181,99.038,126.172,99.029,126.162z
		 M120.314,90.184c-0.432-0.43-0.247-0.546,0.18-0.524C120.438,89.837,120.377,90.011,120.314,90.184z M185.784,179.517
		c0.045-0.052,0.087-0.109,0.131-0.164C185.862,179.435,185.818,179.491,185.784,179.517z"/>
	<path fill-rule="evenodd" clip-rule="evenodd" fill="#FFFFFF" d="M187.048,197.186c1.019-2.22,0.355-4.202-0.965-6.023
		c-0.142-0.196-1.223-0.098-1.343,0.135c-0.998,1.933,1.619,2.972,1.271,4.794c-4.169,1.805-8.303,2.856-12.594,0.187
		c-1.265-0.787-3.494-1.16-2.82,1.3c1.086,3.955,2.42,8.053,4.659,11.417c1.803,2.708,5.172,4.114,8.755,2.184
		c2.943,0.354,3.778-0.541,1.831-3.088C186.377,204.47,189.035,201.084,187.048,197.186z"/>
	<path fill-rule="evenodd" clip-rule="evenodd" fill="#FFFFFF" d="M167.901,190.186c-0.834,0.179-0.852,0.865-0.803,1.469
		c0.046,0.573-0.018,1.424,0.979,1.258c0.778-0.129,0.931-0.801,0.909-1.451C168.965,190.792,168.751,190.193,167.901,190.186z"/>
	<path fill-rule="evenodd" clip-rule="evenodd" fill="#FFFFFF" d="M195.163,79.678c0.689-0.124,0.976-0.701,0.773-1.418
		c-0.126-0.449-0.289-0.888-0.328-1.005c-1.387,0.523-1.718,1.046-1.423,1.709C194.335,79.298,194.877,79.729,195.163,79.678z"/>
	<path fill-rule="evenodd" clip-rule="evenodd" fill="#FFFFFF" d="M135.962,66.603c-0.949-0.05-1.629,0.56-1.696,1.41
		c-0.084,1.054,0.803,1.265,1.685,1.267c0.837,0.001,1.111-0.511,1.125-1.255C136.881,67.407,136.804,66.647,135.962,66.603z"/>
	<polygon fill-rule="evenodd" clip-rule="evenodd" fill="#FFFFFF" points="172.051,174.188 172.05,174.188 172.05,174.188 	"/>
</g>
</svg>
