<?xml version="1.0" encoding="utf-8"?>
<!-- Generator: Adobe Illustrator 16.0.0, SVG Export Plug-In . SVG Version: 6.00 Build 0)  -->
<!DOCTYPE svg PUBLIC "-//W3C//DTD SVG 1.1//EN" "http://www.w3.org/Graphics/SVG/1.1/DTD/svg11.dtd">
<svg version="1.1" id="Layer_1" xmlns="http://www.w3.org/2000/svg" xmlns:xlink="http://www.w3.org/1999/xlink" x="0px" y="0px"
	 width="250px" height="250px" viewBox="0 0 250 250" enable-background="new 0 0 250 250" xml:space="preserve">
<g enable-background="new    ">
	<path fill="#FFFFFF" d="M89.129,158.568c0,2.596-2.15,4.746-4.746,4.746H63.026c-2.596,0-4.746-2.15-4.746-4.746v-47.461
		c0-2.596,2.15-4.746,4.746-4.746h21.357c2.596,0,4.746,2.15,4.746,4.746V158.568z M72.518,144.33c-2.67,0-4.746,2.15-4.746,4.746
		c0,2.67,2.076,4.746,4.746,4.746c2.596,0,4.746-2.076,4.746-4.746C77.264,146.48,75.114,144.33,72.518,144.33z M172.854,122.157
		c0.816,2.373,1.112,4.598,1.112,5.636c0.148,3.708-0.964,7.193-3.188,10.159c0.815,2.744,0.815,5.711,0,8.677
		c-0.742,2.744-2.15,5.191-4.005,6.971c0.444,5.563-0.815,10.086-3.634,13.423c-3.188,3.782-8.083,5.71-14.609,5.784
		c-0.297,0-1.334,0-2.67,0h-5.635h-1.262c-10.604,0-20.615-3.485-28.625-6.229c-4.672-1.631-9.121-3.188-11.717-3.263
		c-2.521-0.074-4.746-2.15-4.746-4.746v-47.535c0-2.447,2.076-4.523,4.523-4.746c2.744-0.223,9.863-9.047,13.126-13.349
		c2.67-3.411,5.191-6.6,7.49-8.898c2.892-2.893,3.708-7.342,4.598-11.643c0.815-4.376,1.706-8.974,4.895-12.088
		c0.889-0.89,2.076-1.409,3.336-1.409c16.611,0,16.611,13.274,16.611,18.984c0,6.081-2.15,10.382-4.152,14.238
		c-0.816,1.632-1.557,2.373-2.15,4.746h20.541c7.713,0,14.238,6.525,14.238,14.238C176.932,115.038,175.375,119.265,172.854,122.157
		z"/>
</g>
</svg>
