<?xml version="1.0" encoding="utf-8"?>
<!-- Generator: Adobe Illustrator 16.0.0, SVG Export Plug-In . SVG Version: 6.00 Build 0)  -->
<!DOCTYPE svg PUBLIC "-//W3C//DTD SVG 1.1//EN" "http://www.w3.org/Graphics/SVG/1.1/DTD/svg11.dtd">
<svg version="1.1" id="Layer_1" xmlns="http://www.w3.org/2000/svg" xmlns:xlink="http://www.w3.org/1999/xlink" x="0px" y="0px"
	 width="250px" height="250px" viewBox="0 0 250 250" enable-background="new 0 0 250 250" xml:space="preserve">
<g>
	<path fill-rule="evenodd" clip-rule="evenodd" fill="#FFFFFF" d="M226.276,118.889c-0.11,4.06-0.238,8.118-0.325,12.178
		c-0.042,1.956-0.007,3.912-0.007,5.767c-4.76,0-9.146,0-13.298,0c0-4.33,0-8.395,0-12.458c0-4.063,0-8.124,0-12.404
		c-1.411,0-3.06,0-4.922,0c0-4.064,0-7.918,0-12.29c6.148,0,12.35,0,18.552,0C226.276,106.083,226.276,112.485,226.276,118.889z"/>
	<path fill-rule="evenodd" clip-rule="evenodd" fill="#FFFFFF" d="M75.409,98.284c1.569,0.383,3.203,0.597,4.693,1.181
		c5.337,2.089,8.772,6.023,10.267,11.506c1.446,5.303,1.1,10.609-0.906,15.728c-3.482,8.886-13.046,12.603-21.521,8.219
		c-7.107-3.677-10.289-9.866-10.045-17.732c0.252-8.12,3.518-14.494,11.426-17.709c1.58-0.642,3.354-0.807,5.039-1.191
		C74.711,98.284,75.061,98.284,75.409,98.284z M74.761,102.748c-0.061-0.147-0.121-0.295-0.182-0.442
		c-1.975,0.742-4.131,1.189-5.894,2.275c-8.43,5.193-9.176,18.791-1.482,25.016c6.221,5.033,14.536,3.305,18.032-3.91
		c2.862-5.903,2.527-11.842-0.782-17.488C82.325,104.567,79.01,102.748,74.761,102.748z"/>
	<path fill-rule="evenodd" clip-rule="evenodd" fill="#FFFFFF" d="M47.122,98.284c2.969,1.116,5.684,2.59,7.622,5.475
		c-1.129,0.774-2.242,1.538-3.351,2.297c-0.855-0.784-1.565-1.554-2.39-2.168c-2.704-2.018-6.019-1.79-8.237,0.502
		c-1.885,1.947-1.979,4.711,0.029,6.516c1.137,1.021,2.604,1.696,3.973,2.433c2.291,1.231,4.811,2.128,6.896,3.634
		c3.488,2.517,4.806,8.09,3.313,12.346c-1.507,4.297-5.57,7.307-10.018,7.418c-6.403,0.16-10.79-3.441-12.427-10.341
		c1.427-0.489,2.872-0.984,4.361-1.494c0.433,1.197,0.753,2.312,1.227,3.356c2.188,4.832,7.366,4.634,10.213,2.99
		c3.166-1.828,3.608-7.464,0.73-10.084c-1.31-1.191-2.951-2.034-4.492-2.949c-1.944-1.154-3.999-2.13-5.9-3.349
		c-3.068-1.966-4.489-4.871-3.975-8.483c0.552-3.874,2.914-6.339,6.61-7.548c0.543-0.178,1.082-0.366,1.623-0.55
		C44.328,98.284,45.726,98.284,47.122,98.284z"/>
	<path fill-rule="evenodd" clip-rule="evenodd" fill="#FFFFFF" d="M215.102,151.716c0-3.769,0-7.537,0-11.603
		c2.201,0.11,4.287,0.057,6.32,0.354c2.715,0.399,4.352,2.351,4.513,4.958c0.182,2.941-1.154,5.031-3.787,5.939
		c-0.262,0.091-0.507,0.232-0.76,0.351C219.292,151.716,217.196,151.716,215.102,151.716z M218.034,145.859
		c0,0.756,0.055,1.516-0.012,2.266c-0.105,1.172,0.356,1.544,1.515,1.399c2.719-0.338,4.07-2.418,3.186-5.016
		c-0.454-1.335-2.281-2.421-3.851-2.104c-1.646,0.331-0.503,1.731-0.823,2.589C217.953,145.249,218.033,145.569,218.034,145.859z"/>
	<path fill-rule="evenodd" clip-rule="evenodd" fill="#FFFFFF" d="M23.724,144.033c1.646-3.905,3.883-5.203,7.833-4.545
		c1.937,0.322,2.111,0.576,1.836,2.736c-2.092-0.642-4.267-1.589-5.953,0.722c-0.944,1.294-0.779,3.889,0.215,5.091
		c1.079,1.305,2.861,1.414,5.626,0.346c0.523,2.032,0.406,2.241-1.503,2.691c-3.887,0.917-6.397-0.517-8.054-4.597
		C23.724,145.663,23.724,144.848,23.724,144.033z"/>
	<path fill-rule="evenodd" clip-rule="evenodd" fill="#FFFFFF" d="M144.906,151.716c0-3.811,0-7.62,0-11.543
		c2.611,0,5.136,0,7.797,0c0,0.624,0,1.225,0,2.026c-1.563,0-3.153,0-4.866,0c0,0.791,0,1.387,0,2.166c1.486,0,2.969,0,4.602,0
		c0.039,0.774,0.069,1.38,0.11,2.189c-1.619,0.073-3.142,0.142-4.849,0.218c0,1.726,0,3.335,0,4.943
		C146.769,151.716,145.838,151.716,144.906,151.716z"/>
	<path fill-rule="evenodd" clip-rule="evenodd" fill="#FFFFFF" d="M164.229,117.624c-0.049,4.785-1.008,9.646-4.174,13.798
		c-6.993,9.171-22.661,7.465-27.61-3.074c-2.742-5.843-3.078-12.025-1.232-18.196c1.981-6.628,7.367-10.565,14.258-11.212
		C156.792,97.877,164.579,105.859,164.229,117.624z M142.001,117.666c0.4,2.741,0.773,5.245,2.748,7.182
		c1.733,1.699,3.943,1.491,5.396-0.444c2.118-2.823,2.363-9.121,0.472-12.127c-1.782-2.83-5.051-2.982-6.747-0.086
		C142.914,113.82,142.603,115.828,142.001,117.666z"/>
	<path fill-rule="evenodd" clip-rule="evenodd" fill="#FFFFFF" d="M201.55,118.867c-0.049,3.545-1.029,8.767-4.597,13.094
		c-7.345,8.907-22.457,6.743-27.139-3.914c-2.539-5.778-2.874-11.843-1.037-17.88c2.858-9.393,11.341-12.027,18.63-11.014
		C196.704,100.447,201.603,106.787,201.55,118.867z M189.762,117.874c-0.493-1.84-0.701-3.617-1.434-5.144
		c-1.559-3.252-5.062-3.346-7.036-0.331c-1.956,2.985-1.803,8.879,0.306,11.79c1.978,2.73,5.096,2.652,6.522-0.379
		C188.986,121.973,189.24,119.847,189.762,117.874z"/>
	<path fill-rule="evenodd" clip-rule="evenodd" fill="#FFFFFF" d="M107.568,126.241c-1.506-0.204-2.663-0.304-3.796-0.523
		c-9.385-1.821-11.222-10.805-8.995-17.26c1.167-3.381,3.279-6.101,6.527-7.609c6.882-3.198,13.757-3.184,20.274,0.97
		c6.363,4.056,8.43,11.266,5.337,18.135c-0.685,1.521-1.54,3.021-2.582,4.317c-3.059,3.806-6.233,7.519-9.414,11.224
		c-0.362,0.422-1.049,0.791-1.589,0.797c-5.41,0.067-10.82,0.055-16.231,0.057c-0.15,0-0.301-0.082-0.68-0.193
		C100.125,132.859,103.702,129.679,107.568,126.241z M115.551,114.158c0.023-2.705-1.553-4.652-3.811-4.709
		c-2.463-0.061-4.163,1.681-4.191,4.296c-0.029,2.688,1.668,4.76,3.947,4.818C113.9,118.626,115.527,116.858,115.551,114.158z"/>
	<path fill-rule="evenodd" clip-rule="evenodd" fill="#FFFFFF" d="M24.112,99.046c1.686,0,3.174,0,4.77,0
		c0,12.438,0,24.787,0,37.305c-1.602-0.254-3.125-0.496-4.77-0.757C24.112,123.455,24.112,111.336,24.112,99.046z"/>
	<path fill-rule="evenodd" clip-rule="evenodd" fill="#FFFFFF" d="M84.275,150.813c-2.923,0.529-2.927,0.531-4.054-1.764
		c-0.65-1.325-1.241-2.724-3.339-2.133c0,1.269,0,2.578,0,4.011c-0.994,0-1.827,0-2.789,0c0-3.729,0-7.467,0-11.404
		c1.695,0,3.361-0.067,5.02,0.021c1.473,0.078,3.03,0.339,3.534,1.999c0.508,1.673,0.188,3.216-1.377,3.918
		C82.293,147.283,83.264,149.013,84.275,150.813z M76.911,145.067c1.174-0.483,2.092-0.727,2.821-1.239
		c0.231-0.162,0.146-1.38-0.12-1.528c-0.765-0.427-1.697-0.553-2.701-0.837C76.911,142.769,76.911,143.619,76.911,145.067z"/>
	<path fill-rule="evenodd" clip-rule="evenodd" fill="#FFFFFF" d="M52.143,146.097c0,1.036,0,1.772,0,2.736c1.696,0,3.346,0,5.081,0
		c0,0.831,0,1.434,0,2.13c-2.67,0-5.255,0-7.935,0c0-3.782,0-7.482,0-11.32c2.563,0,5.139,0,7.826,0c0,0.618,0,1.221,0,2.078
		c-1.099,0-2.19,0.078-3.267-0.018c-1.626-0.145-2.134,0.497-1.585,2.206c1.423,0,2.906,0,4.511,0c0,0.789,0,1.393,0,2.188
		C55.316,146.097,53.833,146.097,52.143,146.097z"/>
	<path fill-rule="evenodd" clip-rule="evenodd" fill="#FFFFFF" d="M198.83,139.951c0,0.703,0,1.264,0,2.062
		c-1.625,0-3.218,0-4.917,0c0,0.845,0,1.454,0,2.253c1.483,0,2.967,0,4.57,0c0,0.785,0,1.384,0,2.17c-1.481,0-2.966,0-4.563,0
		c0,0.962,0,1.746,0,2.741c1.617,0,3.268,0,5.014,0c0,0.811,0,1.413,0,2.112c-2.631,0-5.219,0-7.942,0c0-3.769,0-7.501,0-11.338
		C193.573,139.951,196.104,139.951,198.83,139.951z"/>
	<path fill-rule="evenodd" clip-rule="evenodd" fill="#FFFFFF" d="M109.08,139.943c0,0.682,0,1.241,0,2.003
		c-1.169,0.076-2.35,0.153-3.734,0.244c0,3.065,0,6.055,0,9.116c-1.066,0-1.923,0-2.962,0c0-3.002,0-5.998,0-9.132
		c-1.362-0.068-2.553-0.127-3.819-0.19c0-0.733,0-1.338,0-2.041C102.056,139.943,105.464,139.943,109.08,139.943z"/>
	<path fill-rule="evenodd" clip-rule="evenodd" fill="#FFFFFF" d="M124.442,139.833c0.888,0,1.723,0,2.64,0
		c0,3.824,0,7.545,0,11.357c-0.903,0-1.693,0-2.64,0C124.442,147.434,124.442,143.668,124.442,139.833z"/>
	<path fill-rule="evenodd" clip-rule="evenodd" fill="#FFFFFF" d="M169.813,139.91c0.938,0,1.735,0,2.671,0
		c0,3.793,0,7.524,0,11.367c-0.865,0-1.707,0-2.671,0C169.813,147.543,169.813,143.806,169.813,139.91z"/>
</g>
</svg>
